<svg width="501" height="298" viewBox="0 0 501 298" fill="none" xmlns="http://www.w3.org/2000/svg">
<path opacity="0.1" d="M240.63 298C368.844 298 472.781 292.529 472.781 285.781C472.781 279.032 368.844 273.562 240.63 273.562C112.417 273.562 8.47925 279.032 8.47925 285.781C8.47925 292.529 112.417 298 240.63 298Z" fill="#6C63FF"/>
<g opacity="0.2">
<path opacity="0.2" d="M432.23 286.329C432.017 286.699 431.769 287.052 431.488 287.381C429.016 285.781 426.503 284.213 423.948 282.679C424 282.58 424.055 282.478 424.115 282.379C424.709 281.327 425.598 280.439 426.69 279.809C428.102 279.021 429.694 278.832 430.981 279.47C432.269 280.109 433.024 281.417 433.101 282.931C433.146 284.115 432.845 285.288 432.23 286.329Z" fill="#3F3D56"/>
<path opacity="0.2" d="M435.685 280.393C437.239 277.698 436.682 274.629 434.442 273.539C432.201 272.449 429.124 273.75 427.57 276.445C426.016 279.14 426.573 282.209 428.813 283.299C431.054 284.389 434.131 283.088 435.685 280.393Z" fill="#3F3D56"/>
<path opacity="0.2" d="M439.122 274.428C440.677 271.732 440.12 268.664 437.879 267.574C435.638 266.483 432.562 267.784 431.007 270.479C429.453 273.174 430.01 276.243 432.251 277.333C434.492 278.424 437.568 277.123 439.122 274.428Z" fill="#3F3D56"/>
<path opacity="0.2" d="M442.565 268.46C444.12 265.765 443.563 262.696 441.322 261.606C439.081 260.516 436.005 261.817 434.451 264.512C432.896 267.207 433.453 270.276 435.694 271.366C437.935 272.456 441.011 271.155 442.565 268.46Z" fill="#3F3D56"/>
<path opacity="0.2" d="M446.005 262.491C447.559 259.796 447.002 256.727 444.762 255.637C442.521 254.547 439.444 255.848 437.89 258.543C436.336 261.238 436.893 264.306 439.133 265.397C441.374 266.487 444.451 265.186 446.005 262.491Z" fill="#3F3D56"/>
<path opacity="0.2" d="M450.274 212.265C450.095 211.354 449.983 210.432 449.94 209.506L461.526 213.085L449.94 207.567C450.108 204.809 450.889 202.111 452.235 199.641C453.58 197.17 455.461 194.978 457.762 193.2L468.967 208.123L460.251 191.54C462.812 190.071 465.675 189.101 468.661 188.692C471.647 188.283 474.693 188.442 477.61 189.161C480.526 189.879 483.25 191.141 485.612 192.869C487.975 194.596 489.925 196.751 491.342 199.2C492.758 201.649 493.611 204.34 493.847 207.105C494.082 209.87 493.696 212.65 492.712 215.272C491.728 217.894 490.166 220.302 488.126 222.346C486.085 224.39 483.608 226.026 480.849 227.153C481.133 228.583 481.248 230.036 481.192 231.489L463.534 231.363L480.922 233.992C480.334 237.31 478.856 240.442 476.621 243.104C474.385 245.766 471.462 247.874 468.117 249.238C468.855 252.97 468.434 256.818 466.904 260.342C465.373 263.865 462.794 266.921 459.461 269.162C456.128 271.402 452.176 272.735 448.057 273.01C443.938 273.284 439.818 272.488 436.168 270.712C432.518 268.937 429.486 266.254 427.418 262.97C425.35 259.687 424.33 255.935 424.474 252.144C424.619 248.352 425.922 244.675 428.234 241.532C430.547 238.389 433.775 235.907 437.551 234.37C436.674 229.913 437.453 225.314 439.761 221.311C442.07 217.308 445.775 214.134 450.283 212.297L450.274 212.265Z" fill="#15B7B9"/>
<path opacity="0.1" d="M478.635 240.204C476.333 244.214 472.624 247.392 468.108 249.222C468.846 252.955 468.426 256.803 466.895 260.326C465.364 263.849 462.785 266.906 459.452 269.146C456.119 271.386 452.167 272.72 448.048 272.994C443.929 273.268 439.809 272.472 436.16 270.697C432.51 268.921 429.478 266.238 427.41 262.955C425.342 259.671 424.322 255.919 424.466 252.128C424.61 248.337 425.913 244.659 428.226 241.516C430.538 238.373 433.767 235.891 437.543 234.354C436.689 230.046 479.793 238.201 478.635 240.204Z" fill="black"/>
</g>
<g opacity="0.2">
<path opacity="0.2" d="M418.443 167.106C418.176 167.739 417.853 168.35 417.477 168.935C413.155 166.817 408.776 164.759 404.342 162.762C404.402 162.593 404.471 162.415 404.544 162.246C405.263 160.449 406.493 158.862 408.105 157.65C410.195 156.113 412.714 155.533 414.971 156.318C417.228 157.102 418.67 159.077 419.121 161.485C419.446 163.381 419.212 165.322 418.443 167.106Z" fill="#15B7B9"/>
<path opacity="0.2" d="M422.684 156.904C424.597 152.288 423.036 147.457 419.198 146.115C415.359 144.773 410.697 147.427 408.784 152.044C406.871 156.66 408.432 161.49 412.27 162.832C416.108 164.174 420.771 161.52 422.684 156.904Z" fill="#15B7B9"/>
<path opacity="0.2" d="M426.921 146.69C428.834 142.074 427.273 137.244 423.434 135.901C419.596 134.559 414.934 137.214 413.021 141.83C411.107 146.446 412.668 151.276 416.507 152.618C420.345 153.961 425.008 151.306 426.921 146.69Z" fill="#15B7B9"/>
<path opacity="0.2" d="M431.15 136.471C433.063 131.855 431.503 127.025 427.664 125.683C423.826 124.34 419.163 126.995 417.25 131.611C415.337 136.227 416.898 141.057 420.736 142.4C424.575 143.742 429.237 141.087 431.15 136.471Z" fill="#15B7B9"/>
<path opacity="0.2" d="M435.387 126.261C437.3 121.645 435.739 116.815 431.901 115.473C428.062 114.131 423.4 116.785 421.487 121.401C419.574 126.017 421.135 130.847 424.973 132.19C428.811 133.532 433.474 130.878 435.387 126.261Z" fill="#15B7B9"/>
<path opacity="0.2" d="M431.368 44.8165C430.879 43.3733 430.499 41.9009 430.23 40.4097L449.635 44.04L429.827 37.2682C429.502 32.8215 430.168 28.3607 431.785 24.1587C433.401 19.9567 435.934 16.1018 439.229 12.83L460.496 34.6904L442.902 9.64915C446.699 6.8324 451.086 4.7625 455.79 3.5679C460.494 2.37331 465.415 2.07952 470.248 2.70475C475.081 3.32999 479.722 4.86092 483.884 7.20253C488.046 9.54413 491.639 12.6464 494.441 16.3169C497.244 19.9874 499.195 24.1477 500.173 28.5397C501.152 32.9316 501.138 37.4615 500.131 41.8482C499.125 46.2348 497.147 50.3846 494.322 54.04C491.496 57.6955 487.883 60.7785 483.707 63.0978C484.469 65.343 484.967 67.6569 485.191 69.9996L456.797 73.0268L485.303 74.0713C485.08 79.5111 483.383 84.814 480.368 89.5001C477.352 94.1862 473.112 98.1078 468.031 100.91C470.021 106.77 470.176 113.025 468.478 118.962C466.781 124.899 463.3 130.277 458.432 134.482C453.565 138.688 447.507 141.55 440.953 142.743C434.398 143.936 427.61 143.411 421.364 141.229C415.119 139.046 409.668 135.293 405.634 130.4C401.601 125.506 399.147 119.669 398.554 113.555C397.961 107.441 399.253 101.297 402.281 95.8257C405.309 90.3541 409.952 85.7754 415.679 82.6129C413.296 75.6089 413.546 68.0726 416.388 61.2147C419.23 54.3569 424.5 48.5759 431.35 44.8007L431.368 44.8165Z" fill="#15B7B9"/>
<path opacity="0.1" d="M482.99 84.5088C480.158 91.3679 474.887 97.1473 468.031 100.91C470.021 106.77 470.176 113.025 468.478 118.962C466.781 124.899 463.3 130.277 458.432 134.482C453.565 138.688 447.507 141.55 440.953 142.743C434.398 143.936 427.61 143.411 421.364 141.229C415.119 139.046 409.668 135.293 405.634 130.4C401.601 125.506 399.147 119.669 398.554 113.555C397.961 107.441 399.253 101.297 402.281 95.8257C405.309 90.3541 409.952 85.7754 415.679 82.6129C413.392 75.8648 484.415 81.0796 482.99 84.5088Z" fill="#15B7B9"/>
</g>
<g opacity="0.2">
<path opacity="0.2" d="M76.5455 201.087C76.7628 201.869 77.0498 202.634 77.4038 203.373C82.8392 201.46 88.3362 199.621 93.8946 197.855C93.8474 197.646 93.8002 197.429 93.7402 197.216C93.1804 194.997 91.9848 192.956 90.2772 191.304C88.0544 189.207 85.175 188.182 82.4072 188.805C79.6394 189.427 77.6011 191.564 76.6785 194.323C75.975 196.526 75.929 198.862 76.5455 201.087Z" fill="#15B7B9"/>
<path opacity="0.2" d="M84.549 196.853C89.2941 195.788 91.9113 190.3 90.3948 184.595C88.8782 178.889 83.8022 175.126 79.0572 176.19C74.3121 177.254 71.6948 182.743 73.2114 188.448C74.7279 194.154 79.8039 197.917 84.549 196.853Z" fill="#15B7B9"/>
<path opacity="0.2" d="M81.1917 184.231C85.9368 183.167 88.554 177.679 87.0375 171.973C85.5209 166.267 80.4449 162.505 75.6999 163.569C70.9548 164.633 68.3375 170.121 69.8541 175.827C71.3706 181.532 76.4466 185.295 81.1917 184.231Z" fill="#15B7B9"/>
<path opacity="0.2" d="M77.8387 171.604C82.5837 170.54 85.201 165.052 83.6845 159.347C82.1679 153.641 77.0919 149.878 72.3468 150.942C67.6018 152.006 64.9845 157.494 66.5011 163.2C68.0176 168.906 73.0936 172.669 77.8387 171.604Z" fill="#15B7B9"/>
<path opacity="0.2" d="M74.4804 158.975C79.2255 157.911 81.8427 152.423 80.3262 146.717C78.8097 141.011 73.7336 137.249 68.9886 138.313C64.2435 139.377 61.6262 144.865 63.1428 150.571C64.6593 156.276 69.7353 160.039 74.4804 158.975Z" fill="#15B7B9"/>
<path opacity="0.2" d="M80.9224 55.0367C81.7333 53.4009 82.4187 51.715 82.9736 49.9914L59.4967 51.639L83.9563 46.3336C85.0567 41.1282 84.9883 35.7712 83.7553 30.5909C82.5223 25.4107 80.1507 20.5163 76.7858 16.2076L48.1724 39.1637L72.9624 11.9979C68.9367 8.14722 64.0914 5.09864 58.7281 3.04182C53.3647 0.984993 47.5979 -0.0360623 41.7864 0.0421732C35.975 0.120409 30.2433 1.29626 24.9478 3.49658C19.6524 5.69689 14.9065 8.8746 11.0054 12.832C7.10429 16.7894 4.13148 21.4419 2.27189 26.4999C0.412306 31.5579 -0.294278 36.9134 0.196099 42.233C0.686477 47.5526 2.36333 52.7227 5.12232 57.4215C7.88132 62.1203 11.6634 66.2474 16.2334 69.5459C14.9729 72.0931 14.0134 74.7571 13.3712 77.4923L46.3916 84.9065L12.5859 82.2774C11.9766 88.725 13.1261 95.2103 15.9304 101.147C18.7347 107.084 23.1055 112.286 28.6477 116.282C25.3562 122.928 24.1668 130.29 25.2157 137.528C26.2645 144.765 29.5092 151.585 34.5788 157.209C39.6484 162.832 46.3383 167.032 53.8838 169.328C61.4293 171.624 69.5258 171.923 77.2477 170.192C84.9697 168.461 92.0054 164.768 97.5507 159.537C103.096 154.306 106.927 147.748 108.606 140.611C110.284 133.474 109.743 126.048 107.044 119.181C104.344 112.313 99.5959 106.282 93.341 101.777C97.2738 93.8327 98.1849 84.9048 95.9279 76.4278C93.671 67.9508 88.377 60.4169 80.8967 55.0367H80.9224Z" fill="#15B7B9"/>
<path opacity="0.1" d="M13.6287 94.8832C15.8675 103.367 21.1598 110.907 28.6477 116.282C25.3562 122.928 24.1669 130.291 25.2157 137.528C26.2645 144.766 29.5092 151.586 34.5788 157.209C39.6484 162.833 46.3384 167.033 53.8838 169.328C61.4293 171.624 69.5258 171.924 77.2478 170.192C84.9697 168.461 92.0055 164.769 97.5507 159.538C103.096 154.307 106.927 147.748 108.606 140.611C110.284 133.475 109.743 126.048 107.044 119.181C104.344 112.314 99.5959 106.283 93.341 101.777C97.1516 94.1107 12.5087 90.6617 13.6287 94.8832Z" fill="#15B7B9"/>
</g>
<path d="M453.274 44.8204H37.5733C37.086 44.821 36.6037 44.9097 36.1538 45.0816C35.7039 45.2534 35.2953 45.5051 34.9514 45.8221C34.6074 46.1391 34.3349 46.5153 34.1494 46.9291C33.9638 47.343 33.8689 47.7863 33.87 48.2339V281.926C33.8683 282.828 34.0601 283.722 34.4344 284.556C34.8087 285.39 35.3582 286.148 36.0516 286.787C36.7449 287.427 37.5685 287.934 38.4753 288.281C39.3821 288.627 40.3544 288.807 41.3366 288.808H449.51C450.493 288.807 451.465 288.627 452.372 288.281C453.279 287.934 454.102 287.427 454.796 286.787C455.489 286.148 456.038 285.39 456.413 284.556C456.787 283.722 456.979 282.828 456.977 281.926V48.2339C456.978 47.3303 456.589 46.4633 455.894 45.8232C455.2 45.1832 454.258 44.8225 453.274 44.8204Z" fill="url(#paint0_linear)"/>
<path d="M455.295 59.3296V280.55C455.294 282.353 454.514 284.082 453.126 285.357C451.738 286.632 449.856 287.349 447.893 287.35H43.0274C41.063 287.35 39.1792 286.633 37.7902 285.357C36.4012 284.081 35.6208 282.351 35.6208 280.546V59.3296H455.295Z" fill="white"/>
<path d="M455.295 49.4992V59.3296H35.6208V49.4992C35.6208 48.6043 36.0078 47.7461 36.6967 47.1134C37.3856 46.4806 38.3199 46.1251 39.2941 46.1251H451.622C452.596 46.1251 453.53 46.4806 454.219 47.1134C454.908 47.7461 455.295 48.6043 455.295 49.4992Z" fill="#15B7B9"/>
<path opacity="0.8" d="M42.2721 54.2055C43.2201 54.2055 43.9886 53.4996 43.9886 52.6288C43.9886 51.758 43.2201 51.0522 42.2721 51.0522C41.3241 51.0522 40.5557 51.758 40.5557 52.6288C40.5557 53.4996 41.3241 54.2055 42.2721 54.2055Z" fill="#FA5959"/>
<path opacity="0.8" d="M46.9923 54.2055C47.9403 54.2055 48.7088 53.4996 48.7088 52.6288C48.7088 51.758 47.9403 51.0522 46.9923 51.0522C46.0444 51.0522 45.2759 51.758 45.2759 52.6288C45.2759 53.4996 46.0444 54.2055 46.9923 54.2055Z" fill="#FED253"/>
<path opacity="0.8" d="M51.7127 54.2055C52.6606 54.2055 53.4291 53.4996 53.4291 52.6288C53.4291 51.758 52.6606 51.0522 51.7127 51.0522C50.7647 51.0522 49.9962 51.758 49.9962 52.6288C49.9962 53.4996 50.7647 54.2055 51.7127 54.2055Z" fill="#8CCF4D"/>
<path d="M269.883 40.4885V38.9119H267.308V40.4885H269.883Z" fill="url(#paint1_linear)"/>
<path d="M172.474 78.7185H132.137V82.6602H172.474V78.7185Z" fill="#EDEDF4"/>
<path d="M358.71 90.1493H132.137V94.0909H358.71V90.1493Z" fill="#EDEDF4"/>
<path d="M358.71 101.58H132.137V105.522H358.71V101.58Z" fill="#EDEDF4"/>
<path d="M358.71 113.011H132.137V116.952H358.71V113.011Z" fill="#EDEDF4"/>
<path d="M358.71 124.442H132.137V128.383H358.71V124.442Z" fill="#EDEDF4"/>
<path d="M315.296 146.247H175.405V245.576H315.296V146.247Z" fill="#EDEDF4"/>
<path d="M269.896 177.019C269.716 177.019 269.536 177.043 269.351 177.047C269.412 176.817 269.432 176.58 269.411 176.345C269.358 175.351 269.065 174.38 268.553 173.503C268.237 172.986 267.882 172.491 267.489 172.021C266.322 170.539 265.24 169.026 263.957 167.626C263.401 167.082 262.942 166.461 262.597 165.785C262.467 165.421 262.312 165.064 262.133 164.717C261.885 164.363 261.536 164.078 261.123 163.894C260.711 163.71 260.251 163.633 259.795 163.673C258.877 163.772 258.032 164.183 257.426 164.824C257.066 165.178 256.769 165.726 257.07 166.128C257.37 166.53 258.022 166.582 258.061 167.023C258.061 167.26 258.061 167.646 257.799 167.721C257.335 167.834 256.892 168.012 256.486 168.249C256.286 168.371 256.119 168.534 255.999 168.726C255.879 168.917 255.809 169.132 255.795 169.353C256.538 169.455 257.16 168.884 257.834 168.564C258.689 168.229 259.649 168.197 260.528 168.474C260.866 168.556 261.182 168.703 261.455 168.903C261.696 169.12 261.899 169.37 262.056 169.644C262.883 170.742 263.393 172.014 263.541 173.342L263.918 175.557C263.36 175.598 262.804 175.666 262.253 175.762C260.771 175.963 259.26 175.868 257.821 175.486C256.319 175.092 254.817 174.374 253.268 174.698C252.543 174.843 251.882 175.214 251.148 175.32C250.575 175.371 249.996 175.343 249.432 175.238L248.251 175.064C248.213 174.973 248.183 174.879 248.153 174.784C247.909 173.994 247.796 173.174 247.818 172.352C248.588 172.314 249.335 172.104 249.996 171.74C250.656 171.375 251.21 170.868 251.608 170.261C252.005 169.655 252.236 168.969 252.278 168.262C252.321 167.556 252.174 166.85 251.852 166.207C252.488 165.88 253.015 165.398 253.375 164.816L253.075 164.765L253.358 164.37C253.291 164.333 253.235 164.282 253.193 164.221C253.152 164.161 253.126 164.092 253.118 164.02C253.11 163.949 253.12 163.877 253.148 163.81C253.175 163.743 253.219 163.682 253.276 163.633C253.026 163.514 252.747 163.457 252.465 163.468C252.556 163.314 252.41 163.125 252.234 163.074C252.05 163.039 251.862 163.029 251.676 163.042C251.402 163.023 251.133 162.966 250.878 162.873C249.045 162.293 247.059 161.785 245.192 162.27C244.369 162.505 243.6 162.877 242.922 163.365C242.261 163.706 241.767 164.267 241.542 164.932C241.317 165.597 241.378 166.315 241.712 166.94C241.995 167.586 242.198 168.259 242.317 168.947C242.343 169.589 242.264 170.23 242.081 170.851C242.489 170.965 242.907 171.05 243.33 171.107C243.091 171.953 242.669 172.747 242.089 173.44C241.824 173.747 241.537 174.038 241.231 174.311H241.18C240.329 174.457 239.469 174.555 238.605 174.603C237.695 174.603 236.803 174.288 235.897 174.347C235.361 174.402 234.833 174.512 234.322 174.674C231.967 175.308 229.52 175.609 227.066 175.565L226.77 175.592L227.045 173.984C227.192 172.656 227.703 171.385 228.529 170.287C228.687 170.013 228.889 169.763 229.13 169.546C229.405 169.345 229.722 169.199 230.061 169.116C230.939 168.839 231.898 168.872 232.752 169.207C233.426 169.51 234.039 170.082 234.794 169.995C234.779 169.774 234.708 169.56 234.588 169.369C234.467 169.177 234.3 169.014 234.099 168.892C233.694 168.654 233.251 168.476 232.786 168.363C232.537 168.288 232.503 167.902 232.524 167.666C232.563 167.224 233.245 167.13 233.516 166.767C233.786 166.404 233.516 165.821 233.16 165.462C232.553 164.823 231.708 164.414 230.791 164.315C230.335 164.276 229.876 164.352 229.464 164.536C229.052 164.721 228.704 165.006 228.456 165.36C228.274 165.706 228.118 166.063 227.989 166.428C227.644 167.104 227.185 167.725 226.628 168.269C225.341 169.668 224.264 171.182 223.097 172.664C222.706 173.134 222.351 173.628 222.033 174.142C221.523 175.021 221.23 175.993 221.174 176.988C221.153 177.224 221.174 177.462 221.234 177.693C221.206 177.749 221.19 177.809 221.187 177.871C221.201 177.978 221.237 178.083 221.294 178.177C221.352 178.272 221.429 178.355 221.522 178.422C222.178 179.029 222.869 179.656 223.753 179.916C224.303 180.036 224.861 180.124 225.423 180.18C226.779 180.405 228.027 181.126 229.405 181.122C230.353 181.122 231.289 180.776 232.224 180.898C233.511 181.059 234.438 182.021 235.228 182.955C235.898 183.684 236.402 184.53 236.708 185.442C237.013 186.542 236.824 187.78 237.464 188.749C237.625 188.947 237.75 189.169 237.833 189.404C237.846 189.776 237.756 190.145 237.571 190.476C237.03 192.001 238.215 193.629 238.09 195.206C238.03 195.975 237.661 196.7 237.622 197.468C237.558 198.458 237.996 199.565 237.395 200.389C237.76 200.216 238.129 200.062 238.506 199.924C236.704 204.776 235.073 209.778 235.198 214.879C235.292 218.186 236.056 221.828 233.988 224.544C233.694 224.867 233.46 225.234 233.297 225.627C233.134 226.16 233.297 226.723 233.404 227.267C233.786 229.632 232.396 231.962 232.301 234.362C232.29 235.102 232.342 235.841 232.456 236.573L232.962 240.57C232.452 240.672 231.977 240.889 231.58 241.201C231.048 241.595 230.581 242.242 230.829 242.833C231.031 243.31 231.623 243.538 232.168 243.657C232.727 243.714 233.261 243.9 233.722 244.197C233.869 244.346 234.025 244.488 234.189 244.622C234.507 244.78 234.87 244.842 235.228 244.8C235.884 244.776 236.515 244.725 237.185 244.642C237.324 244.637 237.458 244.597 237.575 244.528C237.654 244.448 237.713 244.354 237.751 244.253C237.789 244.151 237.803 244.043 237.794 243.936C237.842 243.336 237.815 242.733 237.712 242.139C237.687 242.025 237.652 241.914 237.618 241.8C237.843 241.293 238.003 240.764 238.094 240.223C238.227 239.435 238.249 238.611 238.305 237.803C238.433 235.746 238.734 233.704 239.077 231.662L239.506 229.037C239.639 228.174 239.776 227.311 239.935 226.447C240.731 221.772 241.968 217.169 243.634 212.691C243.999 211.733 244.621 210.61 245.724 210.582L246.381 211.765C247.239 213.247 247.762 214.89 248.415 216.447C249.273 218.493 248.981 220.882 250.131 222.805C250.32 223.125 250.56 223.428 250.702 223.763C250.905 224.279 251.024 224.82 251.054 225.367L251.813 232.462C252.156 235.651 252.525 238.927 254.083 241.792C254.181 241.977 254.296 242.154 254.426 242.32C254.378 242.797 254.371 243.277 254.405 243.755C254.381 243.84 254.379 243.928 254.398 244.014C254.418 244.099 254.459 244.179 254.518 244.247C254.577 244.316 254.653 244.371 254.739 244.408C254.825 244.445 254.919 244.463 255.014 244.461C255.662 244.539 256.302 244.591 256.967 244.614C257.325 244.657 257.688 244.595 258.005 244.437C258.173 244.305 258.331 244.163 258.477 244.011C258.936 243.715 259.469 243.529 260.026 243.471C260.571 243.357 261.164 243.128 261.365 242.648C261.618 242.056 261.146 241.414 260.614 241.016C260.183 240.67 259.653 240.444 259.087 240.365C258.853 240.378 258.62 240.36 258.391 240.314C258.445 240.054 258.462 239.789 258.443 239.526C258.388 239.216 258.374 238.901 258.4 238.588C258.488 238.271 258.605 237.963 258.752 237.665C259.245 236.27 258.194 234.851 257.825 233.424C257.332 231.524 258.065 229.534 257.932 227.583C257.726 224.52 255.401 221.646 256.018 218.631C256.512 216.219 256.091 213.74 255.624 211.323L253.907 202.332C253.786 201.603 253.578 200.887 253.285 200.2C253.604 200.149 253.917 200.073 254.22 199.971C254.65 199.01 254.577 197.949 254.448 196.917C254.319 195.884 254.019 194.875 253.869 193.85C253.739 193.026 253.664 192.195 253.645 191.363C253.599 190.542 253.662 189.718 253.834 188.911C254.032 188.203 254.3 187.512 254.637 186.85C255.467 184.936 256.472 183.09 257.641 181.331C259.404 181.205 261.112 181.067 262.871 180.937C263.293 180.919 263.712 180.868 264.124 180.783C264.65 180.617 265.184 180.476 265.725 180.362C265.927 180.352 266.126 180.316 266.317 180.255C266.703 180.094 266.939 179.64 267.364 179.625C267.524 179.644 267.685 179.644 267.845 179.625C268.034 179.569 268.128 179.38 268.274 179.23C268.54 178.958 268.973 178.903 269.321 178.726C269.619 178.548 269.84 178.28 269.945 177.968C270.05 177.656 270.033 177.321 269.896 177.019Z" fill="url(#paint2_linear)"/>
<path d="M247.573 172.707C250.18 172.707 252.294 170.766 252.294 168.371C252.294 165.977 250.18 164.035 247.573 164.035C244.966 164.035 242.853 165.977 242.853 168.371C242.853 170.766 244.966 172.707 247.573 172.707Z" fill="#A1616A"/>
<path d="M242.124 173.767C241.641 174.312 241.102 174.812 240.515 175.261C243.288 176.78 246.584 177.278 249.74 176.657C249.625 176.361 249.204 176.318 248.908 176.168C248.523 175.917 248.261 175.538 248.179 175.111C247.86 174.073 247.767 172.987 247.904 171.915C247.962 171.655 247.962 171.386 247.904 171.126C247.739 170.736 247.423 170.416 247.016 170.228C246.347 169.845 245.625 169.546 244.87 169.341C244.089 169.128 243.643 169.029 243.613 169.865C243.581 171.278 243.059 172.645 242.124 173.767Z" fill="#A1616A"/>
<path d="M264.026 176.495L263.545 173.696C263.467 173.133 263.34 172.577 263.163 172.033C262.875 171.327 262.507 170.65 262.065 170.015C261.907 169.742 261.705 169.493 261.464 169.278C261.191 169.077 260.875 168.931 260.537 168.848C259.66 168.573 258.702 168.606 257.851 168.943C257.177 169.242 256.563 169.81 255.812 169.711C255.827 169.491 255.897 169.276 256.018 169.085C256.138 168.894 256.306 168.732 256.508 168.612C256.904 168.375 257.339 168.197 257.795 168.083C258.04 168.013 258.078 167.626 258.057 167.39C258.018 166.952 257.336 166.858 257.066 166.499C256.795 166.14 257.066 165.557 257.417 165.198C258.023 164.561 258.867 164.155 259.782 164.059C260.237 164.017 260.696 164.092 261.108 164.275C261.52 164.458 261.869 164.742 262.116 165.096C262.299 165.44 262.455 165.796 262.584 166.16C262.929 166.832 263.386 167.451 263.94 167.993C265.227 169.384 266.304 170.89 267.467 172.364C267.856 172.834 268.212 173.326 268.531 173.838C269.043 174.711 269.336 175.678 269.39 176.668C269.428 176.973 269.379 177.281 269.248 177.563C269.115 177.768 268.927 177.939 268.701 178.057C268.476 178.176 268.221 178.239 267.961 178.241C267.433 178.229 266.912 178.133 266.42 177.957L264.549 177.378C264.322 177.332 264.113 177.226 263.949 177.074C263.881 176.986 263.851 176.878 263.865 176.771C263.879 176.664 263.937 176.565 264.026 176.495Z" fill="#A1616A"/>
<path d="M226.628 177.114L227.105 174.315C227.186 173.752 227.315 173.196 227.491 172.652C227.777 171.945 228.145 171.268 228.589 170.634C228.743 170.361 228.944 170.113 229.186 169.901C229.457 169.698 229.774 169.551 230.113 169.471C230.991 169.194 231.95 169.226 232.803 169.562C233.477 169.861 234.091 170.429 234.842 170.33C234.827 170.11 234.756 169.896 234.636 169.705C234.515 169.514 234.347 169.351 234.146 169.23C233.75 168.994 233.315 168.816 232.859 168.702C232.614 168.631 232.576 168.245 232.597 168.009C232.636 167.571 233.314 167.476 233.589 167.118C233.863 166.759 233.589 166.176 233.232 165.821C232.627 165.182 231.784 164.774 230.868 164.678C230.413 164.636 229.954 164.711 229.542 164.894C229.13 165.077 228.781 165.361 228.534 165.714C228.353 166.059 228.198 166.415 228.07 166.779C227.724 167.45 227.267 168.069 226.714 168.612C225.427 170.003 224.35 171.509 223.183 172.983C222.794 173.452 222.44 173.945 222.123 174.457C221.613 175.331 221.32 176.297 221.264 177.287C221.228 177.593 221.278 177.903 221.41 178.186C221.546 178.393 221.738 178.564 221.967 178.682C222.197 178.8 222.456 178.862 222.719 178.86C223.245 178.85 223.766 178.754 224.255 178.576L226.131 178.012C226.357 177.967 226.565 177.861 226.727 177.709C226.798 177.617 226.827 177.504 226.808 177.393C226.79 177.282 226.725 177.182 226.628 177.114Z" fill="#A1616A"/>
<path d="M260.614 241C261.146 241.394 261.614 242.037 261.365 242.624C261.159 243.101 260.571 243.325 260.026 243.444C259.47 243.502 258.937 243.686 258.477 243.98C258.332 244.125 258.175 244.26 258.01 244.386C257.693 244.545 257.329 244.608 256.971 244.563C256.319 244.539 255.684 244.488 255.019 244.409C254.88 244.404 254.745 244.365 254.628 244.295C254.55 244.216 254.49 244.124 254.453 244.022C254.416 243.921 254.402 243.814 254.414 243.708C254.362 243.111 254.388 242.51 254.491 241.918C254.599 241.324 254.932 240.784 255.431 240.393C255.928 240.038 257.439 238.986 258.005 239.66C258.155 239.841 258.095 240.089 258.306 240.239C258.516 240.389 258.846 240.306 259.087 240.334C259.655 240.417 260.185 240.648 260.614 241Z" fill="#3F3D56"/>
<path d="M231.619 241.205C231.087 241.599 230.619 242.242 230.868 242.829C231.07 243.306 231.658 243.534 232.203 243.649C232.759 243.706 233.292 243.89 233.752 244.185C233.898 244.336 234.056 244.479 234.224 244.61C234.54 244.768 234.901 244.83 235.258 244.788C235.91 244.764 236.545 244.713 237.21 244.63C237.349 244.625 237.484 244.586 237.601 244.516C237.68 244.438 237.741 244.345 237.778 244.244C237.816 244.142 237.83 244.035 237.82 243.929C237.868 243.332 237.84 242.733 237.738 242.143C237.633 241.547 237.299 241.005 236.798 240.614C236.305 240.259 234.794 239.206 234.224 239.88C234.074 240.062 234.134 240.314 233.919 240.46C233.704 240.606 233.383 240.527 233.138 240.555C232.575 240.636 232.049 240.861 231.619 241.205Z" fill="#3F3D56"/>
<path d="M238.914 199.148C236.979 204.272 235.099 209.573 235.245 215.009C235.339 218.3 236.103 221.926 234.039 224.626C233.745 224.948 233.511 225.313 233.348 225.706C233.185 226.235 233.348 226.794 233.451 227.338C233.838 229.703 232.452 232.013 232.353 234.402C232.342 235.137 232.394 235.873 232.507 236.601L233.044 240.811C233.224 242.253 235.249 242.845 236.811 243.046C237.546 242.241 238.007 241.255 238.137 240.212C238.27 239.423 238.292 238.607 238.343 237.807C238.476 235.758 238.798 233.724 239.116 231.694L239.545 229.08C239.682 228.221 239.815 227.362 239.974 226.503C240.775 221.863 242.014 217.295 243.677 212.853C244.042 211.895 244.664 210.779 245.763 210.752L246.419 211.911C247.277 213.381 247.797 215.021 248.449 216.57C249.307 218.607 249.011 220.98 250.165 222.9C250.354 223.215 250.594 223.519 250.732 223.85C250.933 224.357 251.051 224.888 251.084 225.426L251.843 232.474C252.186 235.647 252.551 238.907 254.109 241.757C254.263 242.097 254.51 242.396 254.826 242.624C255.461 243.018 256.349 242.817 256.971 242.407C257.463 242.075 257.857 241.634 258.116 241.126C258.376 240.618 258.492 240.058 258.456 239.498C258.405 239.189 258.391 238.876 258.413 238.564C258.504 238.25 258.622 237.943 258.765 237.646C259.263 236.258 258.211 234.847 257.838 233.428C257.344 231.536 258.078 229.557 257.949 227.614C257.744 224.563 255.422 221.702 256.036 218.702C256.529 216.302 256.109 213.834 255.645 211.43L253.907 202.482C253.633 201.071 253.221 199.479 251.852 198.789C251.067 198.466 250.207 198.331 249.35 198.395C245.801 198.395 242.411 198.848 238.914 199.148Z" fill="#3F3D56"/>
<path d="M269.896 177.338C268.646 177.454 267.388 177.215 266.291 176.653C265.875 176.398 265.43 176.184 264.966 176.014C264.107 175.758 263.163 175.982 262.262 176.105C260.783 176.301 259.275 176.207 257.838 175.829C256.336 175.435 254.834 174.721 253.289 175.04C252.564 175.186 251.908 175.553 251.174 175.659C250.6 175.713 250.021 175.685 249.457 175.576L244.565 174.875C243.461 174.672 242.334 174.598 241.21 174.654C240.359 174.8 239.499 174.898 238.635 174.95C237.73 174.95 236.837 174.634 235.932 174.69C235.397 174.746 234.87 174.855 234.361 175.017C232.011 175.647 229.57 175.947 227.122 175.904C225.17 176.021 223.289 176.62 221.676 177.638C221.565 177.694 221.469 177.773 221.395 177.868C221.321 177.962 221.27 178.071 221.247 178.186C221.262 178.293 221.299 178.396 221.357 178.489C221.415 178.583 221.493 178.664 221.586 178.73C222.239 179.337 222.929 179.96 223.813 180.22C224.362 180.338 224.918 180.425 225.478 180.48C226.83 180.709 228.079 181.422 229.452 181.422C230.4 181.422 231.332 181.075 232.267 181.197C233.554 181.359 234.477 182.313 235.271 183.243C235.938 183.97 236.442 184.811 236.751 185.718C237.052 186.814 236.863 188.044 237.502 189.01C237.663 189.207 237.787 189.426 237.871 189.66C237.885 190.031 237.795 190.399 237.609 190.728C237.069 192.246 238.253 193.85 238.129 195.458C238.069 196.219 237.7 196.944 237.661 197.705C237.601 198.694 238.034 199.794 237.434 200.614C239.752 199.541 242.328 199.024 244.922 199.112C245.353 199.122 245.783 199.159 246.209 199.222C247.036 199.377 247.851 199.585 248.646 199.845C250.44 200.369 252.414 200.744 254.182 200.145C254.611 199.187 254.538 198.131 254.405 197.106C254.272 196.081 253.997 195.072 253.83 194.051C253.7 193.231 253.625 192.404 253.607 191.576C253.56 190.758 253.623 189.939 253.796 189.136C253.992 188.431 254.261 187.745 254.598 187.086C255.426 185.171 256.431 183.325 257.602 181.568C259.361 181.438 261.065 181.3 262.824 181.174C263.244 181.152 263.662 181.101 264.073 181.02C264.597 180.855 265.13 180.716 265.669 180.602C265.871 180.592 266.071 180.554 266.261 180.492C266.648 180.33 266.888 179.881 267.308 179.869C267.468 179.887 267.629 179.887 267.789 179.869C267.978 179.818 268.068 179.625 268.218 179.475C268.484 179.203 268.918 179.148 269.265 178.974C269.557 178.808 269.779 178.555 269.893 178.258C270.008 177.961 270.009 177.636 269.896 177.338Z" fill="#10DDC2"/>
<path d="M248.393 169.936C248.53 170.035 248.697 170.093 248.871 170.103C249.045 170.113 249.218 170.074 249.367 169.991C249.554 169.829 249.681 169.617 249.728 169.384C249.882 168.892 250.006 168.392 250.101 167.886C250.126 167.666 250.199 167.453 250.315 167.26C250.629 166.818 251.307 166.795 251.834 166.594C252.487 166.269 253.027 165.783 253.392 165.19L253.096 165.135L253.375 164.741C253.309 164.704 253.253 164.654 253.212 164.593C253.17 164.533 253.145 164.465 253.137 164.394C253.13 164.323 253.141 164.252 253.168 164.186C253.196 164.119 253.241 164.06 253.298 164.012C253.047 163.889 252.766 163.831 252.482 163.842C252.573 163.692 252.427 163.503 252.251 163.448C252.069 163.413 251.882 163.404 251.697 163.421C251.423 163.4 251.154 163.341 250.899 163.247C249.071 162.672 247.088 162.163 245.226 162.648C244.403 162.882 243.634 163.252 242.956 163.74C242.3 164.078 241.81 164.634 241.586 165.294C241.362 165.953 241.421 166.666 241.75 167.287C242.031 167.928 242.233 168.596 242.351 169.278C242.379 169.918 242.301 170.559 242.119 171.178C242.628 171.328 243.153 171.421 243.686 171.458C244.221 171.495 244.754 171.355 245.188 171.063C245.617 170.724 245.857 170.2 246.209 169.774C246.344 169.587 246.528 169.433 246.745 169.329C246.962 169.224 247.204 169.171 247.449 169.175C247.925 169.242 248.011 169.688 248.393 169.936Z" fill="#3F3D56"/>
<path d="M235.983 244.386H230.958C230.809 244.413 230.676 244.487 230.579 244.595C230.483 244.703 230.431 244.838 230.431 244.977C230.431 245.116 230.483 245.251 230.579 245.359C230.676 245.467 230.809 245.541 230.958 245.568H231.962V253.4H214.768C214.728 253.339 214.672 253.287 214.605 253.25C214.539 253.213 214.463 253.192 214.386 253.188H209.365C209.216 253.215 209.083 253.289 208.986 253.397C208.89 253.504 208.838 253.639 208.838 253.779C208.838 253.918 208.89 254.053 208.986 254.161C209.083 254.269 209.216 254.343 209.365 254.37H210.369V262.415H193.767C193.752 262.305 193.697 262.204 193.611 262.126C193.526 262.049 193.414 262.001 193.295 261.989H188.278C188.126 262.012 187.987 262.084 187.887 262.193C187.786 262.301 187.732 262.438 187.732 262.58C187.732 262.723 187.786 262.86 187.887 262.968C187.987 263.077 188.126 263.149 188.278 263.172H188.78V271.449H171.903C171.84 271.416 171.77 271.399 171.697 271.398H166.677C166.528 271.425 166.394 271.499 166.298 271.607C166.202 271.715 166.15 271.85 166.15 271.989C166.15 272.128 166.202 272.263 166.298 272.371C166.394 272.479 166.528 272.553 166.677 272.58H167.179V280.464H150.516C150.48 280.386 150.421 280.319 150.344 280.272C150.268 280.224 150.179 280.198 150.087 280.196H145.066C144.918 280.223 144.784 280.297 144.688 280.405C144.592 280.513 144.539 280.648 144.539 280.787C144.539 280.926 144.592 281.061 144.688 281.169C144.784 281.277 144.918 281.351 145.066 281.378H145.569V290.109H259.082V244.386H235.983Z" fill="#3F3D56"/>
<path opacity="0.1" d="M74.2454 93.145C73.7496 92.544 73.1873 91.9918 72.5676 91.4974C72.3993 91.3629 72.2672 91.1944 72.1818 91.0052C72.0964 90.8159 72.06 90.611 72.0754 90.4067C72.0908 90.2023 72.1576 90.0039 72.2705 89.8273C72.3835 89.6506 72.5395 89.5005 72.7264 89.3886C72.9323 89.2664 73.134 89.1363 73.3357 88.9944C75.6787 87.3586 76.863 85.1631 75.9748 84.0871C75.0865 83.011 72.4646 83.4682 70.1216 85.104C69.8508 85.2889 69.5915 85.4876 69.3449 85.6992C69.1801 85.8353 68.9833 85.9346 68.7698 85.9893C68.5563 86.044 68.3319 86.0526 68.1142 86.0144C67.8965 85.9762 67.6913 85.8924 67.5148 85.7693C67.3382 85.6462 67.195 85.4873 67.0964 85.305C66.7672 84.7122 66.3809 84.1476 65.942 83.618C63.8565 81.0954 61.0587 79.8222 59.6898 80.7761C58.321 81.73 58.896 84.5522 60.9772 87.0827C61.3841 87.5771 61.8363 88.0387 62.3289 88.4623C62.4917 88.6078 62.615 88.7864 62.6888 88.9837C62.7627 89.181 62.7851 89.3915 62.7542 89.5982C62.7233 89.8049 62.64 90.0021 62.511 90.1738C62.3819 90.3455 62.2108 90.487 62.0114 90.5868C59.4367 91.9388 57.982 93.9766 58.7115 95.1473C59.441 96.318 62.11 96.1721 64.6633 94.8241C65.0589 94.6131 65.4401 94.3802 65.8047 94.1264C65.9764 94.0064 66.1752 93.9231 66.3864 93.8826C66.5976 93.842 66.816 93.8453 67.0257 93.8921C67.2354 93.9389 67.431 94.0281 67.5984 94.1532C67.7658 94.2783 67.9007 94.4361 67.9932 94.6152C68.3414 95.314 68.7731 95.975 69.2806 96.586C71.3618 99.1087 74.1639 100.382 75.5328 99.4279C76.9016 98.4741 76.3266 95.6715 74.2454 93.145Z" fill="#6C63FF"/>
<path opacity="0.1" d="M378.196 161.26C378.68 160.652 379.093 159.998 379.428 159.309C379.518 159.122 379.654 158.957 379.826 158.827C379.997 158.697 380.2 158.605 380.417 158.559C380.634 158.513 380.859 158.514 381.076 158.562C381.292 158.611 381.493 158.704 381.663 158.836C381.852 158.978 382.049 159.116 382.251 159.254C384.637 160.831 387.272 161.225 388.13 160.141C388.988 159.057 387.752 156.877 385.366 155.293C385.08 155.106 384.794 154.937 384.508 154.784C384.319 154.679 384.158 154.534 384.04 154.362C383.921 154.19 383.847 153.994 383.824 153.792C383.802 153.589 383.83 153.384 383.908 153.193C383.985 153.002 384.11 152.831 384.272 152.691C384.794 152.231 385.268 151.727 385.688 151.186C387.709 148.62 388.216 145.79 386.825 144.879C385.435 143.968 382.663 145.273 380.642 147.855C380.247 148.353 379.899 148.88 379.599 149.432C379.495 149.617 379.346 149.778 379.162 149.9C378.978 150.023 378.765 150.104 378.541 150.137C378.317 150.171 378.088 150.155 377.871 150.092C377.655 150.029 377.457 149.92 377.295 149.775C375.149 147.926 372.575 147.224 371.583 148.198C370.592 149.171 371.51 151.481 373.66 153.322C373.994 153.606 374.348 153.869 374.72 154.11C374.895 154.227 375.039 154.377 375.143 154.551C375.246 154.725 375.306 154.918 375.318 155.116C375.33 155.314 375.293 155.512 375.212 155.695C375.13 155.878 375.004 156.043 374.845 156.176C374.215 156.694 373.65 157.274 373.158 157.906C371.137 160.472 370.631 163.302 372.025 164.213C373.42 165.123 376.175 163.83 378.196 161.26Z" fill="#6C63FF"/>
<path d="M380.393 294.319C388.403 294.319 394.897 293.171 394.897 291.756C394.897 290.341 388.403 289.194 380.393 289.194C372.383 289.194 365.889 290.341 365.889 291.756C365.889 293.171 372.383 294.319 380.393 294.319Z" fill="#10DDC2"/>
<path d="M380.153 292.698C381.087 292.698 381.843 291.79 381.843 290.668C381.843 289.547 381.087 288.639 380.153 288.639C379.219 288.639 378.462 289.547 378.462 290.668C378.462 291.79 379.219 292.698 380.153 292.698Z" fill="#3F3D56"/>
<path d="M380.153 290.215C381.087 290.215 381.843 289.306 381.843 288.185C381.843 287.064 381.087 286.155 380.153 286.155C379.219 286.155 378.462 287.064 378.462 288.185C378.462 289.306 379.219 290.215 380.153 290.215Z" fill="#3F3D56"/>
<path d="M380.153 287.736C381.087 287.736 381.843 286.827 381.843 285.706C381.843 284.585 381.087 283.676 380.153 283.676C379.219 283.676 378.462 284.585 378.462 285.706C378.462 286.827 379.219 287.736 380.153 287.736Z" fill="#3F3D56"/>
<path d="M380.153 285.253C381.087 285.253 381.843 284.344 381.843 283.223C381.843 282.102 381.087 281.193 380.153 281.193C379.219 281.193 378.462 282.102 378.462 283.223C378.462 284.344 379.219 285.253 380.153 285.253Z" fill="#3F3D56"/>
<path d="M380.153 282.769C381.087 282.769 381.843 281.861 381.843 280.74C381.843 279.618 381.087 278.71 380.153 278.71C379.219 278.71 378.462 279.618 378.462 280.74C378.462 281.861 379.219 282.769 380.153 282.769Z" fill="#3F3D56"/>
<path d="M380.153 280.29C381.087 280.29 381.843 279.381 381.843 278.26C381.843 277.139 381.087 276.23 380.153 276.23C379.219 276.23 378.462 277.139 378.462 278.26C378.462 279.381 379.219 280.29 380.153 280.29Z" fill="#3F3D56"/>
<path d="M380.153 277.807C381.087 277.807 381.843 276.898 381.843 275.777C381.843 274.656 381.087 273.747 380.153 273.747C379.219 273.747 378.462 274.656 378.462 275.777C378.462 276.898 379.219 277.807 380.153 277.807Z" fill="#3F3D56"/>
<path d="M386.474 258.792C386.702 258.522 386.912 258.237 387.1 257.941L382.667 257.271L387.465 257.306C387.926 256.387 388.178 255.389 388.205 254.377C388.231 253.364 388.032 252.357 387.619 251.418L381.183 254.484L387.122 250.476C386.563 249.597 385.814 248.833 384.92 248.231C384.027 247.629 383.009 247.202 381.928 246.977C380.848 246.751 379.729 246.732 378.64 246.92C377.551 247.108 376.516 247.5 375.599 248.071C374.682 248.642 373.902 249.38 373.308 250.239C372.714 251.098 372.319 252.06 372.146 253.065C371.974 254.07 372.028 255.097 372.305 256.083C372.583 257.068 373.077 257.99 373.759 258.792C373.4 259.213 373.091 259.668 372.836 260.148L378.599 262.908L372.454 261.016C372.022 262.185 371.913 263.435 372.138 264.653C372.363 265.871 372.914 267.019 373.742 267.992C372.804 269.088 372.221 270.405 372.059 271.791C371.897 273.177 372.163 274.577 372.826 275.831C373.489 277.085 374.523 278.142 375.81 278.882C377.096 279.622 378.583 280.014 380.101 280.014C381.619 280.014 383.106 279.622 384.393 278.882C385.679 278.142 386.713 277.085 387.377 275.831C388.04 274.577 388.306 273.177 388.144 271.791C387.982 270.405 387.399 269.088 386.461 267.992C387.581 266.682 388.19 265.064 388.19 263.398C388.19 261.732 387.581 260.115 386.461 258.804L386.474 258.792Z" fill="#10DDC2"/>
<path opacity="0.1" d="M372.025 263.384C372.02 265.05 372.624 266.669 373.742 267.98C372.804 269.076 372.221 270.393 372.059 271.779C371.897 273.165 372.163 274.565 372.826 275.819C373.489 277.073 374.523 278.13 375.81 278.87C377.096 279.61 378.583 280.002 380.101 280.002C381.619 280.002 383.106 279.61 384.393 278.87C385.679 278.13 386.713 277.073 387.377 275.819C388.04 274.565 388.306 273.165 388.144 271.779C387.982 270.393 387.399 269.076 386.461 267.98C387.555 266.715 372.025 262.553 372.025 263.384Z" fill="black"/>
<path d="M116.058 293.526C119.684 293.526 122.624 293.007 122.624 292.367C122.624 291.727 119.684 291.209 116.058 291.209C112.432 291.209 109.493 291.727 109.493 292.367C109.493 293.007 112.432 293.526 116.058 293.526Z" fill="#10DDC2"/>
<path d="M115.951 292.793C116.373 292.793 116.715 292.382 116.715 291.875C116.715 291.367 116.373 290.956 115.951 290.956C115.529 290.956 115.187 291.367 115.187 291.875C115.187 292.382 115.529 292.793 115.951 292.793Z" fill="#3F3D56"/>
<path d="M115.951 291.67C116.373 291.67 116.715 291.259 116.715 290.751C116.715 290.244 116.373 289.833 115.951 289.833C115.529 289.833 115.187 290.244 115.187 290.751C115.187 291.259 115.529 291.67 115.951 291.67Z" fill="#3F3D56"/>
<path d="M115.951 290.546C116.373 290.546 116.715 290.135 116.715 289.628C116.715 289.121 116.373 288.71 115.951 288.71C115.529 288.71 115.187 289.121 115.187 289.628C115.187 290.135 115.529 290.546 115.951 290.546Z" fill="#3F3D56"/>
<path d="M115.951 289.423C116.373 289.423 116.715 289.012 116.715 288.505C116.715 287.997 116.373 287.586 115.951 287.586C115.529 287.586 115.187 287.997 115.187 288.505C115.187 289.012 115.529 289.423 115.951 289.423Z" fill="#3F3D56"/>
<path d="M115.951 288.3C116.373 288.3 116.715 287.888 116.715 287.381C116.715 286.874 116.373 286.463 115.951 286.463C115.529 286.463 115.187 286.874 115.187 287.381C115.187 287.888 115.529 288.3 115.951 288.3Z" fill="#3F3D56"/>
<path d="M115.951 287.176C116.373 287.176 116.715 286.765 116.715 286.258C116.715 285.751 116.373 285.339 115.951 285.339C115.529 285.339 115.187 285.751 115.187 286.258C115.187 286.765 115.529 287.176 115.951 287.176Z" fill="#3F3D56"/>
<path d="M115.951 286.053C116.373 286.053 116.715 285.642 116.715 285.134C116.715 284.627 116.373 284.216 115.951 284.216C115.529 284.216 115.187 284.627 115.187 285.134C115.187 285.642 115.529 286.053 115.951 286.053Z" fill="#3F3D56"/>
<path d="M118.809 277.444C118.915 277.32 119.011 277.188 119.097 277.05L117.088 276.747H119.26C119.48 276.305 119.595 275.825 119.594 275.339C119.595 274.908 119.505 274.481 119.328 274.082L116.415 275.47L119.101 273.656C118.848 273.259 118.509 272.913 118.105 272.64C117.7 272.368 117.239 272.175 116.751 272.073C116.262 271.971 115.755 271.962 115.262 272.047C114.77 272.133 114.301 272.31 113.886 272.568C113.471 272.827 113.118 273.161 112.85 273.55C112.581 273.938 112.402 274.374 112.324 274.829C112.246 275.284 112.271 275.749 112.396 276.194C112.522 276.64 112.746 277.058 113.055 277.421C112.888 277.61 112.744 277.814 112.625 278.032L115.23 279.277L112.45 278.418C112.256 278.947 112.208 279.513 112.312 280.063C112.415 280.614 112.666 281.132 113.042 281.571C112.616 282.067 112.35 282.664 112.276 283.292C112.201 283.921 112.321 284.556 112.621 285.124C112.922 285.693 113.39 286.173 113.973 286.509C114.556 286.844 115.231 287.022 115.919 287.022C116.607 287.022 117.281 286.844 117.865 286.509C118.448 286.173 118.916 285.693 119.216 285.124C119.517 284.556 119.636 283.921 119.562 283.292C119.488 282.664 119.222 282.067 118.796 281.571C119.305 280.979 119.581 280.246 119.581 279.492C119.581 278.738 119.305 278.005 118.796 277.413L118.809 277.444Z" fill="#10DDC2"/>
<path opacity="0.1" d="M112.269 279.522C112.269 280.277 112.546 281.01 113.055 281.603C112.628 282.099 112.363 282.696 112.289 283.324C112.214 283.952 112.334 284.587 112.634 285.156C112.934 285.725 113.403 286.205 113.986 286.54C114.569 286.876 115.244 287.054 115.932 287.054C116.62 287.054 117.294 286.876 117.877 286.54C118.461 286.205 118.929 285.725 119.229 285.156C119.529 284.587 119.649 283.952 119.575 283.324C119.501 282.696 119.235 282.099 118.809 281.603C119.302 281.043 112.269 279.143 112.269 279.522Z" fill="black"/>
<defs>
<linearGradient id="paint0_linear" x1="245.424" y1="288.808" x2="245.424" y2="44.8204" gradientUnits="userSpaceOnUse">
<stop stop-color="#808080" stop-opacity="0.25"/>
<stop offset="0.54" stop-color="#808080" stop-opacity="0.12"/>
<stop offset="1" stop-color="#808080" stop-opacity="0.1"/>
</linearGradient>
<linearGradient id="paint1_linear" x1="-2336.94" y1="963.335" x2="-2321.5" y2="963.335" gradientUnits="userSpaceOnUse">
<stop stop-color="#808080" stop-opacity="0.25"/>
<stop offset="0.54" stop-color="#808080" stop-opacity="0.12"/>
<stop offset="1" stop-color="#808080" stop-opacity="0.1"/>
</linearGradient>
<linearGradient id="paint2_linear" x1="28968.3" y1="57501.3" x2="28968.3" y2="40137.3" gradientUnits="userSpaceOnUse">
<stop stop-color="#808080" stop-opacity="0.25"/>
<stop offset="0.54" stop-color="#808080" stop-opacity="0.12"/>
<stop offset="1" stop-color="#808080" stop-opacity="0.1"/>
</linearGradient>
</defs>
</svg>
