<svg width="397" height="262" viewBox="0 0 397 262" fill="none" xmlns="http://www.w3.org/2000/svg">
<path d="M59.5983 212.849C56.7439 223.376 46.7419 229.954 46.7419 229.954C46.7419 229.954 41.3677 219.465 44.2221 208.939C47.0764 198.412 57.0785 191.834 57.0785 191.834C57.0785 191.834 62.4526 202.322 59.5983 212.849Z" fill="#FF7BB0"/>
<path d="M55.2688 210.622C47.2742 218.271 46.3798 229.948 46.3798 229.948C46.3798 229.948 58.4472 229.223 66.4419 221.574C74.4365 213.925 75.3309 202.248 75.3309 202.248C75.3309 202.248 63.2635 202.973 55.2688 210.622Z" fill="#FFF3A3"/>
<path d="M65.2943 226.872H34.0223C30.5922 226.872 27.8115 229.565 27.8115 232.887V238.863C27.8115 242.185 30.5922 244.878 34.0223 244.878H65.2943C68.7244 244.878 71.5051 242.185 71.5051 238.863V232.887C71.5051 229.565 68.7244 226.872 65.2943 226.872Z" fill="#FF7BB0"/>
<g opacity="0.7">
<path opacity="0.7" d="M365.963 215.37V208.881H332.465V238.889C332.465 239.72 332.634 240.543 332.962 241.31C333.29 242.078 333.771 242.775 334.378 243.363C334.984 243.95 335.705 244.416 336.497 244.734C337.29 245.052 338.139 245.215 338.997 245.215H359.431C361.163 245.215 362.825 244.549 364.05 243.363C365.275 242.176 365.963 240.567 365.963 238.889V232.239C368.27 232.235 370.481 231.344 372.111 229.763C373.74 228.181 374.656 226.038 374.656 223.804C374.656 221.57 373.74 219.427 372.111 217.846C370.481 216.265 368.27 215.374 365.963 215.37ZM365.963 228.995V218.614C367.385 218.614 368.748 219.161 369.753 220.134C370.758 221.107 371.323 222.428 371.323 223.804C371.323 225.181 370.758 226.501 369.753 227.475C368.748 228.448 367.385 228.995 365.963 228.995Z" fill="url(#paint0_linear)"/>
</g>
<path d="M364.885 216.385C363.312 216.385 361.775 216.837 360.467 217.683C359.159 218.529 358.14 219.732 357.538 221.139C356.936 222.547 356.779 224.095 357.086 225.589C357.393 227.083 358.15 228.455 359.262 229.532C360.374 230.609 361.791 231.343 363.334 231.64C364.876 231.937 366.475 231.784 367.928 231.201C369.382 230.619 370.623 229.631 371.497 228.365C372.371 227.099 372.837 225.61 372.837 224.086C372.837 222.044 372 220.085 370.508 218.641C369.017 217.197 366.994 216.385 364.885 216.385ZM364.885 228.826C363.917 228.826 362.971 228.548 362.166 228.027C361.362 227.506 360.734 226.766 360.364 225.9C359.994 225.034 359.897 224.081 360.086 223.162C360.274 222.243 360.74 221.398 361.425 220.735C362.109 220.073 362.981 219.621 363.931 219.438C364.88 219.255 365.864 219.349 366.758 219.708C367.652 220.067 368.416 220.674 368.954 221.453C369.492 222.233 369.779 223.149 369.779 224.086C369.779 225.343 369.263 226.549 368.346 227.438C367.428 228.326 366.183 228.826 364.885 228.826Z" fill="#6C63FF"/>
<path opacity="0.1" d="M364.885 216.385C363.312 216.385 361.775 216.837 360.467 217.683C359.159 218.529 358.14 219.732 357.538 221.139C356.936 222.547 356.779 224.095 357.086 225.589C357.393 227.083 358.15 228.455 359.262 229.532C360.374 230.609 361.791 231.343 363.334 231.64C364.876 231.937 366.475 231.784 367.928 231.201C369.382 230.619 370.623 229.631 371.497 228.365C372.371 227.099 372.837 225.61 372.837 224.086C372.837 222.044 372 220.085 370.508 218.641C369.017 217.197 366.994 216.385 364.885 216.385ZM364.885 228.826C363.917 228.826 362.971 228.548 362.166 228.027C361.362 227.506 360.734 226.766 360.364 225.9C359.994 225.034 359.897 224.081 360.086 223.162C360.274 222.243 360.74 221.398 361.425 220.735C362.109 220.073 362.981 219.621 363.931 219.438C364.88 219.255 365.864 219.349 366.758 219.708C367.652 220.067 368.416 220.674 368.954 221.453C369.492 222.233 369.779 223.149 369.779 224.086C369.779 225.343 369.263 226.549 368.346 227.438C367.428 228.326 366.183 228.826 364.885 228.826Z" fill="#FFF3A3"/>
<path d="M334.3 210.461H364.885V239.777C364.885 240.8 364.465 241.782 363.718 242.505C362.971 243.229 361.957 243.636 360.901 243.636H338.284C337.227 243.636 336.214 243.229 335.467 242.505C334.719 241.782 334.3 240.8 334.3 239.777V210.461Z" fill="#FFF3A3"/>
<path d="M397 243.636H0V256.668H397V243.636Z" fill="#E0E0E0"/>
<g opacity="0.7">
<path opacity="0.7" d="M261.129 156.434C256.874 141.477 232.751 130.555 214.601 128.133C214.604 128.023 214.61 127.914 214.61 127.803V114.999C214.629 114.993 214.649 114.987 214.668 114.98V114.495C221.11 112.175 226.922 108.467 231.667 103.651C236.411 98.8361 239.963 93.0392 242.053 86.699C243.175 84.7348 244.152 82.696 244.975 80.598C246.913 79.9148 248.376 76.8205 248.376 73.1026C248.384 71.8308 248.199 70.5648 247.829 69.3446C248.067 67.451 248.189 65.5454 248.193 63.6379C248.2 56.9696 246.76 50.3743 243.965 44.2801C241.17 38.1858 237.083 32.7287 231.97 28.2631C232.122 27.497 232.173 26.7155 232.123 25.937C231.713 19.7919 224.935 15.617 218.583 15.3377C220.261 13.4943 221.364 11.2275 221.764 8.80086C222.164 6.37422 221.845 3.88744 220.843 1.62959C216.793 7.34423 208.478 7.9517 201.32 7.99664C204.409 6.83842 205.798 2.69444 204.002 0C196.522 9.70977 181.94 11.5078 173.043 20.0235C171.105 21.8861 169.48 24.0318 168.229 26.3822C162.447 30.843 157.779 36.5097 154.572 42.9602C151.365 49.4107 149.703 56.4788 149.708 63.6379C149.712 65.5281 149.831 67.4165 150.065 69.2931C149.683 70.529 149.493 71.8127 149.501 73.1026C149.501 76.8376 150.978 79.9414 152.929 80.6055C153.756 82.7108 154.737 84.7564 155.864 86.7267C157.947 93.0301 161.476 98.7957 166.185 103.592C170.894 108.389 176.662 112.092 183.057 114.425V127.803C183.057 127.906 183.063 128.007 183.065 128.11C164.846 130.49 140.531 141.498 136.314 156.575C132.672 169.595 128.785 183.894 126.851 192.29C143.43 203.571 178.218 210.196 200.02 210.196C220.734 210.196 254.591 204.217 270.682 193.944C268.939 184.719 264.929 169.793 261.129 156.434Z" fill="url(#paint1_linear)"/>
</g>
<path d="M199.975 206.482C219.958 206.482 252.618 200.714 268.141 190.805C266.459 181.906 262.591 167.506 258.925 154.62C254.256 138.208 224.79 126.831 207.212 126.831H190.273C172.64 126.831 143.131 138.274 138.521 154.756C135.008 167.316 131.258 181.11 129.392 189.209C145.385 200.092 178.944 206.482 199.975 206.482Z" fill="#FFF3A3"/>
<path d="M198.944 111.106C225.179 111.106 246.446 90.5096 246.446 65.103C246.446 39.6964 225.179 19.1003 198.944 19.1003C172.709 19.1003 151.442 39.6964 151.442 65.103C151.442 90.5096 172.709 111.106 198.944 111.106Z" fill="#72351C"/>
<path opacity="0.1" d="M183.613 103.419H214.05V127C214.05 130.909 212.446 134.658 209.592 137.422C206.738 140.186 202.867 141.739 198.831 141.739H198.831C194.795 141.739 190.924 140.186 188.07 137.422C185.216 134.658 183.613 130.909 183.613 127V103.419H183.613Z" fill="black"/>
<path d="M187.978 102.328H209.684C210.842 102.328 211.952 102.773 212.771 103.566C213.59 104.359 214.05 105.434 214.05 106.556V125.909C214.05 129.817 212.446 133.566 209.592 136.33C206.738 139.094 202.867 140.647 198.831 140.647H198.831C194.795 140.647 190.924 139.094 188.07 136.33C185.216 133.566 183.613 129.817 183.613 125.909V106.556C183.613 105.434 184.073 104.359 184.891 103.566C185.71 102.773 186.82 102.328 187.978 102.328Z" fill="#FDA57D"/>
<path opacity="0.1" d="M183.669 114.549C193.479 118.099 204.277 118.128 214.106 114.631V111.01H183.669V114.549Z" fill="black"/>
<path d="M198.944 116.523C223.038 116.523 242.571 97.6071 242.571 74.2734C242.571 50.9396 223.038 32.0238 198.944 32.0238C174.85 32.0238 155.317 50.9396 155.317 74.2734C155.317 97.6071 174.85 116.523 198.944 116.523Z" fill="#FDA57D"/>
<path opacity="0.1" d="M167.869 35.8429C167.869 35.8429 186.255 71.9857 238.12 50.991L226.045 32.6538L204.641 25.2126L167.869 35.8429Z" fill="black"/>
<path d="M167.869 35.3114C167.869 35.3114 186.255 71.4542 238.12 50.4595L226.045 32.1223L204.641 24.6812L167.869 35.3114Z" fill="#72351C"/>
<path d="M167.705 32.8696C168.945 29.1528 171.087 25.7784 173.952 23.0297C182.535 14.8149 196.601 13.0804 203.817 3.71375C205.55 6.313 204.209 10.3105 201.23 11.4278C208.134 11.3845 216.156 10.7985 220.063 5.28576C221.029 7.46382 221.337 9.86274 220.951 12.2036C220.565 14.5445 219.501 16.7312 217.883 18.5095C224.01 18.7789 230.548 22.8062 230.944 28.7342C231.208 32.6835 228.651 36.4227 225.3 38.6876C221.949 40.9525 217.895 41.9922 213.904 42.8443C202.255 45.3316 160.104 55.7569 167.705 32.8696Z" fill="#72351C"/>
<path d="M242.569 74.6432H241.413L218.91 94.0434C197.231 84.2104 181.315 94.0434 181.315 94.0434L157.715 75.4405L155.335 75.73C155.658 86.8187 160.471 97.3396 168.735 105.021C176.999 112.702 188.051 116.928 199.505 116.785C210.959 116.643 221.895 112.143 229.952 104.258C238.009 96.3735 242.541 85.7362 242.569 74.6432ZM198.878 101.485C190.391 101.485 183.51 99.8187 183.51 97.7639C183.51 95.7092 190.391 94.0434 198.878 94.0434C207.365 94.0434 214.245 95.7091 214.245 97.7639C214.245 99.8187 207.365 101.485 198.878 101.485Z" fill="#72351C"/>
<path d="M155.3 81.6022C157.541 81.6022 159.358 78.303 159.358 74.2331C159.358 70.1633 157.541 66.864 155.3 66.864C153.058 66.864 151.241 70.1633 151.241 74.2331C151.241 78.303 153.058 81.6022 155.3 81.6022Z" fill="#FDA57D"/>
<path d="M242.565 81.6022C244.806 81.6022 246.623 78.303 246.623 74.2331C246.623 70.1633 244.806 66.864 242.565 66.864C240.324 66.864 238.507 70.1633 238.507 74.2331C238.507 78.303 240.324 81.6022 242.565 81.6022Z" fill="#FDA57D"/>
<g opacity="0.7">
<path opacity="0.7" d="M276.99 149.484H120.01C116.737 149.484 114.084 152.053 114.084 155.223V237.897C114.084 241.066 116.737 243.636 120.01 243.636H276.99C280.263 243.636 282.916 241.066 282.916 237.897V155.223C282.916 152.053 280.263 149.484 276.99 149.484Z" fill="url(#paint2_linear)"/>
</g>
<path d="M268.891 151.221H128.109C122.052 151.221 117.143 155.976 117.143 161.842V233.015C117.143 238.881 122.052 243.636 128.109 243.636H268.891C274.947 243.636 279.857 238.881 279.857 233.015V161.842C279.857 155.976 274.947 151.221 268.891 151.221Z" fill="#535461"/>
<path d="M198.5 202.76C201.541 202.76 204.005 200.373 204.005 197.428C204.005 194.484 201.541 192.097 198.5 192.097C195.459 192.097 192.995 194.484 192.995 197.428C192.995 200.373 195.459 202.76 198.5 202.76Z" fill="white"/>
<path d="M380.178 256.668H16.822V262H380.178V256.668Z" fill="#E0E0E0"/>
<path opacity="0.1" d="M380.178 256.668H16.822V258.446H380.178V256.668Z" fill="black"/>
<path opacity="0.1" d="M359.38 210.461V237.86C359.38 239.392 358.751 240.861 357.633 241.944C356.514 243.027 354.997 243.636 353.416 243.636H356.474C358.056 243.636 359.573 243.027 360.692 241.944C361.81 240.861 362.438 239.392 362.438 237.86V210.461H359.38Z" fill="black"/>
<path d="M340.335 188.379C339.819 188.464 339.237 188.599 338.985 189.043C338.583 189.747 339.31 190.541 339.974 191.025C341.2 191.919 342.491 192.798 343.325 194.046C344.158 195.294 344.42 197.035 343.509 198.231C342.32 199.793 339.482 200.129 339.208 202.051C339.032 203.285 340.133 204.338 341.249 204.957C344.004 206.486 347.556 206.893 349.552 209.285C350.377 207.641 352.224 206.691 354.064 206.285C355.905 205.879 357.817 205.909 359.683 205.634C360.285 205.545 360.964 205.367 361.233 204.838C361.755 203.812 360.268 202.583 360.781 201.553C361.172 200.77 362.319 200.831 363.157 200.517C364.521 200.006 365.084 198.306 364.697 196.94C364.309 195.574 363.216 194.507 362.066 193.632C358.966 191.273 355.239 189.886 351.47 188.888C349.717 188.424 347.659 187.697 345.838 187.626C344.08 187.558 342.075 188.09 340.335 188.379Z" fill="#EEEEEE"/>
<defs>
<linearGradient id="paint0_linear" x1="353.569" y1="245.215" x2="353.569" y2="208.881" gradientUnits="userSpaceOnUse">
<stop stop-color="#808080" stop-opacity="0.25"/>
<stop offset="0.53514" stop-color="#808080" stop-opacity="0.12"/>
<stop offset="1" stop-color="#808080" stop-opacity="0.1"/>
</linearGradient>
<linearGradient id="paint1_linear" x1="86519.2" y1="136649" x2="86519.2" y2="25013.3" gradientUnits="userSpaceOnUse">
<stop stop-color="#808080" stop-opacity="0.25"/>
<stop offset="0.53514" stop-color="#808080" stop-opacity="0.12"/>
<stop offset="1" stop-color="#808080" stop-opacity="0.1"/>
</linearGradient>
<linearGradient id="paint2_linear" x1="82119.2" y1="58109" x2="82119.2" y2="35710.9" gradientUnits="userSpaceOnUse">
<stop stop-color="#808080" stop-opacity="0.25"/>
<stop offset="0.53514" stop-color="#808080" stop-opacity="0.12"/>
<stop offset="1" stop-color="#808080" stop-opacity="0.1"/>
</linearGradient>
</defs>
</svg>
