<svg width="436" height="254" viewBox="0 0 436 254" fill="none" xmlns="http://www.w3.org/2000/svg">
<g clip-path="url(#clip0)">
<path opacity="0.1" d="M344.843 217.96C394.255 217.96 434.311 211.559 434.311 203.664C434.311 195.768 394.255 189.367 344.843 189.367C295.431 189.367 255.375 195.768 255.375 203.664C255.375 211.559 295.431 217.96 344.843 217.96Z" fill="#15B7B9"/>
<g opacity="0.5">
<path opacity="0.5" d="M268.209 36.0401C267.003 36.322 265.526 37.0563 264.798 39.0644C263.371 43.0004 266.685 45.6766 265.593 49.7796C265.29 50.868 264.713 51.8923 263.9 52.7865C262.567 54.2725 261.119 54.9755 259.714 56.016C257.931 57.3454 256.654 59.0699 256.035 60.9821C255.358 63.0927 255.301 65.3056 255.87 67.4378C256.37 69.2196 257.221 70.5177 257.966 71.9619C258.892 73.8041 259.616 75.7106 260.129 77.6589C260.41 78.6076 260.569 79.5782 260.603 80.5543C260.582 81.8513 260.44 83.145 260.179 84.4242L258.152 96.0548C257.844 97.5755 257.659 99.1112 257.597 100.652C257.624 102.196 257.841 103.734 258.245 105.242C258.956 108.319 259.722 111.507 261.352 113.135C262.982 114.764 265.758 114.179 267.464 110.884C269.086 107.731 269.124 103.523 270.554 100.154C272.811 94.8472 277.293 94.1338 279.782 89.0702C282.17 84.198 281.437 78.254 282.648 72.7136C283.495 68.7428 285.361 65.1235 286.458 61.2014C288.032 55.5532 287.876 49.6892 286.619 45.346C285.662 41.7774 283.594 38.4746 280.616 35.7617C279.562 34.8047 278.432 33.9521 277.107 33.8651C275.697 33.7746 274.466 35.2327 273.073 35.6712C271.464 36.1898 269.848 35.6573 268.209 36.0401Z" fill="#15B7B9"/>
<path opacity="0.5" d="M275.841 34.1609C275.841 34.1609 273.454 84.3929 263.413 114.012" stroke="#535461" stroke-width="2" stroke-miterlimit="10"/>
<path opacity="0.5" d="M264.738 39.301C264.738 39.301 275.469 47.3331 273.433 62.6178" stroke="#535461" stroke-width="2" stroke-miterlimit="10"/>
<path opacity="0.5" d="M255.735 62.1584C255.735 62.1584 273.348 65.0713 272.04 73.7333" stroke="#535461" stroke-width="2" stroke-miterlimit="10"/>
<path opacity="0.5" d="M286.648 45.2415C286.648 45.2415 279.52 50.3712 273.17 64.9007" stroke="#535461" stroke-width="2" stroke-miterlimit="10"/>
<path opacity="0.5" d="M279.685 89.1537C279.685 89.1537 274.821 92.2858 270.918 81.3199" stroke="#535461" stroke-width="2" stroke-miterlimit="10"/>
<path opacity="0.5" d="M258.698 95.5606C258.698 95.5606 268.616 94.4957 269.53 89.3903" stroke="#535461" stroke-width="2" stroke-miterlimit="10"/>
</g>
<path d="M292.185 2.34883C289.73 2.64812 286.775 3.58427 285.56 6.46929C283.177 12.128 290.42 16.412 288.752 22.3247C288.254 23.9519 287.206 25.4299 285.73 26.5879C283.19 28.6446 280.286 29.5425 277.535 30.938C274.783 32.3335 271.926 34.5295 270.635 37.8982C269.395 41.1382 269.932 44.7158 271.223 47.3885C272.514 50.0613 274.466 52.0554 276.21 54.2548C278.329 56.962 280.101 59.8427 281.497 62.8507C282.201 64.2217 282.674 65.6654 282.902 67.1417C283.126 68.9514 282.843 70.8967 282.559 72.8004L280.041 89.7625C279.706 92.0176 279.367 94.3075 279.558 96.4791C279.774 98.9813 280.675 101.167 281.564 103.3C283.478 107.901 285.526 112.696 289.137 115.23C292.748 117.764 298.412 117.221 301.464 112.509C304.367 108.023 303.834 101.832 306.31 97.0116C310.213 89.4145 319.39 88.7985 323.805 81.5877C328.038 74.6692 325.672 65.8192 327.374 57.7802C328.593 52.0206 331.894 46.87 333.588 41.2009C336.03 33.033 334.857 24.3849 331.632 17.8841C328.406 11.3832 323.306 6.7477 317.832 3.18754C315.513 1.67369 313.053 0.306 310.298 0.0554313C307.369 -0.212538 305.028 1.81289 302.213 2.32447C298.936 2.88477 295.516 1.94165 292.185 2.34883Z" fill="#10DDC2"/>
<path d="M307.711 0.323669C307.711 0.323669 310.023 74.0639 293.506 116.706" stroke="#15B7B9" stroke-width="2" stroke-miterlimit="10"/>
<path d="M285.467 6.82452C285.467 6.82452 308.833 19.701 306.831 42.0294" stroke="#15B7B9" stroke-width="2" stroke-miterlimit="10"/>
<path d="M270.131 39.5968C270.131 39.5968 307.009 45.6035 305.553 58.2294" stroke="#15B7B9" stroke-width="2" stroke-miterlimit="10"/>
<path d="M331.674 17.6964C331.674 17.6964 317.659 24.5557 306.619 45.332" stroke="#15B7B9" stroke-width="2" stroke-miterlimit="10"/>
<path d="M323.585 81.6854C323.585 81.6854 313.976 85.8615 304.312 69.2927" stroke="#15B7B9" stroke-width="2" stroke-miterlimit="10"/>
<path d="M281.073 89.0667C281.073 89.0667 301.447 88.4646 302.606 81.0345" stroke="#535461" stroke-width="2" stroke-miterlimit="10"/>
<path d="M28.4667 201.356C28.4667 201.356 32.0139 205.184 26.8285 210.927C21.6431 216.669 17.3594 221.548 19.0991 225.139C19.0991 225.139 26.9216 214.445 33.288 214.295C39.6544 214.146 35.4722 207.787 28.4667 201.356Z" fill="#10DDC2"/>
<path opacity="0.1" d="M28.4667 201.356C28.7832 201.724 29.0341 202.127 29.2117 202.553C35.4257 208.553 38.7316 214.153 32.7631 214.295C27.201 214.428 20.5299 222.602 18.9298 224.67C18.9826 224.829 19.0462 224.986 19.1203 225.139C19.1203 225.139 26.9428 214.445 33.3092 214.295C39.6756 214.146 35.4722 207.787 28.4667 201.356Z" fill="black"/>
<path d="M35.0617 206.218C35.0617 207.561 34.8797 208.654 34.6384 208.654C34.3971 208.654 34.2151 207.565 34.2151 206.218C34.2151 204.871 34.4437 205.522 34.668 205.522C34.8924 205.522 35.0617 204.875 35.0617 206.218Z" fill="#FFD037"/>
<path d="M37.3263 207.819C35.8913 208.463 34.6426 208.863 34.5368 208.685C34.4309 208.508 35.5019 207.868 36.9368 207.227C38.3718 206.587 37.8046 207.053 37.9147 207.227C38.0247 207.401 38.757 207.175 37.3263 207.819Z" fill="#FFD037"/>
<path d="M9.74006 201.356C9.74006 201.356 6.19284 205.184 11.3782 210.927C16.5636 216.669 20.8389 221.544 19.1076 225.136C19.1076 225.136 11.2851 214.441 4.91871 214.292C-1.44767 214.142 2.72603 207.787 9.74006 201.356Z" fill="#10DDC2"/>
<path opacity="0.1" d="M9.74006 201.356C9.43095 201.725 9.18723 202.128 9.01622 202.553C2.80223 208.553 -0.50372 214.153 5.46476 214.295C11.0269 214.428 17.698 222.602 19.2981 224.67C19.2453 224.829 19.1817 224.986 19.1076 225.139C19.1076 225.139 11.2851 214.445 4.91871 214.295C-1.44767 214.146 2.72603 207.787 9.74006 201.356Z" fill="black"/>
<path d="M3.1366 206.218C3.1366 207.561 3.31861 208.654 3.55989 208.654C3.80117 208.654 3.98319 207.565 3.98319 206.218C3.98319 204.871 3.75461 205.522 3.53026 205.522C3.30592 205.522 3.1366 204.875 3.1366 206.218Z" fill="#FFD037"/>
<path d="M0.871998 207.819C2.30697 208.463 3.5557 208.863 3.66152 208.685C3.76735 208.508 2.69641 207.868 1.26143 207.227C-0.173546 206.587 0.393672 207.053 0.283615 207.227C0.173558 207.401 -0.558746 207.175 0.871998 207.819Z" fill="#FFD037"/>
<path d="M4.26685 224.638C4.26685 224.638 14.1847 224.388 17.1732 222.637C20.1616 220.887 32.4119 218.809 33.1696 221.593C33.9273 224.377 48.0738 235.552 36.8776 235.625C25.6814 235.698 10.8618 234.191 7.87757 232.698C4.89332 231.205 4.26685 224.638 4.26685 224.638Z" fill="#A8A8A8"/>
<path opacity="0.2" d="M37.0766 234.658C25.8804 234.731 11.0608 233.224 8.07652 231.731C5.80341 230.593 4.89756 226.511 4.59702 224.628H4.26685C4.26685 224.628 4.89332 231.205 7.87757 232.698C10.8618 234.191 25.6814 235.702 36.8776 235.625C40.1116 235.604 41.2249 234.658 41.1656 233.259C40.7169 234.115 39.4851 234.644 37.0766 234.658Z" fill="black"/>
<path d="M415.83 199.773C416.606 199.253 417.171 198.551 417.451 197.761C417.663 196.961 417.248 196.004 416.317 195.712C415.275 195.384 414.162 195.976 413.32 196.578C412.477 197.18 411.508 197.862 410.403 197.733C410.971 197.31 411.396 196.773 411.636 196.175C411.877 195.577 411.924 194.937 411.775 194.319C411.727 194.063 411.595 193.823 411.394 193.623C410.814 193.115 409.768 193.335 409.074 193.735C406.873 195.009 406.259 197.466 406.246 199.679C406.026 198.882 406.213 198.05 406.204 197.243C406.196 196.435 405.925 195.503 405.087 195.078C404.567 194.849 403.983 194.735 403.393 194.748C402.403 194.716 401.302 194.8 400.625 195.395C399.778 196.133 400.003 197.375 400.735 198.179C401.467 198.983 402.576 199.501 403.601 200.065C404.422 200.466 405.122 201.015 405.65 201.67C405.712 201.76 405.763 201.856 405.802 201.955H412.003C413.393 201.373 414.68 200.639 415.83 199.773Z" fill="#10DDC2"/>
<path opacity="0.1" d="M62.1103 167.157C75.5797 181.238 70.3477 201.809 61.7886 218.28C58.9229 223.796 55.6805 229.632 56.8911 235.545C58.3684 242.777 66.2036 248.073 74.4664 250.857C89.4934 255.966 107.484 254.748 121.287 247.687C133.22 241.583 141.766 231.658 153.902 225.832C174.221 216.088 200.067 219.766 222.121 226.479C237.724 231.23 254.782 237.41 270.288 232.444C281.196 228.964 288.739 220.448 292.849 211.435C294.835 207.081 296.274 202.386 300.046 198.906C302.297 196.856 305.235 195.398 308.249 194.173C335.763 182.964 370.474 188.953 397.175 176.536C415.212 168.142 426.759 152.304 431.886 135.791C437.012 119.278 436.402 101.961 435.103 84.9567C434.18 72.8702 432.525 59.9694 423.132 50.6392C413.197 40.7731 396.142 37.1015 380.73 38.9773C365.318 40.8531 351.341 47.5697 339.065 55.4418C323.704 65.2801 309.46 77.5336 290.598 81.5218C277.755 84.2363 264.243 82.7503 250.994 82.2387C228.847 81.3791 206.696 83.2827 184.672 85.3708C163.587 87.3754 142.342 89.5817 122.265 95.2195C108.051 99.2112 96.6556 106.453 83.2329 111.513C74.4833 114.813 64.9422 115.724 56.6625 119.925C46.4568 125.1 37.1062 134.103 39.7306 144.634C42.1942 154.66 54.9566 159.685 62.1103 167.157Z" fill="#15B7B9"/>
<path opacity="0.1" d="M233.808 167.15C333.789 167.15 414.839 160.749 414.839 152.854C414.839 144.958 333.789 138.557 233.808 138.557C133.827 138.557 52.7767 144.958 52.7767 152.854C52.7767 160.749 133.827 167.15 233.808 167.15Z" fill="#15B7B9"/>
<path opacity="0.1" d="M94.6746 249.629C144.086 249.629 184.143 243.228 184.143 235.333C184.143 227.437 144.086 221.036 94.6746 221.036C45.2627 221.036 5.20654 227.437 5.20654 235.333C5.20654 243.228 45.2627 249.629 94.6746 249.629Z" fill="#15B7B9"/>
<path d="M186.132 148.396L184.714 150.091C184.714 150.091 186.259 151.785 186.407 151.998C186.555 152.21 190.915 151.893 190.915 151.893L191.301 150.623L190.657 149.14L186.132 148.396Z" fill="#E6E6F0"/>
<path d="M138.456 147.442L135.62 147.863L137.423 150.727L139.358 151.573L141.161 152.631L141.677 151.469L140.386 149.241L138.456 147.442Z" fill="#FDC2CC"/>
<path d="M184.845 119.897C184.845 119.897 199.923 122.862 202.755 126.161C202.755 126.161 205.333 127.964 202.755 131.246C200.177 134.528 196.571 141.947 196.571 141.947C196.571 141.947 193.993 149.151 192.964 149.68C191.936 150.209 186.005 150.634 185.489 148.636C185.489 148.636 188.837 144.293 188.837 142.278C188.837 140.263 194.378 130.731 194.378 130.731C194.378 130.731 181.751 129.565 177.755 130.306C173.759 131.047 179.563 118.731 184.845 119.897Z" fill="#565171"/>
<path opacity="0.1" d="M184.845 119.897C184.845 119.897 199.923 122.862 202.755 126.161C202.755 126.161 205.333 127.964 202.755 131.246C200.177 134.528 196.571 141.947 196.571 141.947C196.571 141.947 193.993 149.151 192.964 149.68C191.936 150.209 186.005 150.634 185.489 148.636C185.489 148.636 188.837 144.293 188.837 142.278C188.837 140.263 194.378 130.731 194.378 130.731C194.378 130.731 181.751 129.565 177.755 130.306C173.759 131.047 179.563 118.731 184.845 119.897Z" fill="black"/>
<path d="M181.751 122.758C181.721 123.374 181.641 124.066 181.527 124.811C180.701 130.205 178.013 138.227 178.013 138.227C178.013 138.227 175.308 142.995 174.534 146.068C173.759 149.14 168.476 149.896 168.476 149.896C168.476 149.896 154.042 151.288 151.079 150.745C148.116 150.202 143.46 152.335 141.157 152.015C138.854 151.695 137.419 147.247 137.419 147.247C141.416 147.267 145.371 146.581 149.017 145.236C154.944 143.012 163.452 144.07 163.452 144.07C164.086 143.918 164.677 143.662 165.186 143.316C165.696 142.97 166.114 142.542 166.415 142.058C167.317 140.468 167.317 130.828 167.058 130.191C165.365 126.015 165.505 123.335 165.992 121.773C166.155 121.09 166.521 120.452 167.058 119.914L181.751 122.758Z" fill="#565171"/>
<path opacity="0.1" d="M181.751 122.758C181.721 123.374 181.641 124.066 181.527 124.811C180.231 124.895 176.599 124.975 173.907 123.607C171.368 122.326 167.672 121.891 166.009 121.755C166.172 121.073 166.538 120.434 167.075 119.897L181.751 122.758Z" fill="black"/>
<path d="M183.533 121.432C182.932 122.824 182.009 124.456 182.009 124.456C182.009 124.456 177.243 124.985 173.89 123.29C170.538 121.595 165.128 121.383 165.128 121.383C166.004 120.941 166.597 119.598 166.965 118.421C167.171 117.756 167.332 117.083 167.448 116.403C167.448 116.403 183.296 119.051 183.956 119.476C184.202 119.643 183.939 120.485 183.533 121.432Z" fill="#E6E6F0"/>
<path d="M211.775 76.7784L192.553 86.3174L190.644 87.264V82.6041L191.969 82.0821L208.169 75.717C208.169 75.717 208.944 64.1699 211.005 65.9726C213.066 67.7753 211.775 76.7784 211.775 76.7784Z" fill="#FDC2CC"/>
<path opacity="0.1" d="M192.553 86.3174L190.644 87.264V82.6041L191.969 82.0821C192.057 83.5025 192.252 84.917 192.553 86.3174Z" fill="black"/>
<path d="M177.759 88.0227L191.546 81.4557C191.546 81.4557 191.804 87.8139 193.349 88.7639C193.349 88.7639 187.681 90.156 185.489 93.1071L177.759 88.0227Z" fill="#B45181"/>
<path opacity="0.1" d="M177.759 88.0227L191.546 81.4557C191.546 81.4557 191.804 87.8139 193.349 88.7639C193.349 88.7639 187.681 90.156 185.489 93.1071L177.759 88.0227Z" fill="black"/>
<path d="M211.653 93.6222C211.653 93.6222 205.096 95.9713 200.753 96.8343C199.775 97.0766 198.753 97.1733 197.735 97.1197C194.772 96.6951 198.509 93.6396 198.509 93.6396L200.067 93.4412L208.431 92.3693C208.431 92.3693 209.333 81.7758 210.878 82.625C212.423 83.4741 211.653 93.6222 211.653 93.6222Z" fill="#FDC2CC"/>
<path d="M183.944 84.0867C183.944 84.0867 178.403 87.4763 180.464 91.7151C182.526 95.9539 169.767 89.1711 169.767 89.1711C169.767 89.1711 173.89 84.0867 174.792 80.2724C175.694 76.4582 183.944 84.0867 183.944 84.0867Z" fill="#FDC2CC"/>
<path opacity="0.1" d="M183.533 121.432C181.137 120.69 178.632 120.21 176.083 120.005C172.358 119.657 168.946 119.069 166.969 118.421C167.175 117.756 167.336 117.083 167.452 116.403C167.452 116.403 183.3 119.051 183.961 119.476C184.202 119.643 183.939 120.485 183.533 121.432Z" fill="black"/>
<path opacity="0.1" d="M200.749 96.8343C199.771 97.0767 198.749 97.1733 197.73 97.1197C194.767 96.6951 198.505 93.6396 198.505 93.6396L200.063 93.4412C200.715 94.266 201.379 95.5537 200.749 96.8343Z" fill="black"/>
<path d="M174.923 85.9938C174.923 85.9938 169.899 85.8894 168.095 87.5842C166.292 89.279 166.677 93.8484 166.677 93.8484C166.677 93.8484 166.301 102.998 169.124 108.117C169.217 108.282 169.228 108.471 169.154 108.642C169.124 108.705 169.124 108.667 169.124 108.667C169.124 108.667 167.321 115.342 165.518 116.507C163.714 117.673 169.382 119.051 176.1 119.685C182.818 120.318 185.506 121.909 185.506 121.909C185.506 121.909 186.665 120.865 186.775 118.519C186.886 116.173 184.985 99.1312 184.985 99.1312C184.985 99.1312 192.071 100.614 196.325 98.8145C196.325 98.8145 198.26 99.6637 200.063 97.332C201.866 95.0003 198.793 92.4598 198.793 92.4598C198.793 92.4598 195.957 94.7915 188.096 91.7186C180.236 88.6456 177.366 85.8894 174.923 85.9938Z" fill="#B45181"/>
<path d="M136.395 147.655H134.85V149.457L136.395 152.318C136.395 152.318 138.456 152.635 138.587 152.635C138.719 152.635 140.391 152.318 140.391 152.318L140.907 151.577C140.907 151.577 135.235 149.77 136.395 147.655Z" fill="#E6E6F0"/>
<path d="M184.845 149.349L182.526 153.588L192.321 157.416L200.054 157.629C200.054 157.629 200.698 156.146 198.12 155.405L196.058 155.088C196.058 155.088 193.354 151.062 193.095 149.172C193.095 149.172 190.517 149.596 190.132 151.183C190.128 151.149 186.522 152.631 184.845 149.349Z" fill="#B45181"/>
<path d="M135.235 147.23L134.448 147.759L130.985 150.091L138.973 158.791C138.973 158.791 143.481 160.381 145.546 158.791C145.546 158.791 146.816 157.747 144.001 156.884C144.001 156.884 141.809 157.201 141.809 155.401C141.809 153.602 142.325 151.695 143.079 151.27C143.079 151.27 141.144 150.741 140.632 151.166C140.238 151.523 139.892 151.914 139.599 152.332C139.599 152.332 134.977 150.832 135.235 147.23Z" fill="#B45181"/>
<path opacity="0.1" d="M174.538 80.4847C174.407 81.0222 174.235 81.5523 174.022 82.0717C174.691 83.3954 175.962 84.4526 177.564 85.0186C179.166 85.5845 180.973 85.6148 182.602 85.1028C182.942 84.8147 183.305 84.5461 183.69 84.2989C183.69 84.2989 175.44 76.6705 174.538 80.4847Z" fill="black"/>
<path opacity="0.1" d="M173.827 94.6349C173.827 94.6349 177.823 98.9781 183.622 99.086L173.827 94.6349Z" fill="black"/>
<g opacity="0.1">
<path opacity="0.1" d="M197.709 98.8876C197.628 98.8689 197.549 98.8445 197.472 98.8145C197.348 98.8679 197.221 98.9178 197.091 98.9642C197.3 98.9608 197.508 98.9351 197.709 98.8876Z" fill="black"/>
<path opacity="0.1" d="M199.081 92.8949C198.941 92.7469 198.791 92.6052 198.632 92.4703C198.632 92.4703 197.785 93.1664 195.694 93.2986C196.846 93.3927 198.009 93.2541 199.081 92.8949Z" fill="black"/>
<path opacity="0.1" d="M186.132 99.1313L186.158 99.3575C187.857 99.6164 189.585 99.733 191.313 99.7055C189.568 99.6532 187.832 99.4609 186.132 99.1313Z" fill="black"/>
<path opacity="0.1" d="M177.243 119.692C170.542 119.055 164.874 117.68 166.66 116.514C168.447 115.349 170.267 108.674 170.267 108.674C170.267 108.674 170.267 108.712 170.297 108.649C170.371 108.478 170.36 108.289 170.267 108.124C167.444 102.991 167.82 93.8554 167.82 93.8554C167.82 93.8554 167.435 89.2999 169.238 87.5912C170.58 86.3279 173.708 86.0669 175.22 86.0147C175.079 86.0057 174.937 86.0057 174.796 86.0147C174.796 86.0147 169.772 85.9103 167.968 87.6051C166.165 89.2999 166.55 93.8693 166.55 93.8693C166.55 93.8693 166.174 103.019 168.997 108.138C169.09 108.303 169.101 108.492 169.027 108.663C168.997 108.726 168.997 108.688 168.997 108.688C168.997 108.688 167.207 115.342 165.386 116.507C163.566 117.673 169.251 119.051 175.969 119.685C182.686 120.318 185.374 121.909 185.374 121.909C185.509 121.776 185.628 121.632 185.73 121.481C184.422 120.962 181.73 120.109 177.243 119.692Z" fill="black"/>
</g>
<path d="M180.464 85.2525C184.165 85.2525 187.165 82.786 187.165 79.7435C187.165 76.7009 184.165 74.2344 180.464 74.2344C176.763 74.2344 173.763 76.7009 173.763 79.7435C173.763 82.786 176.763 85.2525 180.464 85.2525Z" fill="#FDC2CC"/>
<path opacity="0.1" d="M190.001 77.2795C189.447 78.421 187.791 78.8525 186.34 79.1484C184.265 79.566 182.03 79.9766 180.045 79.3293C179.788 79.2106 179.491 79.1631 179.199 79.1936C178.963 79.2713 178.766 79.4124 178.64 79.5938C176.451 82.1552 176.807 85.5692 176.24 88.6665C176.062 89.6305 175.761 90.6258 174.97 91.3462C173.429 92.7382 170.521 92.686 169.103 94.1651C168.167 95.1395 168.159 96.4933 168.167 97.7357C168.167 99.0604 168.153 100.386 168.125 101.713C168.1 102.583 168.049 103.485 167.571 104.257C166.758 105.566 164.946 106.189 163.274 106.693C162.233 107.014 161.158 107.337 160.04 107.25C158.923 107.163 157.805 106.554 157.661 105.636C157.462 104.39 159.024 103.52 160.099 102.622C161.818 101.191 162.525 99.1103 162.588 97.0988C162.649 96.2864 162.505 95.4725 162.165 94.708C161.771 93.918 161.069 93.2533 160.645 92.4737C159.342 90.0725 160.95 87.2953 162.876 85.1933C164.802 83.0913 167.168 81.0415 167.579 78.4349C167.615 77.8709 167.713 77.3106 167.871 76.761C168.167 76.0023 168.87 73.9073 169.645 73.427C170.885 72.659 172.341 72.161 173.878 71.9793C175.067 71.8366 176.282 71.8888 177.463 71.7009C178.843 71.4817 180.126 70.9422 181.506 70.7404C184.49 70.3054 187.728 73.1556 189.036 75.4037C189.396 76.0928 190.34 76.58 190.001 77.2795Z" fill="black"/>
<path d="M190.001 77.0672C189.447 78.2087 187.791 78.6403 186.34 78.9361C184.265 79.3537 182.03 79.7643 180.045 79.117C179.788 78.9984 179.491 78.9508 179.199 78.9813C178.963 79.0591 178.766 79.2001 178.64 79.3815C176.451 81.9429 176.807 85.3569 176.24 88.4542C176.062 89.4182 175.761 90.4135 174.97 91.1339C173.429 92.5259 170.521 92.4737 169.103 93.9528C168.167 94.9272 168.159 96.281 168.167 97.5234C168.167 98.8481 168.153 100.174 168.125 101.501C168.1 102.371 168.049 103.273 167.571 104.045C166.758 105.354 164.946 105.977 163.274 106.481C162.233 106.801 161.158 107.125 160.04 107.038C158.923 106.951 157.805 106.342 157.661 105.423C157.462 104.177 159.024 103.307 160.099 102.409C161.818 100.979 162.525 98.898 162.588 96.8865C162.649 96.0741 162.505 95.2602 162.165 94.4957C161.771 93.7057 161.069 93.041 160.645 92.2614C159.342 89.8602 160.95 87.083 162.876 84.981C164.802 82.879 167.168 80.8293 167.579 78.2226C167.615 77.6586 167.713 77.0983 167.871 76.5487C168.167 75.79 168.87 73.695 169.645 73.2148C170.885 72.4467 172.341 71.9487 173.878 71.767C175.067 71.6243 176.282 71.6765 177.463 71.4886C178.843 71.2694 180.126 70.73 181.506 70.5281C184.49 70.0931 187.728 72.9433 189.036 75.1915C189.396 75.8805 190.34 76.3677 190.001 77.0672Z" fill="#F569BC"/>
<path d="M211.653 66.4773H323.052V158.057H211.653V66.4773Z" fill="#F7DF1E"/>
<path d="M240.949 143.009L249.474 138.766C251.121 141.164 252.615 143.193 256.205 143.193C259.646 143.193 261.813 142.086 261.813 137.785V108.521H272.281V137.903C272.281 146.816 265.932 150.874 256.653 150.874C248.281 150.874 243.421 147.306 240.953 143.005L240.949 143.009ZM277.966 142.083L286.487 138.025C288.731 141.039 291.647 143.245 296.807 143.245C301.146 143.245 303.91 141.463 303.91 139.003C303.91 136.052 301.07 135.008 296.291 133.285L293.675 132.363C286.123 129.721 281.111 126.401 281.111 119.392C281.111 112.937 287.093 108.019 296.439 108.019C303.093 108.019 307.868 109.927 311.318 114.903L303.169 119.208C301.375 116.563 299.432 115.519 296.439 115.519C293.374 115.519 291.427 117.116 291.427 119.208C291.427 121.79 293.37 122.834 297.857 124.428L300.473 125.35C309.362 128.483 314.383 131.681 314.383 138.874C314.383 146.621 306.979 150.863 297.027 150.863C287.292 150.863 281.027 147.035 277.979 142.072" fill="black"/>
<path d="M371.917 208.88C371.917 208.88 367.57 209.131 364.886 205.303C364.362 204.532 363.742 203.808 363.036 203.142C362.17 201.974 361.72 200.629 361.737 199.261C361.885 196.425 358.287 180.89 358.287 180.89C358.287 180.89 358.736 174.973 355.138 171.274C352.767 168.838 349.36 161.878 347.307 157.381C347.444 157.482 347.61 157.554 347.789 157.59L347.705 157.204H347.789L346.727 152.405C345.18 150.943 343.876 149.319 342.849 147.574L343.091 147.533L346.274 146.983C346.274 146.983 351.446 140.938 351.777 137.966H352.2H352.797C357.585 137.944 362.37 138.15 367.13 138.582C367.13 138.564 367.096 138.488 367.053 138.366C366.852 137.768 366.696 137.16 366.588 136.546H366.884L369.847 136.386C369.847 136.386 380.044 127.017 376.294 125.291C372.544 123.565 368.645 133.059 368.645 133.059L367.375 133.247L367.032 133.299C367.066 133.257 367.1 133.219 367.138 133.181C367.176 133.142 350.494 132.568 347.925 129.234C347.925 129.234 340.576 124.425 340.276 121.23C340.222 120.567 339.946 119.929 339.481 119.387C339.015 118.844 338.376 118.417 337.634 118.154C336.726 117.797 335.721 117.643 334.718 117.705L331.276 117.9L331.518 118.248H331.42C331.204 117.841 331.023 117.422 330.878 116.995H330.95C330.925 116.908 330.904 116.821 330.883 116.734C331.937 116.529 332.931 116.153 333.806 115.627C334.68 115.101 335.418 114.436 335.974 113.671C336.53 112.906 336.894 112.058 337.044 111.176C337.194 110.293 337.127 109.395 336.847 108.535C337.184 108.57 337.525 108.562 337.859 108.51C339.129 108.298 340.022 107.24 340.056 106.182C340.056 106.112 340.056 106.043 340.056 105.977C340.056 105.977 340.056 105.949 340.056 105.935C340.043 105.403 339.886 104.881 339.597 104.405C339.308 103.929 338.893 103.513 338.384 103.186C337.698 102.716 336.877 102.382 336.267 101.86C335.526 101.237 335.12 100.401 334.544 99.6672C333.58 98.4525 332.15 97.5375 330.481 97.0675C329.24 96.7195 327.716 96.6847 326.764 97.4155C326.273 97.7949 325.989 98.3447 325.439 98.6649C324.648 99.1312 323.572 98.992 322.603 99.086C321.725 99.197 320.894 99.484 320.183 99.9216C319.472 100.359 318.903 100.934 318.527 101.595C318.051 102.423 317.822 103.332 317.858 104.247C317.847 104.875 317.938 105.501 318.129 106.109C318.315 106.714 318.59 107.299 318.793 107.905C319.217 109.157 319.314 110.476 319.801 111.712C320.128 112.629 320.781 113.444 321.676 114.054L321.532 114.562C321.439 114.562 319.102 114.99 317.49 117.889C316.22 120.176 311.898 122.535 309.997 123.489C309.643 123.667 309.335 123.902 309.092 124.179C308.85 124.456 308.677 124.77 308.583 125.103C308.401 125.776 308.32 126.464 308.342 127.153C308.308 128.639 308.685 130.696 310.137 133.303C313.434 139.219 315.835 141.808 315.835 141.808C315.835 141.808 316.017 143.621 316.029 145.532C316.029 146.955 315.902 148.371 315.534 149.081C315.221 149.68 315.111 151.208 315.136 152.955C315.136 156.303 315.534 160.67 315.534 160.67C315.534 160.67 316.681 160.851 318.455 161.063L319.56 177.044C319.698 178.979 318.942 180.886 317.443 182.383C316.668 183.17 315.773 183.871 314.78 184.471C311.631 186.319 304.884 205.8 304.884 205.8C304.884 205.8 305.214 205.8 305.756 205.853L303.682 210.61C303.682 210.61 311.97 215.83 317.011 214.403C317.557 214.257 318.131 214.191 318.704 214.208C319.699 214.208 321.828 213.561 320.643 212.708C318.354 210.976 316.196 209.13 314.179 207.182C314.342 207.247 314.497 207.323 314.645 207.408V207.37L314.717 207.408C314.717 207.408 314.717 207.217 314.772 206.904L314.7 206.883C314.852 205.602 315.335 202.359 316.292 201.983C317.49 201.489 326.341 187.063 326.341 187.063L335.188 168.323C335.188 168.323 342.236 178.311 348.234 180.034V184.21C348.234 184.21 351.531 196.54 352.733 197.894C353.935 199.247 352.733 204.673 352.733 204.673C352.97 204.896 353.242 205.093 353.542 205.257L352.581 209.726C352.581 209.726 359.481 209.479 371.176 212.437C371.168 212.454 375.668 210.854 371.917 208.88ZM344.327 144.401L342.866 144.7L342.578 144.759C342.549 144.609 342.528 144.522 342.528 144.522C342.193 144.647 341.832 144.719 341.465 144.735C340.947 143.387 340.649 141.988 340.576 140.576C340.085 138.886 339.786 137.161 339.683 135.425C339.683 134.528 339.865 133.744 340.276 133.303L340.762 133.334L341.101 133.598L341.126 133.616L341.3 133.744L341.482 133.877L341.512 133.898L341.706 134.04L341.74 134.065L341.939 134.204L342.164 134.357L342.214 134.392L342.451 134.548L342.684 134.702L342.739 134.736L342.997 134.896L343.052 134.928L343.298 135.077L343.34 135.102L343.62 135.265L343.687 135.304L343.984 135.471H344.009L344.297 135.627L344.365 135.666L344.674 135.829L344.741 135.864L345.029 136.01L345.084 136.038L345.414 136.198L345.495 136.236L345.838 136.393H345.863L346.198 136.539L346.278 136.574L346.634 136.72L346.706 136.748L347.036 136.873L347.099 136.897L347.472 137.03L347.561 137.061L347.946 137.19C345.554 139.354 344.327 144.401 344.327 144.401Z" fill="url(#paint0_linear)"/>
<path d="M307.339 202.922L304.558 209.301C304.558 209.301 312.177 214.104 317.13 213.109C317.876 212.956 318.636 212.855 319.403 212.806C320.427 212.743 322.192 212.127 321.096 211.348C317.583 208.821 312.897 204.126 312.897 204.126L307.339 202.922Z" fill="#4F4D59"/>
<path d="M353.601 202.32L352.285 208.459C352.285 208.459 359.019 208.219 370.44 211.108C370.44 211.108 374.834 209.542 371.172 207.627C371.172 207.627 366.939 207.868 364.293 204.147C361.648 200.427 360.061 200.897 360.061 200.897L353.601 202.32Z" fill="#4F4D59"/>
<path d="M318.747 157.789L320.017 176.47C320.156 178.46 319.353 180.418 317.777 181.934C317.065 182.629 316.254 183.252 315.36 183.789C312.287 185.595 305.697 204.61 305.697 204.61C305.697 204.61 313.164 204.958 315.212 206.176C315.212 206.176 315.636 201.363 316.821 200.879C318.006 200.396 326.629 186.315 326.629 186.315L335.268 168.02C335.268 168.02 342.147 177.764 348.005 179.456V183.548C348.005 183.548 351.226 195.586 352.399 196.909C353.571 198.231 352.399 203.521 352.399 203.521C352.399 203.521 355.785 207.001 363.523 203.281C363.523 203.281 361.034 200.994 361.182 198.224C361.33 195.454 357.796 180.291 357.796 180.291C357.796 180.291 358.219 174.514 354.723 170.895C351.226 167.275 345.414 153.449 345.414 153.449L341.385 146.322L318.747 157.789Z" fill="#C48C96"/>
<g opacity="0.1">
<path opacity="0.1" d="M307.119 204.607C307.119 204.607 313.705 185.591 316.783 183.785C317.727 183.216 318.58 182.552 319.322 181.808C320.825 180.313 321.581 178.406 321.439 176.47L320.148 157.785L341.736 146.844L341.444 146.325L318.831 157.789L320.123 176.473C320.265 178.409 319.508 180.317 318.006 181.812C317.263 182.556 316.41 183.22 315.466 183.789C312.397 185.591 305.802 204.607 305.802 204.607C305.802 204.607 313.269 204.955 315.318 206.173C315.318 206.173 315.318 205.985 315.373 205.682C312.49 204.868 307.119 204.607 307.119 204.607Z" fill="black"/>
<path opacity="0.1" d="M353.821 203.524C353.821 203.524 354.994 198.228 353.821 196.912C352.649 195.597 349.427 183.552 349.427 183.552V179.452C343.573 177.768 336.69 168.017 336.69 168.017L336.182 169.109C338.168 171.699 343.463 178.123 348.115 179.459V183.552C348.115 183.552 351.336 195.59 352.509 196.912C353.681 198.235 352.509 203.524 352.509 203.524C352.509 203.524 354.143 205.216 357.749 204.986C355.053 204.802 353.821 203.524 353.821 203.524Z" fill="black"/>
</g>
<path d="M369.119 136.845L366.245 137.002L364.729 137.085V134.075L366.719 133.779L367.951 133.595C367.951 133.595 371.76 124.327 375.418 126.012C379.075 127.696 369.119 136.845 369.119 136.845Z" fill="#714B4F"/>
<path d="M323.005 112.036C323.005 112.036 321.1 118.053 320.516 121.78C319.932 125.507 334.129 122.504 334.129 122.504C334.129 122.504 328.711 117.089 331.789 114.2L323.005 112.036Z" fill="#714B4F"/>
<path d="M338.375 137.092L338.667 139.379L334.129 139.139L329.592 135.888L325.054 125.413L322.133 121.679L319.936 119.392L320.817 116.608C320.817 116.608 321.219 116.897 321.896 117.322C324.127 118.714 329.355 121.641 333.177 120.833C333.354 120.797 333.528 120.751 333.698 120.697L339.408 128.761L338.375 137.092Z" fill="#E6E6F0"/>
<path opacity="0.1" d="M321.981 115.902C321.981 115.902 319.64 116.25 318.027 119.152C316.791 121.373 312.609 123.677 310.742 124.606C310.386 124.784 310.077 125.02 309.834 125.299C309.59 125.577 309.417 125.893 309.324 126.227C308.947 127.599 308.804 130.156 310.852 133.835C314.074 139.612 316.414 142.139 316.414 142.139C316.414 142.139 316.999 147.916 316.122 149.6C315.246 151.284 316.122 160.552 316.122 160.552C316.122 160.552 331.492 162.96 336.618 160.552C341.744 158.144 341.012 148.876 341.012 148.876C341.012 148.876 345.842 157.301 347.599 157.542L346.574 152.847C346.574 152.847 340.864 147.79 340.572 141.293C340.572 141.293 338.815 135.394 340.28 133.831C340.28 133.831 365.022 135.516 366.486 134.072C366.486 134.072 350.236 133.47 347.747 130.219C347.747 130.219 340.572 125.524 340.28 122.396C340.237 121.808 340.013 121.24 339.629 120.743C339.244 120.247 338.712 119.84 338.083 119.56C337.087 119.094 335.945 118.884 334.802 118.957L331.496 119.145C331.496 119.145 337.207 127.449 336.915 128.542C336.623 129.634 337.207 138.411 337.207 138.411C337.207 138.411 330.599 126.736 327.691 125.413C324.783 124.091 321.392 118.648 321.392 118.648L321.977 115.898" fill="black"/>
<path opacity="0.1" d="M338.375 137.092L338.667 139.379L334.129 139.139L329.592 135.888L325.054 125.413L322.133 121.679L319.936 119.392L320.817 116.608C320.817 116.608 321.219 116.897 321.896 117.322L321.693 118.272C321.693 118.272 325.079 123.708 327.987 125.034C330.895 126.36 337.503 138.032 337.503 138.032C337.503 138.032 336.919 129.245 337.211 128.162C337.41 127.428 334.845 123.37 333.177 120.833C333.354 120.797 333.528 120.751 333.698 120.697L339.408 128.761L338.375 137.092Z" fill="black"/>
<path opacity="0.1" d="M366.245 137.002L364.729 137.085V134.075L366.719 133.779C366.025 134.534 366.05 135.871 366.245 137.002Z" fill="black"/>
<path d="M321.981 115.543C321.981 115.543 319.64 115.891 318.027 118.794C316.791 121.014 312.609 123.318 310.742 124.247C310.386 124.426 310.077 124.662 309.834 124.94C309.59 125.219 309.417 125.534 309.324 125.869C308.947 127.24 308.804 129.798 310.852 133.477C314.074 139.254 316.414 141.78 316.414 141.78C316.414 141.78 316.999 147.557 316.122 149.241C315.246 150.926 316.122 160.193 316.122 160.193C316.122 160.193 331.492 162.602 336.618 160.193C341.744 157.785 341.012 148.518 341.012 148.518C341.012 148.518 345.838 156.929 347.599 157.187L346.574 152.492C346.574 152.492 340.864 147.435 340.572 140.938C340.572 140.938 338.815 135.039 340.28 133.477C340.28 133.477 345.99 138.533 352.433 138.411C357.127 138.388 361.82 138.589 366.486 139.013C366.486 139.013 365.022 135.161 366.486 133.717C366.486 133.717 350.236 133.115 347.747 129.864C347.747 129.864 340.572 125.169 340.28 122.041C340.237 121.453 340.013 120.885 339.629 120.388C339.244 119.892 338.712 119.485 338.083 119.205C337.087 118.739 335.945 118.529 334.802 118.602L331.496 118.79C331.496 118.79 337.207 127.094 336.915 128.187C336.623 129.279 337.207 138.056 337.207 138.056C337.207 138.056 330.599 126.374 327.691 125.051C324.783 123.729 321.392 118.3 321.392 118.3L321.977 115.55" fill="#C48C96"/>
<path opacity="0.1" d="M318.747 128.18C318.747 128.18 322.26 137.924 324.309 139.132C326.358 140.339 338.803 146.475 342.464 145.03C342.464 145.03 343.345 148.643 342.041 149.485C342.041 149.485 328.39 149.047 328.279 149.005C328.279 149.005 319.348 148.041 317.883 144.432C316.419 140.823 314.662 134.688 314.662 134.688L318.747 128.18Z" fill="black"/>
<path d="M337.499 139.194C337.782 139.194 338.011 138.925 338.011 138.592C338.011 138.26 337.782 137.99 337.499 137.99C337.216 137.99 336.987 138.26 336.987 138.592C336.987 138.925 337.216 139.194 337.499 139.194Z" fill="#BA7855"/>
<path d="M338.959 143.405C339.242 143.405 339.471 143.136 339.471 142.803C339.471 142.471 339.242 142.201 338.959 142.201C338.676 142.201 338.447 142.471 338.447 142.803C338.447 143.136 338.676 143.405 338.959 143.405Z" fill="#BA7855"/>
<g opacity="0.1">
<path opacity="0.1" d="M317.151 160.061C317.151 160.061 316.27 150.794 317.151 149.109C318.031 147.425 317.443 141.648 317.443 141.648C317.443 141.648 315.102 139.121 311.881 133.344C309.828 129.666 309.976 127.108 310.353 125.737C310.445 125.402 310.619 125.086 310.862 124.808C311.106 124.529 311.415 124.294 311.771 124.115C313.638 123.175 317.816 120.882 319.056 118.662C319.966 117.033 321.105 116.208 321.926 115.798L321.981 115.533C321.981 115.533 319.64 115.881 318.027 118.783C316.791 121.004 312.609 123.308 310.742 124.237C310.386 124.416 310.077 124.651 309.834 124.93C309.59 125.208 309.417 125.524 309.324 125.859C308.947 127.23 308.804 129.788 310.852 133.466C314.074 139.243 316.414 141.77 316.414 141.77C316.414 141.77 316.999 147.547 316.122 149.231C315.246 150.915 316.122 160.183 316.122 160.183C316.122 160.183 327.103 161.902 333.596 160.98C327.039 161.624 317.151 160.061 317.151 160.061Z" fill="black"/>
<path opacity="0.1" d="M336.91 128.18C336.711 128.921 336.91 133.282 337.075 135.954C337.782 137.141 338.227 137.931 338.227 137.931C338.227 137.931 337.643 129.144 337.935 128.061C338.214 127.017 333.071 119.479 332.559 118.735L331.492 118.794C331.492 118.794 337.207 127.097 336.91 128.18Z" fill="black"/>
<path opacity="0.1" d="M353.457 138.29C347.015 138.411 341.304 133.355 341.304 133.355C341.133 133.551 341.008 133.772 340.936 134.006C342.629 135.3 347.285 138.505 352.433 138.408C357.127 138.385 361.82 138.586 366.486 139.01C366.486 139.01 366.457 138.93 366.41 138.794C362.107 138.428 357.783 138.26 353.457 138.29Z" fill="black"/>
<path opacity="0.1" d="M342.028 148.399C342.028 148.399 342.087 149.151 342.053 150.279C343.577 152.763 346.35 157.013 347.59 157.183L347.374 156.195C345.245 153.995 342.028 148.399 342.028 148.399Z" fill="black"/>
</g>
<path d="M346.134 147.185L343.023 147.724L340.568 148.149L341.884 145.138L342.803 144.95L344.229 144.658C344.229 144.658 346.278 136.233 350.38 136.835C354.482 137.437 346.134 147.185 346.134 147.185Z" fill="#714B4F"/>
<path opacity="0.1" d="M343.027 147.735L340.572 148.159L341.888 145.149L342.807 144.961C343.011 145.875 343.084 146.806 343.027 147.735Z" fill="black"/>
<path d="M318.747 127.94C318.747 127.94 322.26 137.684 324.309 138.892C326.358 140.099 338.803 146.235 342.464 144.79C342.464 144.79 343.345 148.403 342.041 149.245C342.041 149.245 328.39 148.806 328.279 148.765C328.279 148.765 319.348 147.801 317.883 144.192C316.419 140.583 314.662 134.447 314.662 134.447L318.747 127.94Z" fill="#C48C96"/>
<path opacity="0.1" d="M323.149 112.293C323.149 112.293 322.853 113.236 322.455 114.607C323.265 115.87 324.559 116.878 326.136 117.475C327.713 118.073 329.485 118.227 331.179 117.913C330.828 116.678 330.904 115.429 331.932 114.461L323.149 112.293Z" fill="black"/>
<path d="M329.3 117.83C333.667 117.83 337.207 114.919 337.207 111.329C337.207 107.739 333.667 104.828 329.3 104.828C324.933 104.828 321.392 107.739 321.392 111.329C321.392 114.919 324.933 117.83 329.3 117.83Z" fill="#714B4F"/>
<path opacity="0.1" d="M336.165 109.54C336.738 109.672 337.338 109.703 337.926 109.631C338.536 109.495 339.074 109.2 339.461 108.79C339.847 108.38 340.061 107.877 340.068 107.358C340.057 106.839 339.905 106.329 339.623 105.865C339.341 105.401 338.936 104.994 338.439 104.675C337.77 104.216 336.97 103.892 336.356 103.38C335.632 102.771 335.234 101.957 334.663 101.24C333.721 100.055 332.325 99.1618 330.696 98.7032C329.486 98.3552 328 98.3273 327.069 99.0512C326.59 99.4236 326.311 99.956 325.778 100.273C325.003 100.725 323.953 100.593 323.009 100.683C322.154 100.79 321.344 101.068 320.65 101.493C319.956 101.918 319.4 102.476 319.03 103.119C318.308 104.431 318.17 105.909 318.641 107.296C318.823 107.887 319.094 108.458 319.289 109.036C319.712 110.261 319.797 111.545 320.271 112.752C320.745 113.96 321.723 115.143 323.204 115.505C323.087 114.15 323.413 112.793 324.148 111.576C324.269 111.31 324.508 111.091 324.817 110.964C325.081 110.908 325.357 110.908 325.621 110.964C327.478 111.189 329.372 110.874 330.976 110.073C331.539 109.794 332.415 108.834 333.012 108.74C333.782 108.632 335.361 109.394 336.165 109.54Z" fill="black"/>
<path d="M336.165 109.3C336.738 109.432 337.338 109.462 337.926 109.391C338.536 109.255 339.074 108.96 339.461 108.55C339.847 108.14 340.061 107.637 340.068 107.118C340.057 106.599 339.905 106.089 339.623 105.625C339.341 105.161 338.936 104.754 338.439 104.435C337.77 103.976 336.97 103.652 336.356 103.14C335.632 102.531 335.234 101.717 334.663 101C333.721 99.8146 332.325 98.9217 330.696 98.4631C329.486 98.115 328 98.0872 327.069 98.8111C326.59 99.1834 326.311 99.7159 325.778 100.033C325.003 100.485 323.953 100.353 323.009 100.443C322.154 100.55 321.344 100.828 320.65 101.253C319.956 101.678 319.4 102.236 319.03 102.879C318.308 104.191 318.17 105.669 318.641 107.055C318.823 107.647 319.094 108.218 319.289 108.796C319.712 110.021 319.797 111.305 320.271 112.512C320.745 113.72 321.723 114.903 323.204 115.265C323.091 113.91 323.419 112.555 324.157 111.339C324.278 111.073 324.516 110.855 324.825 110.727C325.089 110.671 325.366 110.671 325.63 110.727C327.486 110.953 329.38 110.638 330.984 109.836C331.547 109.558 332.423 108.597 333.02 108.503C333.782 108.392 335.361 109.154 336.165 109.3Z" fill="#503F43"/>
<path d="M415.047 87.8452L408.596 147.251L379.6 153.863L350.685 147.251L344.242 87.8452H415.047Z" fill="#E44D26"/>
<path d="M379.642 148.81L403.072 143.471L408.575 92.7034H379.642V148.81Z" fill="#F16529"/>
<path d="M367.104 107.278H379.642V99.9908H357.419L357.631 101.947L359.811 122.027H379.646V114.74H367.917L367.104 107.278ZM369.119 125.671H360.23L361.47 137.113L379.604 141.268H379.646V133.664H379.608L369.737 131.472L369.119 125.671Z" fill="#EBEBEB"/>
<path d="M350.833 71.6974H355.337V75.355H359.455V71.6974H363.959V82.7781H359.455V79.0683H355.337V82.7781H350.833V71.6974ZM369.881 75.3724H365.915V71.6974H378.351V75.3724H374.385V82.7781H369.885V75.3724H369.881ZM380.328 71.6974H385.027L387.918 75.5916L390.805 71.6974H395.503V82.7781H391.016V77.2865L387.918 81.226H387.841L384.739 77.2865V82.7781H380.328V71.6974ZM397.742 71.6974H402.246V79.1135H408.596V82.7746H397.755V71.6974H397.742Z" fill="black"/>
<path d="M379.613 122.027H390.525L389.497 131.479L379.613 133.671V141.268L397.785 137.127L397.916 135.895L399.999 116.709L400.214 114.753H379.613V122.041V122.027ZM379.613 107.261V107.278H401.023L401.201 105.639L401.624 101.943L401.836 99.9873H379.613V107.257V107.261Z" fill="white"/>
<path d="M155.236 131.702C154.41 129.715 153.221 127.178 152.273 126.6C152.215 126.562 152.153 126.531 152.086 126.506H151.968V124.052L149.741 124.345C149.384 123.458 149.114 122.549 148.933 121.627C149.147 121.803 149.421 121.923 149.718 121.972C150.016 122.021 150.324 121.997 150.605 121.902C150.567 121.853 150.537 121.801 150.503 121.749L150.605 121.714C150.254 121.205 150.069 120.631 150.067 120.047C150.086 119.514 150.19 118.985 150.376 118.474C150.774 117.343 151.447 116.285 151.824 115.15C152.065 114.418 152.179 113.661 152.163 112.902C152.174 111.617 151.817 110.347 151.121 109.196C150.949 108.864 150.678 108.574 150.334 108.35C150.021 108.207 149.699 108.078 149.369 107.964C148.817 107.658 148.341 107.268 147.968 106.815C146.386 105.233 144.269 104.071 141.885 103.478C141.264 103.288 140.591 103.245 139.942 103.353C138.448 103.701 137.902 105.208 136.691 106.004C135.62 106.701 134.151 106.781 132.814 107.017C131.44 107.209 130.176 107.754 129.203 108.573C128.57 109.168 128.225 109.933 128.234 110.724C128.197 111.092 128.276 111.463 128.464 111.799C128.651 112.135 128.941 112.426 129.304 112.645C129.718 112.868 130.187 113.014 130.677 113.071C131.168 113.128 131.667 113.095 132.141 112.975C131.771 114.025 131.669 115.126 131.842 116.209C132.014 117.293 132.457 118.336 133.142 119.272C133.828 120.208 134.742 121.017 135.826 121.65C136.91 122.282 138.141 122.723 139.442 122.946L139.705 123.329C140.505 124.556 141.113 125.862 141.512 127.216C139.464 128.173 137.224 129.067 135.874 129.151C135.82 129.585 135.723 130.014 135.582 130.435C135.266 131.491 134.66 132.474 133.808 133.306C131.971 135.004 123.704 147.846 123.704 147.846C123.704 147.846 123.442 148.358 123.019 149.238C117.884 149.757 109.507 150.505 107.166 150.118L97.9805 142.942C97.9805 142.942 95.0174 144.804 95.2714 147.066L93.6163 145.772C93.6163 145.772 84.8879 151.246 98.6705 154.82L119.641 156.821C117.643 161.777 115.78 167.543 116.356 170.683H116.529C116.93 170.682 117.331 170.656 117.727 170.606L117.689 171.163L115.67 200.893C115.67 200.893 115.209 206.368 121.41 208.825C121.41 208.825 128.991 227.14 126.003 229.218C126.003 229.218 126.358 229.371 126.955 229.587L120.72 234.111C120.72 234.111 116.127 235.054 113.6 234.866C113.156 234.817 112.705 234.903 112.334 235.109C111.962 235.315 111.696 235.626 111.585 235.983C111.585 236.022 111.585 236.06 111.56 236.102V236.151C111.56 236.189 111.56 236.231 111.56 236.272C111.56 236.314 111.56 236.304 111.56 236.318C111.56 236.331 111.56 236.387 111.56 236.422V236.467C111.56 236.509 111.56 236.547 111.59 236.589V236.634C111.604 236.678 111.621 236.721 111.64 236.763V236.805C111.661 236.847 111.687 236.888 111.712 236.93V236.958C111.742 237 111.772 237.041 111.805 237.083L111.835 237.118C111.872 237.162 111.913 237.206 111.958 237.25L111.992 237.285C112.038 237.33 112.089 237.372 112.144 237.417H112.169L112.339 237.536L112.377 237.56L112.584 237.682L112.635 237.71L112.876 237.824H112.914L113.173 237.929H113.211L113.511 238.03L113.575 238.051L113.909 238.141H113.964L114.324 238.218H114.354L114.777 238.284H114.857L115.281 238.336H115.361L115.848 238.374C116.792 238.433 118.066 238.454 119.539 238.451C119.539 238.451 119.539 238.482 119.539 238.496C119.539 238.51 119.539 238.566 119.539 238.601V238.646C119.539 238.688 119.539 238.726 119.569 238.768V238.813C119.583 238.857 119.6 238.9 119.619 238.942V238.983C119.641 239.025 119.666 239.067 119.691 239.109V239.136C119.721 239.178 119.751 239.22 119.785 239.262L119.814 239.297C119.851 239.341 119.892 239.385 119.937 239.429L119.971 239.464C120.017 239.509 120.068 239.551 120.123 239.596H120.144L120.314 239.714L120.352 239.739L120.559 239.86L120.61 239.888L120.847 240.003H120.885L121.143 240.107H121.181L121.482 240.208L121.545 240.229L121.88 240.32H121.935L122.295 240.396H122.324L122.748 240.462H122.828L123.251 240.515H123.332L123.819 240.553C129.791 240.932 148.852 239.798 148.852 239.798V239.752V239.697C149.043 238.966 149.957 234.717 146.706 231.574C146.804 231.491 146.897 231.404 146.986 231.313C146.986 231.313 144.446 227.725 145.838 226.594C147.231 225.463 139.112 205.999 139.112 205.999C139.112 205.999 134.748 200.333 137.275 193.912C139.802 187.491 137.047 180.507 137.047 180.507C137.047 180.507 143.079 179.038 143.189 172.938C143.189 172.753 143.189 172.562 143.189 172.37C143.315 172.385 143.442 172.392 143.57 172.391C143.654 172.396 143.739 172.396 143.824 172.391C143.824 172.391 142.676 168.991 144.052 166.538C145.428 164.084 148.416 166.35 151.172 156.341C153.166 149.099 154.918 140.771 155.739 136.717C156.077 135.036 155.904 133.314 155.236 131.702ZM102.823 152.93L100.728 151.295C101.422 151.531 102.192 151.761 103.052 151.991L110.946 152.753C107.424 153.014 104.135 153.16 102.823 152.941V152.93Z" fill="url(#paint1_linear)"/>
<path d="M122.815 151.977C122.815 151.977 106.569 153.832 103.183 153.275L94.1581 146.224C94.1581 146.224 85.5822 151.605 99.1234 155.13L124.394 157.542L122.815 151.977Z" fill="#FDC2CC"/>
<path opacity="0.05" d="M122.815 151.977C122.815 151.977 106.569 153.832 103.183 153.275L94.1581 146.224C94.1581 146.224 85.5822 151.605 99.1234 155.13L124.394 157.542L122.815 151.977Z" fill="black"/>
<path d="M91.013 156.658L55.9048 148.653L48.0823 76.5104H134.05L126.219 148.643L91.013 156.658Z" fill="#264DE4"/>
<path d="M119.514 144.053L126.206 82.4127H91.0723V150.522L119.514 144.053Z" fill="#2965F1"/>
<path d="M66.0385 109.157L67.0036 118.004H91.0892V109.157H66.0385ZM64.0998 91.2488L65.0776 100.095H91.085V91.2488H64.0786H64.0998ZM91.085 132.137H91.0384L79.0506 129.474L78.2845 122.417H67.4608L68.9677 136.309L91.013 141.352H91.0638L91.085 132.137Z" fill="#EBEBEB"/>
<path d="M68.3159 56.8965H81.3492V61.3789H73.7637V65.8613H81.3492V70.3437H68.3159V56.8965ZM83.9779 56.8965H97.0112V60.7942H89.4088V61.5738H96.9943V70.5386H83.9567V66.4459H91.5422V65.6664H83.9567V56.8965H83.9779ZM99.6399 56.8965H112.673V60.7942H105.05V61.5738H112.635V70.5386H99.5976V66.4459H107.183V65.6664H99.5976V56.8965H99.6399Z" fill="black"/>
<path d="M116.047 109.157L117.99 91.2488H91.013V100.095H106.18L105.202 109.144H91.013V117.99H104.266L102.997 129.474L91.013 132.144V141.349L113.075 136.32L113.236 134.823L115.776 111.527L116.038 109.151L116.047 109.157Z" fill="white"/>
<path d="M128.686 227.294L120.788 233.043C120.788 233.043 116.275 233.972 113.795 233.784C111.314 233.596 110.184 236.937 116.051 237.309C121.918 237.682 140.645 236.568 140.645 236.568C140.645 236.568 142.448 230.631 137.034 227.294H128.686Z" fill="#47465A"/>
<path opacity="0.05" d="M128.686 227.294L120.788 233.043C120.788 233.043 116.275 233.972 113.795 233.784C111.314 233.596 110.184 236.937 116.051 237.309C121.918 237.682 140.645 236.568 140.645 236.568C140.645 236.568 142.448 230.631 137.034 227.294H128.686Z" fill="black"/>
<path opacity="0.3" d="M140.924 234.003C140.911 234.68 140.816 235.354 140.64 236.015C140.64 236.015 121.914 237.128 116.047 236.756C113.223 236.579 112.026 235.712 111.814 234.884C111.556 235.837 112.58 237.094 116.047 237.32C121.914 237.692 140.64 236.579 140.64 236.579C140.861 235.733 140.956 234.868 140.924 234.003Z" fill="white"/>
<path d="M137.931 122.128C137.931 122.128 142.897 127.877 141.089 131.775C139.282 135.672 150.567 127.693 150.567 127.693C150.567 127.693 146.956 122.476 148.763 116.908L137.931 122.128Z" fill="#FDC2CC"/>
<path d="M136.577 229.521L128.687 235.27C128.687 235.27 124.174 236.199 121.694 236.011C119.213 235.823 118.083 239.164 123.95 239.537C129.817 239.909 148.543 238.795 148.543 238.795C148.543 238.795 150.347 232.858 144.933 229.521H136.577Z" fill="#47465A"/>
<path d="M138.846 228.223C137.669 229.416 136.01 229.876 134.274 229.945C130.329 230.098 125.986 228.223 125.986 228.223C128.919 226.183 121.473 208.188 121.473 208.188C115.382 205.776 115.831 200.396 115.831 200.396L117.804 171.197L118.303 163.861L124.623 160.708L129.601 163.84L134.325 166.819C134.633 167.767 134.831 168.737 134.917 169.715C135.468 176.532 128.911 178.137 128.911 178.137C128.911 178.137 131.62 185 129.135 191.309C126.65 197.619 130.938 203.183 130.938 203.183C130.938 203.183 139.061 222.477 137.711 223.591C136.361 224.704 138.846 228.223 138.846 228.223Z" fill="#565171"/>
<path opacity="0.05" d="M138.846 228.223C137.669 229.416 136.01 229.876 134.274 229.945C130.329 230.098 125.986 228.223 125.986 228.223C128.919 226.183 121.473 208.188 121.473 208.188C115.382 205.776 115.831 200.396 115.831 200.396L117.804 171.197L118.303 163.861L124.623 160.708L129.601 163.84L134.325 166.819C134.633 167.767 134.831 168.737 134.917 169.715C135.468 176.532 128.911 178.137 128.911 178.137C128.911 178.137 131.62 185 129.135 191.309C126.65 197.619 130.938 203.183 130.938 203.183C130.938 203.183 139.061 222.477 137.711 223.591C136.361 224.704 138.846 228.223 138.846 228.223Z" fill="black"/>
<path d="M146.732 230.447C142.897 234.341 133.872 230.447 133.872 230.447C134.054 230.309 134.189 230.135 134.266 229.942C135.921 226.243 128.682 208.557 128.682 208.557C122.591 206.145 121.909 200.396 121.909 200.396L120.314 170.669L120.106 166.82L129.601 163.841L132.517 162.925L142.232 169.047C142.649 170.315 142.854 171.624 142.842 172.938C142.719 178.927 136.805 180.375 136.805 180.375C136.805 180.375 139.514 187.237 137.03 193.547C134.545 199.856 138.846 205.404 138.846 205.404C138.846 205.404 146.969 224.697 145.618 225.811C144.268 226.925 146.732 230.447 146.732 230.447Z" fill="#565171"/>
<path opacity="0.1" d="M142.842 172.938C140.89 172.708 136.941 170.776 134.913 169.729C134.139 169.329 133.643 169.061 133.643 169.061C133.643 169.061 131.611 164.422 126.197 167.947C124.436 169.123 122.447 170.048 120.314 170.682C119.499 170.92 118.658 171.093 117.804 171.201L118.303 163.865L124.623 160.712L129.601 163.844L132.517 162.929L142.232 169.047C142.649 170.315 142.854 171.624 142.842 172.938Z" fill="black"/>
<path d="M155.054 137.339C154.249 141.321 152.514 149.52 150.567 156.616C147.858 166.447 144.924 164.22 143.574 166.632C142.224 169.043 143.349 172.381 143.349 172.381C141.093 172.565 133.648 168.487 133.648 168.487C133.648 168.487 131.616 163.848 126.202 167.373C120.788 170.898 116.5 170.71 116.5 170.71C115.37 164.589 123.721 148.264 123.721 148.264C123.721 148.264 131.844 135.648 133.648 133.995C134.484 133.178 135.081 132.213 135.391 131.176C135.53 130.764 135.626 130.342 135.679 129.916C138.613 129.732 145.838 125.65 145.838 125.65L151.481 124.908V127.32C151.548 127.345 151.61 127.376 151.667 127.414C152.594 127.995 153.784 130.473 154.575 132.426C155.223 134.006 155.388 135.694 155.054 137.339Z" fill="#E1A0A7"/>
<path d="M128.687 154.761L125.77 154.483L103.416 152.349C89.8702 148.824 98.4504 143.444 98.4504 143.444L107.475 150.494C110.078 150.922 120.293 149.924 124.868 149.45C126.24 149.304 127.108 149.207 127.108 149.207L128.687 154.761Z" fill="#FDC2CC"/>
<path opacity="0.1" d="M150.567 129.718C150.567 129.718 144.7 125.824 135.883 138.436C127.065 151.048 125.05 149.008 125.05 149.008C125.05 149.008 126.854 154.576 125.952 155.687C125.952 155.687 132.043 155.314 134.299 155.687C136.556 156.059 150.546 141.589 150.546 141.589C150.546 141.589 157.788 133.428 150.567 129.718Z" fill="black"/>
<path opacity="0.1" d="M150.342 128.977C150.342 128.977 144.475 125.082 135.675 137.694C126.875 150.306 124.843 148.267 124.843 148.267C124.843 148.267 131.836 154.573 134.092 154.945C136.348 155.318 150.338 140.847 150.338 140.847C150.338 140.847 157.564 132.687 150.342 128.977Z" fill="black"/>
<path opacity="0.1" d="M125.766 154.493C125.859 153.118 125.228 150.703 124.864 149.45C126.236 149.304 127.103 149.207 127.103 149.207L128.682 154.775L125.766 154.493Z" fill="black"/>
<path d="M150.567 129.346C150.567 129.346 144.7 125.451 135.883 138.067C127.065 150.682 125.05 148.639 125.05 148.639C125.05 148.639 126.854 154.208 125.952 155.318C125.952 155.318 132.043 154.945 134.299 155.318C136.556 155.69 150.546 141.22 150.546 141.22C150.546 141.22 157.788 133.055 150.567 129.346Z" fill="#E1A0A7"/>
<path opacity="0.1" d="M149.005 117.287L138.156 122.476C138.615 123.023 139.039 123.59 139.426 124.174C140.05 124.278 140.685 124.331 141.322 124.331C144.213 124.331 145.555 121.836 147.303 120.155C147.176 118.818 148.505 118.783 149.005 117.287Z" fill="black"/>
<path d="M141.089 123.969C146.323 123.969 150.567 120.48 150.567 116.177C150.567 111.873 146.323 108.385 141.089 108.385C135.855 108.385 131.611 111.873 131.611 116.177C131.611 120.48 135.855 123.969 141.089 123.969Z" fill="#FDC2CC"/>
<path opacity="0.1" d="M129.11 109.874C130.066 109.069 131.307 108.532 132.657 108.343C133.973 108.11 135.417 108.04 136.467 107.348C137.656 106.565 138.189 105.075 139.658 104.741C140.296 104.636 140.958 104.68 141.567 104.866C143.91 105.449 145.991 106.59 147.544 108.145C147.912 108.591 148.38 108.975 148.924 109.276C149.248 109.388 149.565 109.515 149.872 109.655C150.209 109.875 150.474 110.161 150.643 110.487C151.7 112.243 151.944 114.256 151.329 116.149C150.96 117.266 150.3 118.303 149.906 119.417C149.513 120.53 149.415 121.79 150.131 122.786C149.436 123.078 148.56 122.709 148.124 122.177C147.688 121.644 147.557 120.99 147.328 120.374C146.879 119.165 146.032 118.081 144.882 117.242C144.171 116.727 142.901 116.379 142.406 117.043C142.215 117.301 142.228 117.632 142.063 117.9C141.741 118.425 140.793 118.529 140.187 118.248C139.591 117.909 139.173 117.398 139.015 116.817C138.088 114.231 136.501 112.606 133.14 113.709C131.87 114.12 130.409 114.405 129.203 113.709C127.658 112.777 127.967 110.929 129.11 109.874Z" fill="black"/>
<path d="M129.11 109.686C130.066 108.881 131.307 108.344 132.657 108.155C133.973 107.922 135.417 107.852 136.467 107.16C137.656 106.377 138.189 104.887 139.658 104.553C140.296 104.448 140.958 104.492 141.567 104.678C143.91 105.261 145.991 106.402 147.544 107.957C147.912 108.403 148.38 108.787 148.924 109.088C149.248 109.2 149.565 109.327 149.872 109.467C150.209 109.687 150.474 109.973 150.643 110.299C151.7 112.055 151.944 114.068 151.329 115.961C150.96 117.078 150.3 118.115 149.906 119.229C149.513 120.343 149.415 121.602 150.131 122.598C149.436 122.89 148.56 122.521 148.124 121.989C147.688 121.456 147.557 120.802 147.328 120.186C146.879 118.977 146.032 117.893 144.882 117.054C144.171 116.539 142.901 116.191 142.406 116.855C142.215 117.113 142.228 117.444 142.063 117.712C141.741 118.237 140.793 118.341 140.187 118.06C139.591 117.721 139.173 117.21 139.015 116.629C138.088 114.044 136.501 112.418 133.14 113.521C131.87 113.932 130.409 114.218 129.203 113.521C127.658 112.592 127.967 110.744 129.11 109.686Z" fill="#8F5A6A"/>
<path opacity="0.05" d="M151.655 127.4H147.07C147.07 127.4 138.046 131.11 137.821 130.926C137.669 130.8 136.272 131.016 135.387 131.166C135.526 130.753 135.622 130.332 135.675 129.906C138.609 129.721 145.834 125.639 145.834 125.639L151.477 124.898V127.31C151.54 127.334 151.6 127.364 151.655 127.4Z" fill="black"/>
<path opacity="0.3" d="M148.818 236.227C148.805 236.904 148.71 237.577 148.535 238.239C148.535 238.239 129.808 239.352 123.941 238.98C121.118 238.802 119.92 237.936 119.708 237.108C119.45 238.061 120.475 239.317 123.941 239.544C129.808 239.916 148.535 238.802 148.535 238.802C148.755 237.956 148.851 237.092 148.818 236.227Z" fill="white"/>
<g opacity="0.05">
<path opacity="0.05" d="M124.056 167.188C121.012 169.172 118.32 169.973 116.551 170.321C116.551 170.46 116.584 170.595 116.61 170.728C116.61 170.728 120.898 170.912 126.312 167.39C127.151 166.799 128.142 166.373 129.211 166.144C128.03 165.668 126.346 165.699 124.056 167.188Z" fill="black"/>
<path opacity="0.05" d="M154.677 132.408C153.868 130.456 152.696 127.981 151.769 127.397C151.712 127.359 151.649 127.327 151.583 127.303C151.583 127.303 149.716 127.355 149.779 127.397C150.706 127.978 151.612 130.271 152.421 132.22C153.076 133.804 153.245 135.497 152.912 137.148C152.107 141.129 150.372 149.328 148.425 156.424C145.716 166.256 142.782 164.028 141.432 166.44C140.323 168.417 140.877 171.013 141.119 171.887C141.848 172.187 142.648 172.354 143.464 172.377C143.464 172.377 142.334 169.04 143.688 166.628C145.043 164.216 147.976 166.444 150.681 156.612C152.641 149.499 154.364 141.3 155.168 137.336C155.501 135.685 155.332 133.992 154.677 132.408Z" fill="black"/>
</g>
<path d="M180.9 167.06C181.676 166.54 182.241 165.838 182.521 165.048C182.733 164.248 182.318 163.291 181.387 162.998C180.346 162.671 179.232 163.263 178.39 163.865C177.548 164.467 176.578 165.149 175.473 165.02C176.041 164.597 176.466 164.06 176.706 163.462C176.947 162.864 176.995 162.224 176.845 161.606C176.797 161.35 176.666 161.11 176.464 160.91C175.884 160.402 174.839 160.621 174.144 161.022C171.943 162.295 171.329 164.752 171.317 166.966C171.097 166.169 171.283 165.337 171.274 164.53C171.266 163.722 170.995 162.79 170.157 162.365C169.637 162.135 169.053 162.021 168.464 162.034C167.473 162.003 166.373 162.087 165.695 162.682C164.849 163.42 165.073 164.662 165.805 165.466C166.538 166.27 167.647 166.788 168.671 167.352C169.492 167.753 170.192 168.302 170.72 168.956C170.782 169.047 170.833 169.143 170.872 169.242H177.074C178.463 168.66 179.75 167.926 180.9 167.06Z" fill="#10DDC2"/>
<path d="M192.291 232.406C193.277 231.651 194.204 230.76 194.492 229.677C194.78 228.595 194.217 227.294 192.956 226.893C191.546 226.448 190.035 227.241 188.892 228.066C187.749 228.891 186.437 229.806 184.943 229.632C185.712 229.058 186.288 228.33 186.614 227.519C186.939 226.708 187.004 225.841 186.801 225.004C186.735 224.658 186.557 224.333 186.285 224.064C185.501 223.368 184.079 223.671 183.144 224.214C180.181 225.954 179.334 229.27 179.313 232.27C179.012 231.188 179.266 230.06 179.258 228.95C179.249 227.84 178.881 226.611 177.742 226.013C177.033 225.7 176.236 225.546 175.431 225.567C174.089 225.526 172.595 225.637 171.681 226.444C170.542 227.447 170.834 229.128 171.829 230.231C172.824 231.334 174.326 232.027 175.711 232.789C176.822 233.333 177.769 234.077 178.483 234.964C178.568 235.088 178.637 235.218 178.691 235.354H187.101C188.985 234.568 190.731 233.576 192.291 232.406Z" fill="#10DDC2"/>
</g>
<defs>
<linearGradient id="paint0_linear" x1="340.39" y1="214.647" x2="340.39" y2="96.8274" gradientUnits="userSpaceOnUse">
<stop stop-color="#808080" stop-opacity="0.25"/>
<stop offset="0.54" stop-color="#808080" stop-opacity="0.12"/>
<stop offset="1" stop-color="#808080" stop-opacity="0.1"/>
</linearGradient>
<linearGradient id="paint1_linear" x1="24571.5" y1="106821" x2="24571.5" y2="52544.9" gradientUnits="userSpaceOnUse">
<stop stop-color="#808080" stop-opacity="0.25"/>
<stop offset="0.54" stop-color="#808080" stop-opacity="0.12"/>
<stop offset="1" stop-color="#808080" stop-opacity="0.1"/>
</linearGradient>
<clipPath id="clip0">
<rect width="436" height="254" fill="white"/>
</clipPath>
</defs>
</svg>
