<svg width="520" height="283" viewBox="0 0 520 283" fill="none" xmlns="http://www.w3.org/2000/svg">
<g clip-path="url(#clip0)">
<path d="M417.592 263.213C414.217 273.18 402.39 279.408 402.39 279.408C402.39 279.408 396.035 269.478 399.41 259.511C402.786 249.544 414.613 243.315 414.613 243.315C414.613 243.315 420.967 253.246 417.592 263.213Z" fill="#15B7B9"/>
<path d="M412.473 261.105C403.019 268.347 401.962 279.403 401.962 279.403C401.962 279.403 416.231 278.716 425.684 271.474C435.138 264.232 436.196 253.176 436.196 253.176C436.196 253.176 421.926 253.862 412.473 261.105Z" fill="#10DDC2"/>
<path d="M69.9417 225.51H87.745L131.618 212.198C131.618 212.198 162.773 202.337 160.23 221.073C157.687 239.809 153.236 264.954 153.236 264.954C153.236 264.954 139.248 260.024 131.618 261.503C123.988 262.982 129.074 231.427 129.074 231.427C129.074 231.427 66.7625 254.6 61.04 251.642C55.3175 248.684 54.0458 227.976 54.0458 227.976L69.9417 225.51Z" fill="#2F2E41"/>
<path opacity="0.1" d="M69.9417 225.51H87.745L131.618 212.198C131.618 212.198 162.773 202.337 160.23 221.073C157.687 239.809 153.236 264.954 153.236 264.954C153.236 264.954 139.248 260.024 131.618 261.503C123.988 262.982 129.074 231.427 129.074 231.427C129.074 231.427 66.7625 254.6 61.04 251.642C55.3175 248.684 54.0458 227.976 54.0458 227.976L69.9417 225.51Z" fill="black"/>
<path d="M97.991 182.277L119.537 206.282L169.768 238.823C169.768 238.823 216.183 247.204 209.825 253.121C203.467 259.037 164.681 247.204 164.681 247.204C164.681 247.204 106.82 214.663 104.913 212.198C103.005 209.733 82.0225 186.56 82.0225 186.56L97.991 182.277Z" fill="#A0616A"/>
<path opacity="0.1" d="M97.991 182.277L119.537 206.282L169.768 238.823C169.768 238.823 216.183 247.204 209.825 253.121C203.467 259.037 164.681 247.204 164.681 247.204C164.681 247.204 106.82 214.663 104.913 212.198C103.005 209.733 82.0225 186.56 82.0225 186.56L97.991 182.277Z" fill="black"/>
<path d="M85.2017 162.894L99.19 184.095C99.19 184.095 96.0109 194.449 90.9242 195.435C85.8375 196.421 64.2192 182.616 64.2192 182.616L85.2017 162.894Z" fill="#D0CDE1"/>
<path opacity="0.1" d="M85.2017 162.894L99.19 184.095C99.19 184.095 96.0109 194.449 90.9242 195.435C85.8375 196.421 64.2192 182.616 64.2192 182.616L85.2017 162.894Z" fill="black"/>
<path d="M255.853 214.533L259.985 227.75C260.032 227.898 260.024 228.052 259.965 228.196L241.221 273.617C241.147 273.797 240.995 273.951 240.792 274.055C240.588 274.159 240.345 274.205 240.103 274.187C239.86 274.168 239.633 274.086 239.46 273.953C239.286 273.821 239.177 273.646 239.149 273.459L236.556 255.764C236.539 255.647 236.555 255.528 236.602 255.416L253.807 214.472C253.878 214.301 254.02 214.153 254.21 214.051C254.4 213.948 254.628 213.896 254.86 213.903C255.091 213.91 255.314 213.975 255.493 214.089C255.672 214.203 255.799 214.359 255.853 214.533Z" fill="#2F2E41"/>
<path d="M254.334 215.65L258.148 226.99L241.617 268.405L237.802 255.586L254.334 215.65Z" fill="#F2F2F2"/>
<path d="M171.039 277.28C171.675 278.759 237.166 276.787 237.802 276.294C238.356 275.677 238.825 275.016 239.201 274.322C239.798 273.336 240.345 272.35 240.345 272.35L237.802 256.385L172.947 254.6C172.947 254.6 171.325 268.129 170.995 274.322C170.912 275.885 170.912 276.984 171.039 277.28Z" fill="#2F2E41"/>
<path opacity="0.1" d="M229.536 258.545L230.807 272.35H202.195V258.545H229.536Z" fill="black"/>
<path opacity="0.1" d="M192.658 262.982L192.828 262.955L192.022 268.898H176.126V262.982H192.658Z" fill="black"/>
<path opacity="0.1" d="M171.039 277.28C171.675 278.759 237.166 276.787 237.802 276.294C238.356 275.677 238.825 275.016 239.201 274.322H170.995C170.912 275.885 170.912 276.984 171.039 277.28Z" fill="black"/>
<path d="M94.7392 155.991C110.541 155.991 123.352 146.058 123.352 133.804C123.352 121.55 110.541 111.617 94.7392 111.617C78.937 111.617 66.1267 121.55 66.1267 133.804C66.1267 146.058 78.937 155.991 94.7392 155.991Z" fill="#A0616A"/>
<path d="M92.8317 153.526C92.8317 153.526 83.2942 166.345 81.3867 173.248C79.4792 180.15 52.7742 159.442 52.7742 159.442L49.2771 152.293C49.2771 152.293 74.3925 143.172 72.485 135.776C70.5775 128.381 92.8317 153.526 92.8317 153.526Z" fill="#A0616A"/>
<path d="M97.9184 191.983L123.988 218.608L186.299 254.6C186.299 254.6 231.443 261.996 221.27 267.419C211.097 272.843 181.848 262.489 181.848 262.489C181.848 262.489 118.901 236.357 105.548 225.51C92.1959 214.663 67.3984 196.421 67.3984 196.421L97.9184 191.983Z" fill="#A0616A"/>
<path d="M62.9475 233.399L70.5775 242.767L116.114 231.658C126.106 229.221 137.062 230.117 145.924 234.447C153.872 238.33 158.958 244.493 147.513 253.614C124.623 271.857 109.363 261.996 109.363 261.996C109.363 261.996 32.4275 290.099 19.7108 276.294C6.99415 262.489 6.35834 255.586 6.35834 255.586C6.35834 255.586 55.3175 231.92 62.9475 233.399Z" fill="#2F2E41"/>
<path d="M158.323 265.94C158.323 265.94 178.669 276.294 154.508 281.224C130.346 286.155 112.543 279.252 112.543 279.252C112.543 279.252 91.5601 279.252 91.5601 270.871C91.5601 262.489 98.5542 261.503 98.5542 261.503L120.173 263.968C120.173 263.968 146.242 258.544 158.323 265.94Z" fill="#D0CDE1"/>
<path d="M118.211 128.223C120.159 128.896 122.09 129.693 124.207 129.888C126.324 130.084 128.735 129.51 129.737 128.051C130.279 127.263 130.34 126.335 130.366 125.443C130.442 122.735 130.19 119.808 127.977 117.713C126.569 116.38 124.513 115.539 123.056 114.238C122.012 113.306 121.317 112.176 120.568 111.086C117.733 106.958 113.536 102.99 107.703 101.8C105.268 101.303 102.712 101.327 100.194 101.355L85.5047 101.515C83.1276 101.541 80.7139 101.571 78.4383 102.105C73.7102 103.213 70.2677 106.297 67.1149 109.245C64.7561 111.451 62.391 113.68 60.6208 116.195C58.0827 119.866 56.7993 123.979 56.8929 128.144C56.8732 129.212 57.0511 130.276 57.421 131.305C57.8537 132.249 58.3899 133.162 59.0235 134.035C61.7783 138.23 63.4139 143.471 60.3116 147.518C65.7006 145.811 71.0328 143.573 74.5877 139.998C76.178 138.399 77.4252 136.527 79.5446 135.354C81.664 134.18 85.1174 134.079 86.4772 135.801C86.9446 136.497 87.1852 137.272 87.1783 138.058C87.2776 139.35 87.2749 140.693 87.9817 141.866C88.6885 143.039 90.3722 143.986 91.9797 143.635C94.7481 143.03 94.483 139.736 96.6152 138.239C98.2346 137.102 100.733 137.32 102.813 136.804C105.237 136.203 107.056 134.574 108.092 132.772C108.88 131.402 108.868 127.817 110.359 127.075C112.228 126.145 116.479 127.624 118.211 128.223Z" fill="#2F2E41"/>
<path d="M47.0058 149.954C48.293 149.688 49.6481 149.691 50.9336 149.962C55.0151 150.812 64.1649 153.061 66.1267 156.484C68.67 160.922 77.5717 167.824 77.5717 167.824C77.5717 167.824 89.6525 177.192 87.1092 183.602C84.5658 190.011 75.0283 197.407 75.0283 197.407C75.0283 197.407 77.5717 227.976 64.855 235.864C52.1383 243.753 47.0517 238.33 47.0517 245.725C47.0517 253.121 7.63001 276.294 0 261.996C0 261.996 3.815 235.371 2.54334 226.003C1.29001 216.771 3.12481 159.166 47.0058 149.954Z" fill="#D0CDE1"/>
<path d="M67.3984 162.401C67.3984 162.401 106.184 184.588 99.19 193.956C99.19 193.956 75.6642 202.83 70.5775 202.337C65.4909 201.844 45.78 184.588 40.6933 183.109C35.6067 181.629 33.0633 155.005 67.3984 162.401Z" fill="#D0CDE1"/>
<path d="M240.686 113.337C258.033 113.337 272.096 102.432 272.096 88.9805C272.096 75.5286 258.033 64.6237 240.686 64.6237C223.338 64.6237 209.275 75.5286 209.275 88.9805C209.275 102.432 223.338 113.337 240.686 113.337Z" fill="#F5F5F5"/>
<path d="M500.122 57.3476H324.102V28.7865H500.122V57.3476ZM324.877 56.7463H499.347V29.3878H324.877V56.7463Z" fill="#3F3D56"/>
<path d="M487.328 34.4987H312.083V62.4585H487.328V34.4987Z" fill="#10DDC2"/>
<path d="M201.302 7.81672C202.801 7.81672 204.016 6.87449 204.016 5.71219C204.016 4.54989 202.801 3.60767 201.302 3.60767C199.803 3.60767 198.588 4.54989 198.588 5.71219C198.588 6.87449 199.803 7.81672 201.302 7.81672Z" fill="#10DDC2"/>
<path d="M210.607 7.81672C212.106 7.81672 213.321 6.87449 213.321 5.71219C213.321 4.54989 212.106 3.60767 210.607 3.60767C209.108 3.60767 207.893 4.54989 207.893 5.71219C207.893 6.87449 209.108 7.81672 210.607 7.81672Z" fill="#10DDC2"/>
<path d="M219.912 7.81672C221.411 7.81672 222.626 6.87449 222.626 5.71219C222.626 4.54989 221.411 3.60767 219.912 3.60767C218.413 3.60767 217.198 4.54989 217.198 5.71219C217.198 6.87449 218.413 7.81672 219.912 7.81672Z" fill="#10DDC2"/>
<path d="M520 164.752H193.548V0H520V164.752ZM194.323 164.151H519.225V0.601286H194.323V164.151Z" fill="#3F3D56"/>
<path d="M519.612 9.11996H193.936V9.72125H519.612V9.11996Z" fill="#3F3D56"/>
<path d="M202.077 7.21544C201.464 7.21544 200.864 7.07438 200.354 6.8101C199.844 6.54582 199.447 6.17018 199.212 5.7307C198.977 5.29122 198.916 4.80763 199.035 4.34107C199.155 3.87452 199.45 3.44597 199.884 3.1096C200.318 2.77324 200.871 2.54417 201.472 2.45137C202.074 2.35856 202.698 2.40619 203.264 2.58823C203.831 2.77027 204.316 3.07855 204.656 3.47407C204.997 3.86959 205.179 4.3346 205.179 4.81029C205.178 5.44795 204.851 6.05928 204.27 6.51017C203.688 6.96106 202.9 7.2147 202.077 7.21544ZM202.077 3.00644C201.617 3.00644 201.168 3.11223 200.785 3.31044C200.402 3.50865 200.104 3.79038 199.928 4.11999C199.752 4.4496 199.706 4.8123 199.796 5.16221C199.886 5.51212 200.107 5.83354 200.432 6.08581C200.758 6.33809 201.172 6.50989 201.624 6.57949C202.075 6.64909 202.543 6.61337 202.968 6.47684C203.393 6.34031 203.756 6.10911 204.012 5.81246C204.267 5.51582 204.404 5.16706 204.404 4.81029C204.403 4.33205 204.158 3.87356 203.722 3.53539C203.285 3.19722 202.694 3.00699 202.077 3.00644Z" fill="#3F3D56"/>
<path d="M211.382 7.21544C210.769 7.21544 210.169 7.07438 209.659 6.8101C209.149 6.54582 208.752 6.17018 208.517 5.7307C208.282 5.29122 208.221 4.80763 208.34 4.34107C208.46 3.87452 208.756 3.44597 209.189 3.1096C209.623 2.77324 210.176 2.54417 210.777 2.45137C211.379 2.35856 212.003 2.40619 212.569 2.58823C213.136 2.77027 213.621 3.07855 213.961 3.47407C214.302 3.86959 214.484 4.3346 214.484 4.81029C214.483 5.44795 214.156 6.05928 213.575 6.51017C212.993 6.96106 212.205 7.2147 211.382 7.21544ZM211.382 3.00644C210.922 3.00644 210.473 3.11223 210.09 3.31044C209.708 3.50865 209.409 3.79038 209.233 4.11999C209.057 4.4496 209.011 4.8123 209.101 5.16221C209.191 5.51212 209.412 5.83354 209.738 6.08581C210.063 6.33809 210.477 6.50989 210.929 6.57949C211.38 6.64909 211.848 6.61337 212.273 6.47684C212.698 6.34031 213.061 6.10911 213.317 5.81246C213.572 5.51582 213.709 5.16706 213.709 4.81029C213.708 4.33205 213.463 3.87356 213.027 3.53539C212.591 3.19722 211.999 3.00699 211.382 3.00644Z" fill="#3F3D56"/>
<path d="M220.688 7.21543C220.074 7.21543 219.474 7.07438 218.964 6.8101C218.454 6.54582 218.057 6.17019 217.822 5.73071C217.587 5.29122 217.526 4.80763 217.645 4.34108C217.765 3.87452 218.061 3.44597 218.494 3.1096C218.928 2.77324 219.481 2.54417 220.082 2.45137C220.684 2.35856 221.308 2.40619 221.875 2.58823C222.441 2.77027 222.926 3.07854 223.267 3.47406C223.607 3.86959 223.789 4.3346 223.789 4.81029C223.788 5.44795 223.461 6.05927 222.88 6.51017C222.298 6.96106 221.51 7.21469 220.688 7.21543ZM220.688 3.00644C220.227 3.00644 219.778 3.11223 219.395 3.31044C219.013 3.50865 218.714 3.79037 218.538 4.11999C218.362 4.4496 218.316 4.81229 218.406 5.1622C218.496 5.51212 218.717 5.83354 219.043 6.08581C219.368 6.33809 219.782 6.50989 220.234 6.57949C220.685 6.64909 221.153 6.61337 221.578 6.47684C222.003 6.34031 222.366 6.1091 222.622 5.81246C222.877 5.51582 223.014 5.16706 223.014 4.81029C223.013 4.33205 222.768 3.87356 222.332 3.53539C221.896 3.19722 221.304 3.00699 220.688 3.00644Z" fill="#3F3D56"/>
<path d="M296.573 9.42062H295.797V164.685H296.573V9.42062Z" fill="#3F3D56"/>
<path d="M389.819 85.7583H332.825V91.7712H389.819V85.7583Z" fill="#F2F2F2"/>
<path d="M479.38 85.7583H422.386V91.7712H479.38V85.7583Z" fill="#F2F2F2"/>
<path d="M393.308 89.0654H335.539V82.4512H393.308V89.0654ZM336.315 88.4641H392.533V83.0525H336.315V88.4641Z" fill="#3F3D56"/>
<path d="M389.819 132.358H332.825V138.371H389.819V132.358Z" fill="#F2F2F2"/>
<path d="M393.308 135.665H335.539V129.051H393.308V135.665ZM336.315 135.064H392.533V129.652H336.315V135.064Z" fill="#3F3D56"/>
<path d="M479.574 108.457H333.019V114.47H479.574V108.457Z" fill="#F2F2F2"/>
<path d="M483.063 112.365H335.733V105.751H483.063V112.365ZM336.508 111.764H482.288V106.352H336.508V111.764Z" fill="#3F3D56"/>
<path d="M482.869 89.0654H425.1V82.4512H482.869V89.0654ZM425.876 88.4641H482.094V83.0525H425.876V88.4641Z" fill="#3F3D56"/>
<path d="M246.001 106.967C239.693 106.967 233.527 105.517 228.282 102.799C223.037 100.082 218.949 96.2191 216.535 91.6999C214.121 87.1808 213.49 82.2081 214.72 77.4107C215.951 72.6132 218.988 68.2065 223.449 64.7477C227.909 61.2889 233.592 58.9334 239.779 57.9792C245.966 57.0249 252.379 57.5147 258.207 59.3865C264.034 61.2584 269.016 64.4283 272.52 68.4954C276.025 72.5625 277.895 77.3441 277.895 82.2356C277.886 88.7925 274.522 95.0788 268.543 99.7153C262.564 104.352 254.457 106.96 246.001 106.967ZM246.001 58.2534C239.884 58.2534 233.905 59.6599 228.819 62.2951C223.733 64.9303 219.769 68.6758 217.428 73.058C215.087 77.4402 214.475 82.2622 215.668 86.9143C216.861 91.5663 219.807 95.8396 224.132 99.1935C228.458 102.547 233.968 104.832 239.968 105.757C245.967 106.682 252.186 106.207 257.837 104.392C263.488 102.577 268.318 99.5032 271.717 95.5593C275.115 91.6155 276.929 86.9788 276.929 82.2356C276.92 75.8773 273.658 69.7815 267.86 65.2856C262.062 60.7896 254.201 58.2606 246.001 58.2534Z" fill="#3F3D56"/>
<path d="M498.254 278.964H361.496V279.714H498.254V278.964Z" fill="#3F3D56"/>
</g>
<defs>
<clipPath id="clip0">
<rect width="520" height="283" fill="white"/>
</clipPath>
</defs>
</svg>
