<svg width="361" height="203" viewBox="0 0 361 203" fill="none" xmlns="http://www.w3.org/2000/svg">
<g clip-path="url(#clip0)">
<path d="M250.12 91.8384L252.364 91.0888C252.579 91.0166 252.791 90.9388 253.016 90.8639C248.862 89.5605 245.351 87.0912 243.062 83.8622C240.774 80.6332 239.842 76.8366 240.421 73.0966C241.001 69.3566 243.056 65.896 246.25 63.2836C249.444 60.6712 253.585 59.0626 257.994 58.7223L256.431 65.441L262.367 58.8H262.419C267.543 59.4003 272.178 61.7103 275.304 65.2221C278.43 68.7338 279.791 73.1597 279.088 77.5264C279.039 77.8401 278.961 78.1455 278.892 78.4537C280.72 77.2237 282.434 75.8661 283.717 74.2892C286.324 71.0853 287.207 67.1373 288.106 62.3037C289.888 52.7309 291.494 43.0526 292.941 33.3799C288.499 32.2378 284.681 29.7831 282.172 26.4569C279.664 23.1308 278.63 19.1513 279.257 15.2338C279.338 14.7285 279.452 14.2371 279.583 13.7512C279.615 13.629 279.648 13.5069 279.684 13.3875C279.824 12.9183 279.98 12.4574 280.163 11.9993C280.192 11.9244 280.231 11.855 280.26 11.7828C280.423 11.4024 280.586 11.0276 280.798 10.6722C280.87 10.5334 280.941 10.3946 281.016 10.2641C281.241 9.8671 281.479 9.47841 281.74 9.10083C281.828 8.9759 281.922 8.85651 282.01 8.73158C282.212 8.45395 282.424 8.17631 282.642 7.91811C282.759 7.7793 282.874 7.64048 282.994 7.50444L283.082 7.39616C285.848 4.31076 289.796 2.14901 294.239 1.28672C298.682 0.424443 303.339 0.916161 307.401 2.6764L305.368 11.4191L311.232 4.85582C314.387 7.13314 316.604 10.2102 317.561 13.6376C318.517 17.0651 318.163 20.6634 316.549 23.907H316.572C316.517 24.0181 316.448 24.1236 316.393 24.2346C316.286 24.4401 316.175 24.6427 316.067 24.8454C315.917 25.1036 315.741 25.3563 315.595 25.6061C315.471 25.7949 315.35 25.9837 315.217 26.1614C315.025 26.439 314.816 26.6889 314.608 26.9471C314.484 27.097 314.37 27.2525 314.243 27.3997C313.917 27.7856 313.552 28.1548 313.181 28.5102C313.05 28.6351 312.91 28.7489 312.773 28.8711C312.509 29.1099 312.245 29.3459 311.965 29.5707C311.793 29.7096 311.61 29.8484 311.431 29.9761C311.174 30.1704 310.91 30.3592 310.639 30.5314C310.447 30.6618 310.252 30.7868 310.056 30.9089C309.773 31.0838 309.486 31.2477 309.196 31.4115C309 31.5197 308.805 31.628 308.606 31.7307C308.28 31.9001 307.938 32.0556 307.596 32.2083C307.423 32.2832 307.27 32.3665 307.078 32.4387C306.563 32.6525 306.036 32.8496 305.498 33.0245C305.397 33.0578 305.289 33.0828 305.188 33.1133C304.739 33.2522 304.286 33.391 303.826 33.4882C303.628 33.5354 303.426 33.5742 303.224 33.6159C302.849 33.6936 302.471 33.7658 302.09 33.8269C301.873 33.8602 301.648 33.8907 301.415 33.9185C301.041 33.9657 300.663 34.0018 300.282 34.0295C300.057 34.0462 299.835 34.0629 299.607 34.074C299.197 34.0906 298.783 34.0934 298.369 34.0906C298.342 34.0892 298.315 34.0892 298.288 34.0906C297.675 38.1626 297.032 42.2345 296.359 46.3065C297.939 44.4888 299.938 42.9653 302.234 41.8295C304.529 40.6936 307.073 39.9693 309.709 39.7011C312.345 39.4328 315.017 39.6262 317.562 40.2693C320.107 40.9125 322.471 41.9919 324.509 43.4413L319.4 50.8208L327.614 46.2149C330.72 49.7173 332.067 54.1268 331.361 58.4752C331.12 60.0019 330.626 61.4919 329.895 62.9006C328.327 65.9509 325.719 68.5293 322.41 70.301C319.101 72.0727 315.244 72.956 311.338 72.8363C307.433 72.7165 303.66 71.5993 300.509 69.6296C297.358 67.6598 294.974 64.9285 293.668 61.7901C293.593 62.201 293.521 62.623 293.446 63.0283C292.651 67.29 291.664 72.5956 288.158 76.91C285.783 79.8418 282.512 82.0074 279.332 83.9119C277.264 85.152 275.148 86.3338 272.985 87.4573C270.714 89.2516 267.975 90.5593 264.993 91.272C261.518 92.7879 257.967 94.1585 254.342 95.3838L252.078 96.1389C250.041 96.8163 247.956 97.5104 245.887 98.2489C246.213 98.2739 246.539 98.2961 246.865 98.3322C250.964 98.8119 254.779 100.39 257.757 102.837C260.736 105.285 262.724 108.476 263.436 111.95L249.65 118.366L263.393 117.842C262.843 120.438 261.567 122.884 259.672 124.971C256.565 128.399 252.01 130.658 246.977 131.266C241.945 131.875 236.832 130.786 232.728 128.231L233.412 129.316C233.868 130.032 234.318 130.746 234.754 131.454C240.726 141.099 241.16 149.428 235.976 154.911L231.741 152.01C236.787 146.674 232.783 138.192 229.949 133.611C229.519 132.917 229.075 132.223 228.645 131.512C224.811 125.451 220.461 118.583 222.204 111.273C224.811 100.251 238.837 95.5864 250.12 91.8384Z" fill="#F2F2F2"/>
<path d="M87.8389 144.095L86.0861 143.509C85.9167 143.453 85.7603 143.389 85.5843 143.334C88.8276 142.315 91.5676 140.386 93.3541 137.864C95.1405 135.342 95.8672 132.377 95.4146 129.457C94.9621 126.537 93.3573 123.834 90.8638 121.794C88.3704 119.754 85.1367 118.497 81.6941 118.23L82.9159 123.477L78.2829 118.291H78.2405C76.2576 118.522 74.3475 119.083 72.6192 119.943C70.891 120.803 69.3785 121.945 68.1683 123.303C66.958 124.662 66.0737 126.21 65.5657 127.859C65.0578 129.509 64.9362 131.227 65.208 132.917C65.2471 133.164 65.309 133.4 65.3612 133.642C63.9237 132.721 62.6544 131.623 61.5948 130.385C59.565 127.886 58.8677 124.799 58.164 121.026C56.7858 113.549 55.5347 105.992 54.4106 98.4461C57.8784 97.5527 60.8586 95.6348 62.8157 93.0369C64.7727 90.439 65.5782 87.3315 65.0875 84.2729C65.0223 83.8786 64.9343 83.4955 64.8301 83.1151L64.7519 82.8375C64.6411 82.471 64.5206 82.1101 64.3772 81.7603C64.3544 81.702 64.3251 81.6465 64.299 81.5909C64.1719 81.2939 64.0318 81.0023 63.882 80.7164C63.8233 80.6109 63.7679 80.5026 63.7093 80.3971C63.5333 80.0889 63.3476 79.7863 63.1456 79.492C63.0772 79.3921 63.0023 79.2977 62.9339 79.2144C62.7742 78.9978 62.608 78.7841 62.4386 78.5786C62.3474 78.4703 62.2594 78.3593 62.1649 78.2538L62.0965 78.1705C59.936 75.7612 56.854 74.0723 53.385 73.3968C49.9161 72.7213 46.2791 73.1019 43.1049 74.4724L44.6949 81.3022L40.1107 76.1771C37.6474 77.9558 35.9157 80.3588 35.1684 83.0354C34.4211 85.712 34.6972 88.5221 35.9566 91.0555H35.9403C35.9827 91.1415 36.0348 91.2248 36.0804 91.3109C36.1651 91.4719 36.2498 91.6301 36.3411 91.7884C36.4583 91.9883 36.5822 92.1854 36.7125 92.3798C36.807 92.5297 36.9015 92.6768 37.0057 92.8212C37.1556 93.0294 37.3315 93.2321 37.4814 93.4348C37.5791 93.5514 37.6671 93.6735 37.7681 93.7874C38.0288 94.0872 38.3057 94.3759 38.5957 94.6564C38.6967 94.7535 38.8075 94.8424 38.9215 94.934C39.1268 95.12 39.3353 95.3032 39.5536 95.4893C39.6871 95.6003 39.8305 95.703 39.9706 95.8058C40.1726 95.9594 40.3779 96.1065 40.5864 96.2472C40.7363 96.3471 40.8894 96.4443 41.0425 96.5415C41.2641 96.6775 41.4889 96.8191 41.7137 96.9329C41.8668 97.019 42.02 97.1023 42.1764 97.1828C42.4337 97.3161 42.6977 97.4355 42.9648 97.5549C43.1017 97.6159 43.232 97.6798 43.3688 97.7381C43.7728 97.9047 44.1834 98.0574 44.6037 98.1934C44.6819 98.2212 44.7666 98.2378 44.8448 98.2628C45.1934 98.3711 45.5485 98.471 45.9102 98.5571C46.0633 98.5932 46.236 98.6237 46.3793 98.6543C46.6726 98.7154 46.9658 98.7737 47.2655 98.8209L47.7901 98.893C48.0833 98.9291 48.3798 98.9569 48.6763 98.9791C48.8522 98.993 49.0249 99.0041 49.2041 99.0124C49.5299 99.0263 49.8558 99.0291 50.1816 99.0263H50.2435C50.7213 102.214 51.2231 105.398 51.7487 108.58C50.517 107.158 48.9572 105.966 47.1652 105.076C45.3733 104.187 43.3869 103.619 41.328 103.407C39.2692 103.196 37.1813 103.345 35.1925 103.846C33.2037 104.347 31.3561 105.188 29.7629 106.32L33.7183 112.05L27.3063 108.455C26.1036 109.809 25.2256 111.351 24.7225 112.994C24.2193 114.637 24.1009 116.348 24.374 118.03C24.5631 119.224 24.9504 120.389 25.5241 121.49C26.7488 123.872 28.7854 125.885 31.3696 127.269C33.9538 128.652 36.9663 129.342 40.0163 129.249C43.0662 129.155 46.0129 128.283 48.4739 126.745C50.9349 125.207 52.7967 123.074 53.8176 120.623C53.8763 120.943 53.9317 121.268 53.9903 121.59C54.6094 124.921 55.3815 129.063 58.1183 132.439C59.9755 134.727 62.5298 136.418 65.0125 137.906C66.6286 138.876 68.2804 139.801 69.9681 140.682C71.7425 142.084 73.8821 143.106 76.2107 143.664C78.9215 144.847 81.6974 145.924 84.532 146.874L86.2979 147.465C87.8878 147.993 89.5169 148.534 91.1231 149.111C90.869 149.131 90.6116 149.147 90.3542 149.178C87.154 149.552 84.176 150.782 81.8499 152.692C79.5238 154.602 77.9701 157.092 77.413 159.803L88.1648 164.8L77.4325 164.392C77.905 166.55 79.0113 168.57 80.6481 170.264C82.2849 171.958 84.3989 173.272 86.7926 174.081C89.1864 174.891 91.7818 175.17 94.3367 174.894C96.8915 174.617 99.3225 173.793 101.403 172.499C101.223 172.777 101.047 173.054 100.868 173.346C100.513 173.901 100.161 174.457 99.8191 175.012C95.1567 182.544 94.8178 189.052 98.8677 193.336L102.168 191.07C98.2258 186.906 101.354 180.279 103.569 176.7C103.895 176.158 104.25 175.611 104.599 175.062C107.593 170.342 110.988 164.964 109.636 159.253C107.612 150.663 96.6489 147.032 87.8389 144.095Z" fill="#F2F2F2"/>
<path d="M180.5 203C280.187 203 361 200.079 361 196.476C361 192.872 280.187 189.951 180.5 189.951C80.8126 189.951 0 192.872 0 196.476C0 200.079 80.8126 203 180.5 203Z" fill="#3F3D56"/>
<path opacity="0.1" d="M180.5 203C280.187 203 361 200.079 361 196.476C361 192.872 280.187 189.951 180.5 189.951C80.8126 189.951 0 192.872 0 196.476C0 200.079 80.8126 203 180.5 203Z" fill="black"/>
<path d="M180.5 199.391C280.187 199.391 361 196.47 361 192.866C361 189.263 280.187 186.342 180.5 186.342C80.8126 186.342 0 189.263 0 192.866C0 196.47 80.8126 199.391 180.5 199.391Z" fill="#3F3D56"/>
<path d="M27.6941 190.545C26.7166 189.016 27.8244 187.142 29.0885 185.776C30.3527 184.41 31.8938 182.999 31.8612 181.253C31.8156 178.754 28.7008 177.28 26.2149 175.956C24.3703 174.972 22.6687 173.806 21.1452 172.483C20.5085 171.972 19.9814 171.371 19.5878 170.706C19.0731 169.728 19.0894 168.618 19.1219 167.546C19.2305 163.981 19.4369 160.42 19.741 156.863" stroke="#3F3D56" stroke-width="4" stroke-miterlimit="10"/>
<path d="M15.0232 156.666C15.0584 156.014 15.2858 155.38 15.6844 154.822C16.083 154.264 16.6399 153.801 17.3039 153.476L18.3269 155.2L18.2976 153.112C18.7855 152.988 19.2944 152.936 19.8029 152.957C20.7031 152.994 21.5701 153.258 22.2945 153.715C23.0188 154.172 23.568 154.802 23.8728 155.525C24.1775 156.247 24.2241 157.031 24.0068 157.776C23.7894 158.522 23.3177 159.195 22.6513 159.713C21.985 160.23 21.1537 160.567 20.2625 160.682C19.3714 160.797 18.4602 160.684 17.6441 160.358C16.828 160.032 16.1435 159.508 15.6771 158.85C15.2106 158.193 14.9831 157.433 15.0232 156.666Z" fill="#10DDC2"/>
<path d="M23.1782 183.041C23.6326 183.812 24.3749 184.432 25.2882 184.803C26.2015 185.175 27.2339 185.277 28.2229 185.094C29.212 184.911 30.1014 184.453 30.7512 183.791C31.401 183.13 31.7743 182.304 31.8123 181.442C31.8448 180.903 31.7438 180.365 31.5158 179.862C31.188 179.118 30.6004 178.477 29.8322 178.026C29.0639 177.576 28.152 177.336 27.2192 177.341C26.2864 177.345 25.3777 177.594 24.6156 178.052C23.8534 178.51 23.2744 179.156 22.9567 179.904L25.8141 181.883L22.6732 181.261C22.6715 181.88 22.8447 182.491 23.1782 183.041Z" fill="#10DDC2"/>
<path d="M25.4362 175.475C26.5756 175.549 27.7059 175.255 28.6034 174.653C29.5009 174.05 30.1003 173.182 30.283 172.221C30.4657 171.26 30.2183 170.275 29.5899 169.462C28.9615 168.649 27.9977 168.066 26.8893 167.829L26.9121 169.437L25.876 167.691C24.6641 167.642 23.4794 168.006 22.5824 168.702C21.6854 169.399 21.1497 170.37 21.0931 171.403C21.0365 172.435 21.4637 173.445 22.2806 174.209C23.0975 174.973 24.2373 175.43 25.4492 175.478L25.4362 175.475Z" fill="#10DDC2"/>
<path d="M14.3357 169.181C14.9347 169.205 15.5334 169.129 16.0977 168.956C16.6619 168.783 17.1806 168.516 17.6241 168.173C18.0676 167.829 18.4273 167.414 18.6826 166.951C18.9379 166.489 19.0839 165.988 19.1121 165.478C19.1404 164.967 19.0504 164.457 18.8472 163.976C18.6441 163.496 18.3318 163.054 17.9282 162.676C17.5246 162.298 17.0376 161.991 16.495 161.774C15.9524 161.556 15.3648 161.432 14.7658 161.408C13.9107 161.371 13.061 161.543 12.3157 161.902L13.1237 163.79L11.4588 162.429C10.5683 163.124 10.0376 164.092 9.98287 165.12C9.96079 165.479 10.0003 165.839 10.1002 166.189C10.3276 167.012 10.8643 167.75 11.6287 168.29C12.3932 168.831 13.3436 169.143 14.3357 169.181Z" fill="#10DDC2"/>
<path opacity="0.1" d="M15.639 157.704C16.6946 157.804 17.721 158.084 18.7798 158.14C19.8387 158.196 21.0019 157.979 21.6731 157.279C22.0347 156.899 22.2139 156.421 22.5169 156.011C22.8071 155.627 23.2031 155.309 23.6703 155.086C23.9462 155.577 24.0978 156.113 24.1152 156.657C24.1326 157.202 24.0155 157.744 23.7715 158.247C23.5275 158.751 23.162 159.205 22.6987 159.58C22.2354 159.956 21.6846 160.244 21.0822 160.426C20.4798 160.608 19.8391 160.681 19.2017 160.639C18.5643 160.596 17.9445 160.44 17.3824 160.181C16.8203 159.921 16.3285 159.564 15.9389 159.132C15.5494 158.7 15.2707 158.203 15.121 157.674C15.2937 157.679 15.4663 157.69 15.639 157.704Z" fill="black"/>
<path opacity="0.1" d="M14.3358 169.181C15.1244 169.216 15.9099 169.075 16.6154 168.772C17.321 168.47 17.9224 168.017 18.3607 167.457C18.7991 166.898 19.0595 166.251 19.1164 165.58C19.1733 164.909 19.0248 164.236 18.6854 163.629C18.3224 163.838 18.0104 164.104 17.7666 164.414C17.4408 164.834 17.242 165.317 16.8608 165.703C16.1473 166.416 14.932 166.649 13.8275 166.605C12.723 166.561 11.6576 166.297 10.5694 166.211C10.4163 166.211 10.2631 166.189 10.11 166.186C10.3363 167.009 10.8713 167.746 11.6338 168.287C12.3964 168.828 13.3449 169.142 14.3358 169.181Z" fill="black"/>
<path opacity="0.1" d="M25.4362 175.475C26.2178 175.51 26.9966 175.372 27.6976 175.076C28.3986 174.779 28.9984 174.334 29.4392 173.783C29.88 173.232 30.147 172.594 30.2146 171.929C30.2821 171.265 30.1479 170.597 29.8249 169.989C29.445 170.2 29.1137 170.468 28.8475 170.781C28.4924 171.208 28.2708 171.7 27.8701 172.094C27.1011 172.827 25.8044 173.085 24.6348 173.06C23.4651 173.035 22.4127 172.802 21.2854 172.73C21.5606 173.496 22.1071 174.171 22.8502 174.663C23.5933 175.155 24.4965 175.438 25.4362 175.475Z" fill="black"/>
<path opacity="0.1" d="M23.1783 183.041C23.6327 183.812 24.375 184.432 25.2883 184.803C26.2016 185.175 27.234 185.277 28.223 185.094C29.2121 184.911 30.1015 184.453 30.7513 183.791C31.4011 183.13 31.7744 182.304 31.8124 181.442C31.8449 180.903 31.7439 180.365 31.5159 179.862C31.1392 180.072 30.801 180.328 30.5124 180.623C30.0758 181.075 29.7923 181.586 29.2873 182.011C28.3522 182.794 26.8437 183.121 25.5014 183.146C24.7253 183.149 23.9497 183.114 23.1783 183.041Z" fill="black"/>
<path d="M34.598 188.785C34.598 188.785 30.988 188.691 29.903 188.03C28.8181 187.369 24.3642 186.581 24.0808 187.641C23.7973 188.702 18.656 192.916 22.7319 192.933C26.8078 192.95 32.2 192.378 33.2849 191.822C34.3699 191.267 34.598 188.785 34.598 188.785Z" fill="#656380"/>
<path opacity="0.2" d="M22.657 192.564C26.7329 192.592 32.1251 192.009 33.2133 191.453C34.0376 191.026 34.3667 189.485 34.4775 188.774H34.598C34.598 188.774 34.37 191.253 33.2948 191.828C32.2196 192.403 26.8144 192.961 22.7417 192.939C21.5655 192.939 21.1583 192.575 21.1811 192.045C21.3342 192.358 21.7838 192.564 22.657 192.564Z" fill="black"/>
<path d="M343.732 193.044C342.755 191.514 343.862 189.64 345.126 188.274C346.391 186.908 347.932 185.498 347.899 183.752C347.854 181.253 344.739 179.779 342.253 178.454C340.408 177.471 338.707 176.305 337.183 174.981C336.546 174.471 336.019 173.87 335.626 173.204C335.111 172.227 335.127 171.117 335.16 170.045C335.266 166.48 335.473 162.919 335.779 159.362" stroke="#3F3D56" stroke-width="4" stroke-miterlimit="10"/>
<path d="M331.061 159.165C331.096 158.512 331.324 157.878 331.722 157.321C332.121 156.763 332.678 156.3 333.342 155.975L334.365 157.699L334.336 155.611C334.823 155.487 335.332 155.435 335.841 155.455C336.741 155.493 337.607 155.758 338.331 156.215C339.055 156.673 339.604 157.302 339.908 158.025C340.212 158.748 340.259 159.531 340.041 160.277C339.823 161.022 339.351 161.695 338.685 162.212C338.018 162.729 337.187 163.066 336.296 163.181C335.405 163.295 334.494 163.183 333.678 162.857C332.862 162.531 332.178 162.006 331.712 161.349C331.245 160.692 331.018 159.932 331.058 159.165H331.061Z" fill="#10DDC2"/>
<path d="M339.216 185.54C339.671 186.31 340.413 186.93 341.326 187.302C342.239 187.674 343.272 187.776 344.261 187.593C345.25 187.41 346.139 186.951 346.789 186.29C347.439 185.629 347.812 184.802 347.85 183.941C347.883 183.402 347.782 182.864 347.554 182.361C347.226 181.617 346.638 180.976 345.87 180.525C345.102 180.074 344.19 179.835 343.257 179.84C342.324 179.844 341.416 180.092 340.654 180.551C339.891 181.009 339.312 181.655 338.995 182.402L341.852 184.382L338.711 183.76C338.709 184.379 338.883 184.99 339.216 185.54Z" fill="#10DDC2"/>
<path d="M341.474 177.974C342.613 178.048 343.744 177.754 344.641 177.151C345.539 176.549 346.138 175.681 346.321 174.72C346.504 173.759 346.256 172.774 345.628 171.961C344.999 171.147 344.036 170.565 342.927 170.328L342.95 171.936L341.914 170.189C340.702 170.141 339.517 170.505 338.62 171.201C337.723 171.897 337.188 172.869 337.131 173.901C337.074 174.934 337.502 175.944 338.318 176.708C339.135 177.472 340.275 177.929 341.487 177.977L341.474 177.974Z" fill="#10DDC2"/>
<path d="M330.374 171.68C331.583 171.729 332.766 171.366 333.662 170.671C334.558 169.977 335.093 169.007 335.15 167.976C335.207 166.946 334.781 165.938 333.966 165.174C333.151 164.411 332.013 163.955 330.804 163.906C329.949 163.87 329.099 164.041 328.354 164.401L329.162 166.288L327.497 164.928C326.606 165.623 326.076 166.59 326.021 167.618C325.999 167.978 326.038 168.338 326.138 168.687C326.366 169.511 326.902 170.249 327.667 170.789C328.431 171.329 329.382 171.642 330.374 171.68Z" fill="#10DDC2"/>
<path opacity="0.1" d="M331.677 160.203C332.733 160.303 333.759 160.583 334.818 160.639C335.877 160.694 337.04 160.478 337.711 159.778C338.073 159.398 338.252 158.92 338.555 158.509C338.845 158.126 339.241 157.808 339.708 157.585C339.984 158.076 340.136 158.612 340.153 159.156C340.171 159.701 340.053 160.242 339.809 160.746C339.565 161.249 339.2 161.703 338.737 162.079C338.273 162.454 337.723 162.742 337.12 162.925C336.518 163.107 335.877 163.18 335.24 163.137C334.602 163.095 333.982 162.939 333.42 162.68C332.858 162.42 332.366 162.063 331.977 161.631C331.587 161.199 331.309 160.702 331.159 160.172C331.332 160.178 331.504 160.189 331.677 160.203Z" fill="black"/>
<path opacity="0.1" d="M330.374 171.68C331.162 171.714 331.948 171.573 332.653 171.271C333.359 170.969 333.96 170.516 334.399 169.956C334.837 169.396 335.097 168.749 335.154 168.078C335.211 167.407 335.063 166.735 334.723 166.127C334.36 166.336 334.048 166.603 333.804 166.913C333.479 167.332 333.28 167.815 332.899 168.201C332.185 168.915 330.97 169.148 329.865 169.104C328.761 169.059 327.695 168.795 326.607 168.709C326.454 168.709 326.301 168.687 326.148 168.684C326.374 169.507 326.909 170.245 327.672 170.786C328.434 171.326 329.383 171.64 330.374 171.68Z" fill="black"/>
<path opacity="0.1" d="M341.474 177.974C342.256 178.008 343.034 177.871 343.735 177.574C344.437 177.278 345.036 176.833 345.477 176.282C345.918 175.731 346.185 175.092 346.252 174.428C346.32 173.763 346.186 173.095 345.863 172.488C345.483 172.699 345.152 172.967 344.885 173.279C344.53 173.707 344.309 174.198 343.908 174.593C343.139 175.325 341.842 175.584 340.673 175.559C339.503 175.534 338.451 175.3 337.323 175.228C337.598 175.995 338.145 176.67 338.888 177.162C339.631 177.653 340.534 177.937 341.474 177.974Z" fill="black"/>
<path opacity="0.1" d="M339.216 185.54C339.671 186.31 340.413 186.93 341.326 187.302C342.239 187.674 343.272 187.776 344.261 187.593C345.25 187.41 346.139 186.951 346.789 186.29C347.439 185.629 347.812 184.802 347.85 183.94C347.883 183.402 347.782 182.864 347.554 182.361C347.177 182.571 346.839 182.827 346.55 183.121C346.114 183.574 345.83 184.085 345.325 184.51C344.39 185.293 342.882 185.62 341.539 185.645C340.763 185.648 339.988 185.613 339.216 185.54Z" fill="black"/>
<path d="M350.636 191.284C350.636 191.284 347.026 191.19 345.941 190.529C344.856 189.868 340.402 189.08 340.119 190.14C339.835 191.201 334.694 195.415 338.77 195.432C342.846 195.448 348.238 194.877 349.323 194.321C350.408 193.766 350.636 191.284 350.636 191.284Z" fill="#656380"/>
<path opacity="0.2" d="M338.695 195.063C342.771 195.09 348.163 194.507 349.251 193.952C350.075 193.524 350.405 191.984 350.515 191.273H350.636C350.636 191.273 350.408 193.752 349.333 194.327C348.257 194.901 342.852 195.46 338.78 195.437C337.603 195.437 337.196 195.074 337.219 194.543C337.372 194.857 337.822 195.063 338.695 195.063Z" fill="black"/>
<path d="M242.916 91.9383C240.761 91.309 238.589 90.726 236.4 90.1892C236.76 88.9325 237.096 87.6692 237.406 86.3995C242.339 65.9907 239.114 49.5492 228.098 44.1382C217.535 38.9464 200.261 44.3603 182.81 57.2952C181.09 58.576 179.41 59.8902 177.77 61.2376C176.668 60.3399 175.55 59.4598 174.414 58.5973C156.133 44.7628 137.819 38.9353 126.8 44.3631C116.247 49.5687 113.116 65.0245 117.563 84.3673C117.997 86.2829 118.496 88.1875 119.058 90.081C116.468 90.7084 113.963 91.3775 111.565 92.091C90.1295 98.446 76.4388 108.441 76.4388 118.794C76.4388 129.485 91.1362 140.21 113.464 146.713C115.276 147.236 117.1 147.723 118.938 148.173C118.343 150.209 117.813 152.262 117.348 154.331C113.112 173.338 116.423 188.43 126.946 193.602C137.819 198.949 156.064 193.452 173.827 180.22C175.232 179.174 176.639 178.063 178.063 176.902C179.84 178.363 181.663 179.781 183.533 181.156C200.743 193.774 217.744 198.872 228.254 193.683C239.114 188.327 242.642 172.113 238.061 152.39C237.714 150.884 237.309 149.346 236.846 147.779C238.13 147.457 239.385 147.123 240.612 146.776C263.823 140.224 278.928 129.63 278.928 118.794C278.928 108.402 264.794 98.3544 242.926 91.9383H242.916Z" fill="#53C1DE"/>
<path d="M237.882 139.78C236.774 140.094 235.64 140.394 234.481 140.688C231.651 133.212 228.225 125.909 224.227 118.83C228.072 111.846 231.365 104.65 234.083 97.2911C236.152 97.8019 238.165 98.3405 240.101 98.9097C258.838 104.404 270.268 112.53 270.268 118.794C270.268 125.457 257.923 134.122 237.882 139.78ZM229.567 153.823C231.594 162.543 231.881 170.428 230.545 176.589C229.339 182.128 226.915 185.82 223.918 187.3C217.535 190.445 203.89 186.356 189.173 175.564C187.485 174.326 185.788 173.007 184.081 171.608C190.216 165.82 195.886 159.685 201.052 153.245C210.28 152.579 219.442 151.373 228.476 149.636C228.889 151.058 229.255 152.446 229.574 153.801L229.567 153.823ZM145.469 186.761C139.233 188.638 134.267 188.691 131.266 187.217C124.881 184.076 122.225 171.947 125.848 155.705C126.283 153.786 126.775 151.877 127.324 149.978C136.32 151.623 145.437 152.749 154.611 153.345C159.928 159.762 165.734 165.874 171.993 171.641C170.735 172.68 169.45 173.689 168.135 174.67C160.28 180.523 152.405 184.665 145.469 186.761ZM116.263 139.738C106.387 136.862 98.2356 133.125 92.6447 129.05C87.6239 125.385 85.0891 121.745 85.0891 118.794C85.0891 112.511 96.082 104.496 114.412 99.0513C116.715 98.3683 119.038 97.7455 121.381 97.1828C124.104 104.623 127.401 111.902 131.25 118.971C127.353 126.143 124.016 133.525 121.261 141.071C119.58 140.662 117.914 140.218 116.263 139.738ZM126.053 82.9513C122.248 66.3794 124.773 53.8775 131.133 50.7458C137.907 47.4142 152.884 52.1673 168.673 64.1139C169.683 64.8774 170.696 65.677 171.71 66.5015C165.496 72.2336 159.735 78.3104 154.464 84.6921C145.377 85.3865 136.351 86.5819 127.445 88.2708C126.926 86.5087 126.462 84.7365 126.053 82.9541V82.9513ZM213.407 101.328C211.428 98.4146 209.377 95.5383 207.252 92.699C213.713 93.3959 219.9 94.3176 225.713 95.4504C223.848 100.492 221.685 105.451 219.233 110.307C217.362 107.28 215.421 104.287 213.407 101.328ZM177.776 71.7682C181.987 75.6801 185.964 79.7702 189.691 84.023C181.717 83.7028 173.74 83.7028 165.76 84.023C169.693 79.603 173.723 75.4941 177.776 71.771V71.7682ZM141.937 101.378C139.949 104.315 138.043 107.29 136.219 110.301C133.7 105.212 131.547 100.206 129.787 95.3726C135.564 94.2621 141.725 93.3709 148.144 92.6851C145.989 95.5429 143.918 98.4405 141.93 101.378H141.937ZM148.326 145.424C142.061 144.845 135.835 143.991 129.673 142.867C131.462 137.95 133.664 132.836 136.238 127.636C138.069 130.651 139.982 133.628 141.976 136.565C144.005 139.562 146.119 142.515 148.319 145.424H148.326ZM178.021 166.338C173.915 162.579 169.826 158.415 165.838 153.914C169.716 154.046 173.664 154.112 177.685 154.112C181.812 154.112 185.886 154.034 189.906 153.878C186.195 158.202 182.226 162.361 178.014 166.338H178.021ZM219.298 127.373C221.877 132.327 224.152 137.392 226.114 142.548C219.875 143.744 213.568 144.661 207.217 145.294C209.356 142.401 211.428 139.474 213.433 136.512C215.47 133.503 217.425 130.456 219.298 127.373ZM205.939 132.831C202.872 137.369 199.635 141.821 196.227 146.185C190.219 146.552 184.012 146.74 177.685 146.74C171.358 146.74 165.255 146.574 159.352 146.246C155.857 141.897 152.556 137.439 149.45 132.873C146.344 128.306 143.465 123.672 140.813 118.969C143.478 114.243 146.348 109.607 149.424 105.059C152.495 100.513 155.768 96.0713 159.241 91.7328C165.265 91.3442 171.436 91.1415 177.678 91.1415C183.921 91.1415 190.131 91.3469 196.149 91.7356C199.583 96.0611 202.841 100.486 205.923 105.009C209.005 109.533 211.915 114.148 214.652 118.855C211.947 123.597 209.047 128.252 205.949 132.82L205.939 132.831ZM223.784 50.5237C230.564 53.8553 233.2 67.2928 228.942 84.9142C228.662 86.0599 228.357 87.2028 228.029 88.3429C219.11 86.6199 210.066 85.4021 200.958 84.6976C195.738 78.3103 190.02 72.2293 183.843 66.496C185.363 65.2485 186.915 64.0352 188.499 62.8562C203.447 51.7703 217.418 47.3948 223.784 50.5237Z" fill="white"/>
<path d="M177.678 103.385C181.255 103.385 184.751 104.289 187.725 105.982C190.698 107.675 193.016 110.082 194.385 112.897C195.753 115.713 196.111 118.811 195.414 121.8C194.716 124.789 192.994 127.534 190.465 129.689C187.936 131.844 184.714 133.312 181.206 133.906C177.698 134.501 174.063 134.196 170.758 133.029C167.454 131.863 164.63 129.888 162.643 127.354C160.656 124.82 159.596 121.841 159.596 118.794C159.595 116.77 160.063 114.766 160.971 112.897C161.88 111.027 163.212 109.328 164.891 107.897C166.57 106.467 168.564 105.332 170.758 104.557C172.952 103.783 175.304 103.385 177.678 103.385Z" fill="#53C1DE"/>
<path d="M182.214 5.6637C182.214 6.57522 181.897 7.46626 181.302 8.22416C180.708 8.98206 179.863 9.57277 178.875 9.9216C177.887 10.2704 176.799 10.3617 175.75 10.1839C174.701 10.006 173.737 9.56709 172.981 8.92255C172.225 8.27801 171.709 7.45682 171.501 6.56282C171.292 5.66881 171.399 4.74216 171.809 3.90002C172.218 3.05789 172.911 2.33811 173.801 1.83169C174.69 1.32528 175.736 1.05499 176.805 1.05499C177.517 1.05204 178.221 1.16924 178.879 1.39981C179.537 1.63038 180.134 1.96974 180.637 2.39829C181.14 2.82683 181.539 3.33606 181.809 3.89655C182.08 4.45703 182.217 5.05765 182.214 5.6637Z" fill="#3F3D56"/>
<path d="M172.485 6.82706C172.056 6.16689 171.824 5.4272 171.809 4.67281C171.793 3.91841 171.995 3.17232 172.397 2.49989C172.799 1.82747 173.388 1.24923 174.113 0.815824C174.837 0.382422 175.676 0.107085 176.554 0.0139321C175.809 -0.00830397 175.067 0.100982 174.374 0.334929C173.68 0.568875 173.051 0.922428 172.526 1.37339C172.001 1.82434 171.591 2.36296 171.322 2.95542C171.052 3.54788 170.93 4.18138 170.962 4.81615C170.993 5.45091 171.179 6.07322 171.506 6.644C171.834 7.21478 172.296 7.72169 172.864 8.13292C173.433 8.54415 174.095 8.8508 174.809 9.03362C175.523 9.21643 176.274 9.27147 177.014 9.19527C176.084 9.16599 175.178 8.93263 174.385 8.51775C173.591 8.10287 172.937 7.52053 172.485 6.82706Z" fill="#3F3D56"/>
<path d="M184.534 12.0826H170.045V31.3421H184.534V12.0826Z" fill="#3F3D56"/>
<path opacity="0.1" d="M184.534 12.0826H170.045V31.3421H184.534V12.0826Z" fill="black"/>
<path d="M147.156 81.9574C147.156 81.9574 145.609 85.5805 141.943 86.0747C138.278 86.5689 136.147 87.3907 136.147 87.3907L144.84 92.1632L149.476 91.669C149.476 91.669 150.056 86.5661 151.988 85.4139C153.92 84.2618 147.156 81.9574 147.156 81.9574Z" fill="#A0616A"/>
<path d="M209.934 81.9574C209.934 81.9574 211.482 85.5805 215.147 86.0747C218.812 86.5689 220.943 87.3907 220.943 87.3907L212.25 92.1632L207.614 91.669C207.614 91.669 207.034 86.5661 205.102 85.4139C203.17 84.2618 209.934 81.9574 209.934 81.9574Z" fill="#A0616A"/>
<path d="M167.63 50.024C167.63 50.024 165.314 51.0124 164.542 52.9892C164.542 52.9892 160.306 54.1414 157.973 57.2675C157.973 57.2675 155.074 59.9022 154.689 61.2182C154.305 62.5342 149.874 70.4357 149.874 70.4357C149.874 70.4357 145.43 82.782 143.113 84.098C143.113 84.098 150.454 82.782 151.806 89.0371C151.806 89.0371 153.542 89.0371 155.474 83.2762C157.406 77.5153 162.043 70.4357 162.043 70.4357C162.043 70.4357 163.587 65.4993 164.939 64.6748C166.291 63.8502 168.416 60.066 170.348 61.0655C172.28 62.065 185.029 60.899 185.029 60.899C185.029 60.899 192.555 63.853 192.744 65.8269C192.933 67.8009 194.288 67.9675 194.481 69.6139C194.673 71.2602 201.821 84.2618 201.821 84.2618C201.821 84.2618 203.173 87.871 203.561 88.7039C203.561 88.7039 207.797 79.9807 213.414 84.9198C213.414 84.9198 213.218 81.6271 211.481 79.6448C209.745 77.6625 202.209 62.1983 202.209 62.1983C202.209 62.1983 201.437 59.8939 200.665 59.2359C199.892 58.5779 193.901 53.3085 191.776 53.3085C191.776 53.3085 190.62 50.8403 189.268 50.5099L167.63 50.024Z" fill="#3F3D56"/>
<path d="M150.245 90.5169C148.736 91.033 147.096 91.2074 145.485 91.023C143.874 90.8386 142.346 90.3017 141.051 89.4646C139.792 88.6409 138.413 87.9596 136.949 87.4379C134.899 86.7327 132.449 86.2108 131.703 87.3907C130.351 89.5313 148.121 94.798 148.121 94.798C148.121 94.798 150.441 93.6458 150.245 90.5169Z" fill="#3F3D56"/>
<path d="M206.845 90.5169C208.354 91.033 209.994 91.2074 211.605 91.023C213.216 90.8386 214.744 90.3017 216.04 89.4646C217.298 88.6409 218.677 87.9596 220.142 87.4379C222.191 86.7327 224.641 86.2108 225.387 87.3907C226.739 89.5313 208.969 94.798 208.969 94.798C208.969 94.798 206.65 93.6458 206.845 90.5169Z" fill="#3F3D56"/>
<path d="M173.945 22.9519C173.873 23.5238 173.651 24.1429 173.078 24.4455C172.609 24.6954 172.016 24.676 171.475 24.7704C170.907 24.8915 170.381 25.1248 169.938 25.4513C169.496 25.7778 169.149 26.1884 168.927 26.65C168.493 27.5815 168.408 28.6045 168.683 29.579C168.811 30.0562 168.976 30.5256 169.178 30.9838C169.745 32.3498 170.429 33.7046 171.488 34.8401C172.392 35.7429 173.408 36.5593 174.518 37.275C175.206 37.7525 175.916 38.2384 176.763 38.4633C177.337 38.5925 177.928 38.6596 178.522 38.6631C179.255 38.6909 180.037 38.7103 180.673 38.3994C181.65 37.9191 181.94 36.8585 182.471 36.0062C182.921 35.2844 183.592 34.6708 184.012 33.9351C184.311 33.3552 184.53 32.7477 184.664 32.1249L185.566 28.71C185.892 27.469 186.192 26.0697 185.374 25.0064C185.315 24.9198 185.232 24.8466 185.133 24.7926C184.976 24.7397 184.804 24.7253 184.638 24.7509C183.599 24.8085 182.563 24.6068 181.657 24.1707C181.515 24.1081 181.387 24.0233 181.282 23.9208C181.152 23.743 181.074 23.5411 181.054 23.3322C180.966 22.9091 180.826 22.4951 180.637 22.0968C180.584 21.9532 180.486 21.8246 180.353 21.7247C180.215 21.6506 180.057 21.6059 179.894 21.5943C178.499 21.4014 177.093 21.2763 175.681 21.2194C175.219 21.2 174.521 21.0418 174.202 21.3916C173.883 21.7414 173.984 22.5354 173.945 22.9519Z" fill="#A0616A"/>
<path opacity="0.1" d="M173.945 22.9519C173.873 23.5238 173.651 24.1429 173.078 24.4455C172.609 24.6954 172.016 24.676 171.475 24.7704C170.907 24.8915 170.381 25.1248 169.938 25.4513C169.496 25.7778 169.149 26.1884 168.927 26.65C168.493 27.5815 168.408 28.6045 168.683 29.579C168.811 30.0562 168.976 30.5256 169.178 30.9838C169.745 32.3498 170.429 33.7046 171.488 34.8401C172.392 35.7429 173.408 36.5593 174.518 37.275C175.206 37.7525 175.916 38.2384 176.763 38.4633C177.337 38.5925 177.928 38.6596 178.522 38.6631C179.255 38.6909 180.037 38.7103 180.673 38.3994C181.65 37.9191 181.94 36.8585 182.471 36.0062C182.921 35.2844 183.592 34.6708 184.012 33.9351C184.311 33.3552 184.53 32.7477 184.664 32.1249L185.566 28.71C185.892 27.469 186.192 26.0697 185.374 25.0064C185.315 24.9198 185.232 24.8466 185.133 24.7926C184.976 24.7397 184.804 24.7253 184.638 24.7509C183.599 24.8085 182.563 24.6068 181.657 24.1707C181.515 24.1081 181.387 24.0233 181.282 23.9208C181.152 23.743 181.074 23.5411 181.054 23.3322C180.966 22.9091 180.826 22.4951 180.637 22.0968C180.584 21.9532 180.486 21.8246 180.353 21.7247C180.215 21.6506 180.057 21.6059 179.894 21.5943C178.499 21.4014 177.093 21.2763 175.681 21.2194C175.219 21.2 174.521 21.0418 174.202 21.3916C173.883 21.7414 173.984 22.5354 173.945 22.9519Z" fill="black"/>
<path d="M171.328 24.9148C170.574 24.7228 169.793 24.6182 169.005 24.6039C167.142 24.565 165.148 25.1119 164.073 26.4085C163.34 27.3443 163.072 28.4891 163.326 29.5929C163.586 30.6864 164.169 31.7052 165.021 32.5525C165.513 32.9979 165.949 33.4854 166.324 34.0073C166.839 34.8402 166.855 35.8369 166.995 36.7836C167.321 39.038 168.448 41.1564 168.895 43.3969C169.341 45.6374 168.956 48.2332 166.881 49.6575C166.532 49.8963 166.109 50.1489 166.08 50.5293C166.034 51.1373 166.962 51.3955 167.676 51.4538C169.81 51.6259 172 51.7953 174.072 51.3261C174.929 51.1317 175.756 50.8291 176.629 50.6903C178.845 50.3377 181.073 51.0623 183.292 51.4094C184.898 51.6352 186.523 51.7476 188.15 51.7453C188.529 51.7742 188.91 51.7315 189.268 51.6204C189.445 51.5612 189.595 51.4556 189.697 51.3189C189.799 51.1821 189.847 51.0213 189.834 50.8596C189.762 50.6504 189.63 50.4596 189.45 50.3044C188.329 49.1244 187.987 47.5558 187.681 46.0594L186.655 41.0314C186.104 38.3439 185.592 35.4232 187.085 33.0106C188.157 31.2754 190.134 30.0538 191.265 28.3464C191.659 27.8303 191.837 27.2159 191.77 26.6028C191.6 25.7449 190.691 25.1314 189.76 24.7732C187.967 24.0879 185.931 24.0241 184.084 24.5955C184.116 25.7977 183.758 27.0137 183.527 28.2048L183.133 30.1482C182.932 31.2935 182.637 32.4253 182.25 33.5353C182.109 33.9794 181.869 34.3961 181.543 34.7625C181.195 35.0921 180.77 35.356 180.295 35.5371C179.266 35.9655 178.136 36.186 176.991 36.1812C176.495 36.1877 176.002 36.1229 175.531 35.9896C174.773 35.7065 174.09 35.2968 173.521 34.7847C173.322 34.6395 173.143 34.4745 172.99 34.2933C172.828 34.0625 172.706 33.8128 172.628 33.552C172.365 32.8729 172.157 32.179 172.006 31.4753C171.908 30.9367 171.876 30.3897 171.83 29.8456C171.703 28.2381 171.703 26.4612 171.328 24.9148Z" fill="#10DDC2"/>
<path d="M169.37 56.7733C169.37 56.7733 168.598 65.4993 173.427 66.9791C178.255 68.4589 174.007 59.7357 174.007 59.7357L172.459 57.1037L169.37 56.7733Z" fill="#A0616A"/>
<path d="M185.788 56.7733C185.788 56.7733 186.56 65.4993 181.732 66.9791C176.903 68.4589 181.152 59.7357 181.152 59.7357L182.699 57.1037L185.788 56.7733Z" fill="#A0616A"/>
<path opacity="0.1" d="M165.118 27.6495L163.574 29.7901C163.574 29.7901 164.926 37.1974 165.118 38.5133C165.285 39.4629 165.544 40.399 165.894 41.3119C165.894 41.3119 166.086 45.2626 166.086 46.7452C166.086 48.2277 167.063 50.6959 167.063 50.6959C167.2 52.0952 167.528 53.4761 168.041 54.8104C168.813 56.6206 169.585 58.7611 169.585 58.7611C169.585 58.7611 170.563 56.4568 174.414 59.9133C174.845 59.5403 175.087 59.0377 175.087 58.514C175.087 57.9904 174.845 57.4877 174.414 57.1148C174.414 57.1148 173.257 52.6726 173.257 50.3655C173.257 48.0584 171.13 37.0391 171.13 37.0391C171.13 37.0391 169.748 24.5123 165.118 27.6495Z" fill="black"/>
<path d="M164.734 27.4746L163.19 29.6152C163.19 29.6152 164.542 37.0224 164.734 38.3384C164.901 39.2882 165.162 40.2243 165.513 41.137C165.513 41.137 165.705 45.0877 165.705 46.5675C165.705 48.0473 166.682 50.5182 166.682 50.5182C166.818 51.9176 167.146 53.2986 167.66 54.6327C168.432 56.4457 169.207 58.5834 169.207 58.5834C169.207 58.5834 170.185 56.2791 174.036 59.7356C174.466 59.3628 174.707 58.8607 174.707 58.3377C174.707 57.8147 174.466 57.3127 174.036 56.9398C174.036 56.9398 172.876 52.4977 172.876 50.1906C172.876 47.8834 170.752 36.8642 170.752 36.8642C170.752 36.8642 169.37 24.3457 164.734 27.4746Z" fill="#10DDC2"/>
<path opacity="0.1" d="M190.232 26.3225L191.209 27.3025C191.209 27.3025 192.346 32.9051 189.834 39.9848L189.062 46.4037C189.062 46.4037 187.71 51.837 187.518 53.1529C187.326 54.4689 187.326 54.6327 186.938 55.1269C186.82 55.2425 186.756 55.3904 186.756 55.5434C186.756 55.6964 186.82 55.8442 186.938 55.9598L185.778 59.5691C185.778 59.5691 184.042 57.7589 180.565 60.0632C180.565 60.0632 179.588 58.7473 180.37 57.5951C181.152 56.4429 181.142 55.9487 180.95 55.6183C180.757 55.2879 181.722 53.6444 181.722 53.314C181.722 52.9836 183.084 45.4181 183.084 45.4181C183.084 45.4181 183.664 38.0108 184.244 35.5427C184.599 34.024 184.592 30.6397 184.53 28.2576C184.468 25.7755 187.994 24.4318 190.069 26.1753C190.118 26.2197 190.177 26.2614 190.232 26.3225Z" fill="black"/>
<path d="M190.812 25.9837L191.789 26.9637C191.789 26.9637 192.926 32.5692 190.414 39.646L189.642 46.0649C189.642 46.0649 188.29 51.4982 188.098 52.8142C187.906 54.1302 187.902 54.2968 187.518 54.791C187.4 54.9063 187.335 55.0542 187.335 55.2074C187.335 55.3606 187.4 55.5085 187.518 55.6239L186.365 59.2442C186.365 59.2442 184.628 57.4312 181.152 59.7356C181.152 59.7356 180.174 58.4196 180.959 57.2674C181.745 56.1153 181.732 55.6211 181.539 55.2935C181.347 54.9659 182.311 53.3167 182.311 52.9891C182.311 52.6615 183.664 45.0877 183.664 45.0877C183.664 45.0877 184.244 37.6804 184.823 35.2095C185.403 32.7385 185.016 25.334 185.016 25.334C185.016 25.334 188.108 23.5239 190.812 25.9837Z" fill="#10DDC2"/>
<path d="M177.867 23.6905C182.136 23.6905 185.596 20.742 185.596 17.105C185.596 13.4679 182.136 10.5195 177.867 10.5195C173.599 10.5195 170.139 13.4679 170.139 17.105C170.139 20.742 173.599 23.6905 177.867 23.6905Z" fill="#A0616A"/>
<path opacity="0.1" d="M181.898 7.21846C181.526 8.1021 180.847 8.86801 179.951 9.41375C179.055 9.95949 177.984 10.259 176.883 10.2723C175.781 10.2856 174.701 10.012 173.787 9.48808C172.873 8.96417 172.169 8.21495 171.768 7.34062C174.785 6.30504 177.868 7.22679 177.868 7.22679C179.409 6.76592 180.744 6.80756 181.898 7.21846Z" fill="black"/>
<path d="M177.867 7.55722C177.867 7.55722 162.994 3.11508 166.666 24.6761C166.666 24.6761 169.95 26.4863 172.459 25.3341C172.459 25.3341 170.722 10.3558 177.483 11.0138C184.244 11.6717 183.084 25.0065 183.084 25.0065C183.084 25.0065 186.948 25.9921 188.108 24.1736C189.268 22.3551 187.72 4.60598 177.867 7.55722Z" fill="#3F3D56"/>
<path opacity="0.1" d="M177.483 10.0253C172.843 9.57553 172.205 16.4858 172.27 20.8669C172.325 16.5108 173.186 10.5944 177.483 11.0137C182.308 11.4829 183.1 18.4154 183.155 22.3411C183.211 18.7374 182.748 10.5389 177.483 10.0253Z" fill="black"/>
<path opacity="0.1" d="M166.666 23.6877C166.33 21.8004 166.137 19.8965 166.089 17.9879C166.073 20.2268 166.266 22.4633 166.666 24.6761C166.666 24.6761 169.95 26.4863 172.459 25.3341C172.459 25.3341 172.42 24.9787 172.374 24.3818C169.875 25.4562 166.666 23.6877 166.666 23.6877Z" fill="black"/>
<path opacity="0.1" d="M188.108 23.2074C187.026 24.8954 183.602 24.1541 183.139 24.0403C183.116 24.6511 183.084 25.0175 183.084 25.0175C183.084 25.0175 186.948 26.0031 188.108 24.1846C188.345 23.8126 188.469 22.7604 188.433 21.3528C188.401 22.2551 188.287 22.9297 188.108 23.2074Z" fill="black"/>
<path d="M269.359 186.836C270.903 184.399 269.15 181.411 267.137 179.237C265.123 177.063 262.663 174.795 262.716 172.019C262.79 168.035 267.749 165.686 271.714 163.573C274.654 162.007 277.365 160.15 279.791 158.04C280.769 157.193 281.704 156.288 282.274 155.205C283.095 153.651 283.072 151.874 283.02 150.175C282.849 144.491 282.523 138.814 282.043 133.145" stroke="#3F3D56" stroke-width="4" stroke-miterlimit="10"/>
<path d="M289.562 132.845C289.507 131.805 289.144 130.794 288.509 129.905C287.873 129.016 286.985 128.278 285.926 127.759L284.297 130.507L284.346 127.176C282.864 126.802 281.281 126.839 279.826 127.283C278.371 127.726 277.118 128.552 276.25 129.641C275.382 130.73 274.942 132.026 274.994 133.342C275.047 134.659 275.589 135.926 276.543 136.963C277.496 137.999 278.811 138.75 280.299 139.108C281.786 139.466 283.368 139.412 284.817 138.953C286.266 138.494 287.506 137.655 288.358 136.557C289.21 135.458 289.631 134.157 289.559 132.842L289.562 132.845Z" fill="#10DDC2"/>
<path d="M276.569 174.876C275.805 176.142 274.552 177.147 273.022 177.72C271.492 178.293 269.777 178.4 268.165 178.024C266.553 177.648 265.142 176.81 264.168 175.653C263.195 174.495 262.718 173.087 262.818 171.665C262.918 170.243 263.589 168.894 264.718 167.844C265.847 166.793 267.366 166.106 269.019 165.896C270.672 165.687 272.36 165.968 273.799 166.693C275.237 167.418 276.34 168.543 276.921 169.878L272.36 173.035L277.367 172.044C277.37 173.029 277.096 174 276.569 174.876Z" fill="#10DDC2"/>
<path d="M272.969 162.818C271.186 162.882 269.437 162.387 268.054 161.426C266.671 160.465 265.75 159.105 265.465 157.604C265.18 156.103 265.552 154.565 266.509 153.282C267.466 151.998 268.943 151.059 270.659 150.641L270.62 153.201L272.268 150.425H272.288C273.248 150.38 274.209 150.499 275.115 150.772C276.021 151.046 276.855 151.47 277.569 152.019C278.282 152.569 278.86 153.233 279.271 153.974C279.682 154.715 279.916 155.518 279.961 156.336C280.006 157.155 279.86 157.972 279.533 158.743C279.205 159.513 278.702 160.22 278.052 160.824C277.402 161.428 276.618 161.916 275.746 162.261C274.873 162.606 273.93 162.8 272.969 162.832V162.818Z" fill="#10DDC2"/>
<path d="M290.66 152.787C289.533 152.832 288.409 152.653 287.377 152.265C286.344 151.877 285.432 151.29 284.711 150.55C283.991 149.81 283.481 148.938 283.224 148.002C282.966 147.065 282.967 146.091 283.226 145.155C283.486 144.219 283.997 143.348 284.719 142.609C285.441 141.87 286.354 141.284 287.388 140.897C288.421 140.511 289.545 140.333 290.672 140.38C291.799 140.426 292.898 140.695 293.883 141.165L292.579 144.172L295.228 142.007C296.289 142.836 297.037 143.914 297.38 145.105C297.723 146.296 297.644 147.546 297.154 148.699C296.664 149.852 295.784 150.856 294.625 151.583C293.467 152.311 292.082 152.73 290.644 152.787H290.66Z" fill="#10DDC2"/>
<path opacity="0.1" d="M288.585 134.5C286.901 134.658 285.265 135.105 283.577 135.194C281.89 135.282 280.036 134.938 278.97 133.805C278.394 133.203 278.107 132.442 277.621 131.784C277.16 131.173 276.53 130.668 275.787 130.313C275.317 131.1 275.05 131.964 275.003 132.846C274.955 133.729 275.13 134.609 275.514 135.43C275.898 136.25 276.483 136.991 277.23 137.604C277.977 138.216 278.869 138.686 279.845 138.981C280.822 139.277 281.862 139.391 282.895 139.317C283.928 139.243 284.93 138.982 285.836 138.552C286.741 138.121 287.528 137.531 288.144 136.821C288.76 136.111 289.192 135.297 289.409 134.433C289.132 134.458 288.859 134.475 288.585 134.5Z" fill="black"/>
<path opacity="0.1" d="M290.66 152.787C289.404 152.836 288.155 152.608 287.033 152.124C285.911 151.64 284.955 150.918 284.257 150.026C283.559 149.135 283.144 148.105 283.051 147.037C282.958 145.968 283.191 144.897 283.727 143.928C284.307 144.26 284.805 144.685 285.193 145.18C285.711 145.846 286.027 146.618 286.637 147.232C287.77 148.367 289.712 148.739 291.472 148.673C293.231 148.606 294.925 148.179 296.685 148.04C296.929 148.023 297.173 148.009 297.421 148.004C297.058 149.319 296.202 150.498 294.982 151.361C293.762 152.225 292.245 152.725 290.66 152.787Z" fill="black"/>
<path opacity="0.1" d="M272.969 162.818C271.725 162.868 270.487 162.645 269.374 162.171C268.26 161.697 267.307 160.988 266.606 160.112C265.905 159.235 265.479 158.22 265.369 157.163C265.259 156.107 265.468 155.044 265.977 154.075C266.578 154.412 267.1 154.84 267.518 155.339C268.085 156.019 268.437 156.802 269.101 157.432C270.33 158.598 272.395 159.009 274.259 158.97C276.064 158.937 277.801 158.559 279.596 158.443C279.155 159.665 278.281 160.741 277.095 161.524C275.909 162.307 274.468 162.759 272.969 162.818Z" fill="black"/>
<path opacity="0.1" d="M276.569 174.876C275.724 176.303 274.267 177.398 272.499 177.932C270.731 178.467 268.79 178.4 267.079 177.746C265.367 177.092 264.018 175.901 263.311 174.42C262.603 172.94 262.593 171.284 263.282 169.798C263.883 170.133 264.422 170.543 264.882 171.014C265.576 171.733 266.032 172.549 266.837 173.218C268.326 174.465 270.73 174.978 272.871 175.026C274.106 175.037 275.341 174.987 276.569 174.876Z" fill="black"/>
<path d="M258.369 184.029C258.369 184.029 264.12 183.879 265.863 182.827C267.606 181.775 274.712 180.52 275.142 182.205C275.572 183.891 283.786 190.595 277.292 190.64C270.799 190.684 262.204 189.779 260.474 188.88C258.744 187.98 258.369 184.029 258.369 184.029Z" fill="#656380"/>
<path opacity="0.2" d="M277.397 190.065C270.903 190.11 262.308 189.202 260.578 188.305C259.275 187.619 258.737 185.168 258.561 184.035H258.369C258.369 184.035 258.734 187.988 260.464 188.885C262.194 189.782 270.789 190.69 277.283 190.645C279.156 190.645 279.804 190.065 279.768 189.224C279.508 189.726 278.794 190.043 277.397 190.065Z" fill="black"/>
<path d="M105.237 11.8994L99.2913 15.1116L102.901 9.51727C101.883 8.82319 100.622 8.43827 99.3174 8.42339H99.2196C98.8072 8.42831 98.3951 8.4023 97.9881 8.34565L95.9713 9.43397L96.8347 8.09578C95.4075 7.67083 94.1739 6.87322 93.3094 5.81641L89.7027 7.75985L91.9833 4.22835C89.8721 2.07114 87.031 0.746826 83.8999 0.746826C80.1498 0.746826 76.8103 2.64862 74.6534 5.61096C74.0155 6.4967 73.1142 7.22305 72.0408 7.71645C70.9675 8.20985 69.7601 8.45277 68.5411 8.42061H68.3391C64.1981 8.42061 60.8455 12.4213 60.8455 17.3576C60.8455 22.294 64.2013 26.2919 68.3391 26.2919C69.248 26.2896 70.1425 26.0991 70.9456 25.7366C73.6466 24.54 77.1915 24.5178 80.0195 25.5867C81.232 26.0514 82.5459 26.2928 83.8754 26.2952C85.2049 26.2976 86.52 26.0609 87.7347 25.6006C90.5432 24.5539 94.0457 24.5761 96.7304 25.7505C97.5269 26.1096 98.4131 26.3 99.3141 26.3058C103.455 26.3058 106.808 22.3051 106.808 17.3715C106.833 15.464 106.292 13.5819 105.237 11.8994Z" fill="#F2F2F2"/>
<path opacity="0.03" d="M94.0262 24.9731C91.8629 24.6226 89.626 24.8294 87.6012 25.5672C86.3869 26.0272 85.0724 26.2637 83.7435 26.2613C82.4146 26.2589 81.1013 26.0177 79.8892 25.5533C77.0579 24.4845 73.5131 24.5067 70.8121 25.7033C70.009 26.0657 69.1144 26.2563 68.2056 26.2585C64.5272 26.2585 61.4678 23.0991 60.8292 18.9346C61.5641 18.4784 62.1881 17.9052 62.6668 17.2466C64.8367 14.287 68.1633 12.3796 71.9134 12.3796C75.6635 12.3796 78.9639 14.2592 81.1208 17.1883C81.7645 18.0732 82.6652 18.8017 83.736 19.3031C84.8068 19.8046 86.0113 20.0621 87.233 20.0507H87.3178C90.2501 20.0534 92.7914 22.0552 94.0262 24.9731Z" fill="black"/>
<path d="M260.673 18.4404L257.718 20.0424L259.519 17.266C259.01 16.9154 258.378 16.72 257.724 16.7108H257.678C257.472 16.7132 257.266 16.7002 257.063 16.6719L256.056 17.2272L256.479 16.5442C255.767 16.3328 255.152 15.9355 254.72 15.4087L252.922 16.3804L254.059 14.6202C253.58 14.094 252.97 13.6651 252.273 13.3645C251.576 13.0639 250.809 12.8991 250.028 12.8822C248.155 12.8822 246.49 13.8317 245.415 15.3087C245.095 15.7487 244.645 16.1088 244.109 16.3525C243.574 16.5963 242.972 16.7151 242.365 16.6969H242.264C240.199 16.6969 238.524 18.6931 238.524 21.139C238.524 23.585 240.199 25.595 242.264 25.595C242.719 25.5937 243.166 25.4984 243.567 25.3174C244.27 25.0264 245.039 24.8689 245.821 24.856C246.602 24.843 247.377 24.9749 248.093 25.2424C248.699 25.4722 249.354 25.5909 250.017 25.5909C250.68 25.5909 251.335 25.4722 251.941 25.2424C252.651 24.9803 253.42 24.8513 254.194 24.8642C254.968 24.8771 255.729 25.0317 256.427 25.3174C256.829 25.4985 257.276 25.5938 257.731 25.595C259.796 25.595 261.471 23.6016 261.471 21.139C261.474 20.1967 261.2 19.2689 260.673 18.4404Z" fill="#F2F2F2"/>
<path opacity="0.03" d="M255.085 24.962C254.006 24.7884 252.892 24.8918 251.882 25.259C251.277 25.4887 250.621 25.6074 249.958 25.6074C249.295 25.6074 248.64 25.4887 248.034 25.259C247.318 24.9914 246.542 24.8595 245.76 24.8725C244.978 24.8854 244.209 25.0429 243.506 25.334C243.104 25.5157 242.657 25.6111 242.202 25.6116C240.365 25.6116 238.84 24.0374 238.521 21.9607C238.886 21.7352 239.198 21.4526 239.439 21.1278C240.515 19.6508 242.183 18.7041 244.053 18.7041C245.923 18.7041 247.568 19.6397 248.644 21.1001C248.964 21.5418 249.414 21.9054 249.948 22.1554C250.482 22.4055 251.084 22.5335 251.693 22.5271H251.742C253.205 22.5077 254.459 23.5072 255.085 24.962Z" fill="black"/>
<path d="M66.5765 59.9299L71.3529 62.5064L68.4597 58.0226C69.2801 57.4661 70.2946 57.1584 71.3431 57.1481H71.4181C71.7453 57.1522 72.0724 57.1318 72.3955 57.087L74.0083 57.9588L73.3078 56.8871C74.4503 56.5447 75.4382 55.9059 76.1326 55.0603L79.0225 56.6206L77.2175 53.7915C78.9085 52.0646 81.1859 51.0151 83.6914 51.0151C86.6986 51.0151 89.3736 52.5366 91.1036 54.902C91.6134 55.6108 92.3338 56.1923 93.192 56.5877C94.0502 56.9831 95.0157 57.1783 95.9908 57.1536H96.1537C99.4705 57.1536 102.158 60.3575 102.158 64.311C102.158 68.2645 99.4705 71.4712 96.1537 71.4712C95.4232 71.4688 94.7044 71.3154 94.0588 71.0242C92.9296 70.5567 91.6948 70.3039 90.4397 70.2833C89.1846 70.2627 87.9393 70.4747 86.7899 70.9048C85.816 71.2757 84.7614 71.4674 83.6947 71.4674C82.628 71.4674 81.5733 71.2757 80.5994 70.9048C79.4583 70.4836 78.2242 70.2762 76.9807 70.2968C75.7373 70.3174 74.5136 70.5655 73.3925 71.0242C72.7534 71.3076 72.0441 71.4571 71.3236 71.4601C68.0035 71.4601 65.3156 68.2562 65.3156 64.2999C65.3 62.7763 65.7335 61.2737 66.5765 59.9299Z" fill="#F2F2F2"/>
<path opacity="0.03" d="M75.5526 70.405C77.2862 70.1267 79.0777 70.2928 80.7004 70.8826C81.6743 71.2535 82.729 71.4452 83.7957 71.4452C84.8623 71.4452 85.917 71.2535 86.8909 70.8826C88.0408 70.4525 89.2867 70.2404 90.5423 70.261C91.798 70.2816 93.0333 70.5344 94.163 71.0019C94.8075 71.2931 95.5253 71.4465 96.2547 71.4489C99.2033 71.4489 101.653 68.9197 102.165 65.5825C101.577 65.2156 101.077 64.7556 100.692 64.2277C98.9622 61.8567 96.2873 60.3408 93.28 60.3408C90.2728 60.3408 87.6337 61.8456 85.9037 64.1944C85.3889 64.902 84.6687 65.4845 83.8126 65.8857C82.9565 66.287 81.9935 66.4933 81.0165 66.4848H80.9415C78.5761 66.4654 76.5431 68.0701 75.5526 70.405Z" fill="black"/>
</g>
<defs>
<clipPath id="clip0">
<rect width="361" height="203" fill="white"/>
</clipPath>
</defs>
</svg>
